Galada.ufo
<glyph name="exclam" format="1">
  <advance width="257"/>
  <unicode hex="0021"/>
  <outline>
    <contour>
      <point x="313" y="700" type="line"/>
      <point x="183" y="231" type="line"/>
      <point x="98" y="231" type="line"/>
      <point x="169" y="700" type="line"/>
    </contour>
    <contour>
      <point x="114" y="159" type="qcurve" smooth="yes"/>
      <point x="147" y="159"/>
      <point x="193" y="113"/>
      <point x="193" y="80" type="qcurve"/>
      <point x="193" y="47"/>
      <point x="147" y="0"/>
      <point x="114" y="0" type="qcurve" smooth="yes"/>
      <point x="81" y="0"/>
      <point x="34" y="47"/>
      <point x="34" y="80" type="qcurve" smooth="yes"/>
      <point x="34" y="113"/>
      <point x="81" y="159"/>
    </contour>
  </outline>
</glyph>
<glyph name="quotedbl" format="1">
  <advance width="420"/>
  <unicode hex="0022"/>
  <outline>
    <contour>
      <point x="137" y="561" type="line"/>
      <point x="62" y="561" type="line"/>
      <point x="123" y="750" type="line"/>
      <point x="228" y="750" type="line"/>
    </contour>
    <contour>
      <point x="294" y="561" type="line"/>
      <point x="219" y="561" type="line"/>
      <point x="280" y="750" type="line"/>
      <point x="385" y="750" type="line"/>
    </contour>
  </outline>
</glyph>
<glyph name="numbersign" format="1">
  <advance width="659"/>
  <unicode hex="0023"/>
  <outline>
    <contour>
      <point x="364" y="-27" type="line"/>
      <point x="307" y="-27" type="line"/>
      <point x="332" y="111" type="line"/>
      <point x="214" y="111" type="line"/>
      <point x="184" y="-27" type="line"/>
      <point x="127" y="-27" type="line"/>
      <point x="152" y="111" type="line"/>
      <point x="45" y="111" type="line"/>
      <point x="66" y="213" type="line"/>
      <point x="170" y="213" type="line"/>
      <point x="191" y="326" type="line"/>
      <point x="89" y="326" type="line"/>
      <point x="110" y="428" type="line"/>
      <point x="209" y="428" type="line"/>
      <point x="261" y="718" type="line"/>
      <point x="349" y="718" type="line"/>
      <point x="284" y="428" type="line"/>
      <point x="389" y="428" type="line"/>
      <point x="441" y="718" type="line"/>
      <point x="529" y="718" type="line"/>
      <point x="464" y="428" type="line"/>
      <point x="568" y="428" type="line"/>
      <point x="548" y="326" type="line"/>
      <point x="442" y="326" type="line"/>
      <point x="417" y="213" type="line"/>
      <point x="524" y="213" type="line"/>
      <point x="504" y="111" type="line"/>
      <point x="394" y="111" type="line"/>
    </contour>
    <contour>
      <point x="371" y="326" type="line"/>
      <point x="262" y="326" type="line"/>
      <point x="237" y="213" type="line"/>
      <point x="350" y="213" type="line"/>
    </contour>
  </outline>
</glyph>
<glyph name="dollar" format="1">
  <advance width="403"/>
  <unicode hex="0024"/>
  <outline>
    <contour>
      <point x="137" y="-27" type="line"/>
      <point x="110" y="-27" type="line"/>
      <point x="134" y="108" type="line"/>
      <point x="80" y="112"/>
      <point x="24" y="170"/>
      <point x="24" y="222" type="qcurve" smooth="yes"/>
      <point x="24" y="259"/>
      <point x="65" y="308"/>
      <point x="96" y="308" type="qcurve" smooth="yes"/>
      <point x="115" y="308"/>
      <point x="139" y="294"/>
      <point x="139" y="283" type="qcurve"/>
      <point x="119" y="280"/>
      <point x="99" y="242"/>
      <point x="99" y="209" type="qcurve" smooth="yes"/>
      <point x="99" y="190"/>
      <point x="122" y="157"/>
      <point x="141" y="148" type="qcurve"/>
      <point x="177" y="344" type="line"/>
      <point x="171" y="349"/>
      <point x="121" y="389"/>
      <point x="108" y="402" type="qcurve" smooth="yes"/>
      <point x="89" y="421"/>
      <point x="71" y="459"/>
      <point x="71" y="481" type="qcurve" smooth="yes"/>
      <point x="71" y="533"/>
      <point x="164" y="610"/>
      <point x="225" y="612" type="qcurve"/>
      <point x="244" y="718" type="line"/>
      <point x="302" y="718" type="line"/>
      <point x="277" y="609" type="line"/>
      <point x="320" y="602"/>
      <point x="364" y="560"/>
      <point x="364" y="526" type="qcurve" smooth="yes"/>
      <point x="364" y="491"/>
      <point x="338" y="450"/>
      <point x="316" y="450" type="qcurve" smooth="yes"/>
      <point x="305" y="450"/>
      <point x="288" y="460"/>
      <point x="277" y="473" type="qcurve"/>
      <point x="289" y="480"/>
      <point x="301" y="507"/>
      <point x="301" y="525" type="qcurve" smooth="yes"/>
      <point x="301" y="538"/>
      <point x="284" y="563"/>
      <point x="269" y="569" type="qcurve"/>
      <point x="233" y="408" type="line"/>
      <point x="303" y="363"/>
      <point x="346" y="297"/>
      <point x="346" y="255" type="qcurve" smooth="yes"/>
      <point x="346" y="188"/>
      <point x="249" y="109"/>
      <point x="166" y="107" type="qcurve"/>
    </contour>
    <contour>
      <point x="241" y="234" type="qcurve" smooth="yes"/>
      <point x="241" y="254"/>
      <point x="227" y="292"/>
      <point x="212" y="310" type="qcurve"/>
      <point x="175" y="144" type="line"/>
      <point x="207" y="148"/>
      <point x="241" y="195"/>
    </contour>
    <contour>
      <point x="166" y="500" type="qcurve" smooth="yes"/>
      <point x="166" y="483"/>
      <point x="180" y="453"/>
      <point x="194" y="439" type="qcurve"/>
      <point x="218" y="574" type="line"/>
      <point x="193" y="569"/>
      <point x="166" y="529"/>
    </contour>
  </outline>
</glyph>
<glyph name="percent" format="1">
  <advance width="644"/>
  <unicode hex="0025"/>
  <outline>
    <contour>
      <point x="507" y="750" type="line"/>
      <point x="579" y="750" type="line"/>
      <point x="193" y="0" type="line"/>
      <point x="121" y="0" type="line"/>
    </contour>
    <contour>
      <point x="107" y="488" type="qcurve" smooth="yes"/>
      <point x="107" y="581"/>
      <point x="197" y="702"/>
      <point x="269" y="702" type="qcurve" smooth="yes"/>
      <point x="311" y="702"/>
      <point x="351" y="646"/>
      <point x="351" y="589" type="qcurve" smooth="yes"/>
      <point x="351" y="509"/>
      <point x="265" y="374"/>
      <point x="203" y="374" type="qcurve" smooth="yes"/>
      <point x="152" y="374"/>
      <point x="107" y="425"/>
    </contour>
    <contour>
      <point x="266" y="667" type="qcurve" smooth="yes"/>
      <point x="239" y="667"/>
      <point x="186" y="581"/>
      <point x="181" y="519" type="qcurve" smooth="yes"/>
      <point x="180" y="507"/>
      <point x="179" y="486"/>
      <point x="179" y="476" type="qcurve" smooth="yes"/>
      <point x="179" y="444"/>
      <point x="193" y="411"/>
      <point x="206" y="411" type="qcurve" smooth="yes"/>
      <point x="243" y="411"/>
      <point x="291" y="522"/>
      <point x="291" y="604" type="qcurve" smooth="yes"/>
      <point x="291" y="638"/>
      <point x="279" y="667"/>
    </contour>
    <contour>
      <point x="355" y="114" type="qcurve" smooth="yes"/>
      <point x="355" y="207"/>
      <point x="445" y="328"/>
      <point x="517" y="328" type="qcurve" smooth="yes"/>
      <point x="561" y="328"/>
      <point x="609" y="269"/>
      <point x="609" y="215" type="qcurve" smooth="yes"/>
      <point x="609" y="127"/>
      <point x="523" y="0"/>
      <point x="451" y="0" type="qcurve" smooth="yes"/>
      <point x="400" y="0"/>
      <point x="355" y="51"/>
    </contour>
    <contour>
      <point x="503" y="291" type="qcurve" smooth="yes"/>
      <point x="477" y="291"/>
      <point x="429" y="208"/>
      <point x="424" y="145" type="qcurve" smooth="yes"/>
      <point x="423" y="133"/>
      <point x="422" y="112"/>
      <point x="422" y="102" type="qcurve" smooth="yes"/>
      <point x="422" y="70"/>
      <point x="436" y="37"/>
      <point x="449" y="37" type="qcurve" smooth="yes"/>
      <point x="486" y="37"/>
      <point x="531" y="141"/>
      <point x="531" y="223" type="qcurve" smooth="yes"/>
      <point x="531" y="255"/>
      <point x="517" y="291"/>
    </contour>
  </outline>
</glyph>
<glyph name="ampersand" format="1">
  <advance width="682"/>
  <unicode hex="0026"/>
  <outline>
    <contour>
      <point x="581" y="370" type="qcurve" smooth="yes"/>
      <point x="613" y="370"/>
      <point x="665" y="393"/>
      <point x="676" y="413" type="qcurve"/>
      <point x="682" y="413" type="line"/>
      <point x="682" y="369"/>
      <point x="590" y="284"/>
      <point x="530" y="274" type="qcurve"/>
      <point x="511" y="206"/>
      <point x="460" y="103"/>
      <point x="428" y="69" type="qcurve" smooth="yes"/>
      <point x="391" y="30"/>
      <point x="298" y="-6"/>
      <point x="218" y="-6" type="qcurve" smooth="yes"/>
      <point x="124" y="-6"/>
      <point x="11" y="108"/>
      <point x="11" y="196" type="qcurve" smooth="yes"/>
      <point x="11" y="277"/>
      <point x="110" y="400"/>
      <point x="192" y="417" type="qcurve"/>
      <point x="145" y="443"/>
      <point x="93" y="523"/>
      <point x="93" y="569" type="qcurve" smooth="yes"/>
      <point x="93" y="645"/>
      <point x="218" y="750"/>
      <point x="315" y="750" type="qcurve" smooth="yes"/>
      <point x="399" y="750"/>
      <point x="499" y="679"/>
      <point x="499" y="616" type="qcurve" smooth="yes"/>
      <point x="499" y="571"/>
      <point x="463" y="524"/>
      <point x="429" y="524" type="qcurve" smooth="yes"/>
      <point x="412" y="524"/>
      <point x="383" y="537"/>
      <point x="372" y="550" type="qcurve"/>
      <point x="389" y="555"/>
      <point x="416" y="609"/>
      <point x="416" y="632" type="qcurve" smooth="yes"/>
      <point x="416" y="667"/>
      <point x="382" y="706"/>
      <point x="350" y="706" type="qcurve" smooth="yes"/>
      <point x="297" y="706"/>
      <point x="228" y="635"/>
      <point x="228" y="583" type="qcurve" smooth="yes"/>
      <point x="228" y="533"/>
      <point x="297" y="446"/>
      <point x="360" y="418" type="qcurve"/>
      <point x="276" y="384"/>
      <point x="186" y="278"/>
      <point x="186" y="217" type="qcurve" smooth="yes"/>
      <point x="186" y="162"/>
      <point x="255" y="84"/>
      <point x="303" y="84" type="qcurve" smooth="yes"/>
      <point x="370" y="84"/>
      <point x="465" y="181"/>
      <point x="484" y="272" type="qcurve"/>
      <point x="479" y="272"/>
      <point x="468" y="273"/>
      <point x="458" y="275" type="qcurve" smooth="yes"/>
      <point x="439" y="277"/>
      <point x="421" y="278"/>
      <point x="413" y="278" type="qcurve" smooth="yes"/>
      <point x="380" y="278"/>
      <point x="333" y="255"/>
      <point x="319" y="233" type="qcurve"/>
      <point x="312" y="234" type="line"/>
      <point x="328" y="299"/>
      <point x="431" y="375"/>
      <point x="505" y="375" type="qcurve" smooth="yes"/>
      <point x="513" y="375"/>
      <point x="529" y="374"/>
      <point x="545" y="372" type="qcurve" smooth="yes"/>
      <point x="560" y="371"/>
      <point x="575" y="370"/>
    </contour>
  </outline>
</glyph>
<glyph name="quotesingle" format="1">
  <advance width="268"/>
  <unicode hex="0027"/>
  <outline>
    <contour>
      <point x="177" y="561" type="line"/>
      <point x="102" y="561" type="line"/>
      <point x="163" y="750" type="line"/>
      <point x="268" y="750" type="line"/>
    </contour>
  </outline>
</glyph>
<glyph name="parenleft" format="1">
  <advance width="437"/>
  <unicode hex="0028"/>
  <outline>
    <contour>
      <point x="138" y="100" type="qcurve" smooth="yes"/>
      <point x="138" y="308"/>
      <point x="323" y="682"/>
      <point x="464" y="750" type="qcurve"/>
      <point x="477" y="710" type="line"/>
      <point x="369" y="656"/>
      <point x="211" y="275"/>
      <point x="211" y="73" type="qcurve" smooth="yes"/>
      <point x="211" y="-19"/>
      <point x="248" y="-168"/>
      <point x="284" y="-221" type="qcurve"/>
      <point x="251" y="-250" type="line"/>
      <point x="196" y="-189"/>
      <point x="138" y="-9"/>
    </contour>
  </outline>
</glyph>
<glyph name="parenright" format="1">
  <advance width="413"/>
  <unicode hex="0029"/>
  <outline>
    <contour>
      <point x="310" y="400" type="qcurve" smooth="yes"/>
      <point x="310" y="192"/>
      <point x="125" y="-182"/>
      <point x="-16" y="-250" type="qcurve"/>
      <point x="-29" y="-210" type="line"/>
      <point x="80" y="-156"/>
      <point x="237" y="225"/>
      <point x="237" y="427" type="qcurve" smooth="yes"/>
      <point x="237" y="518"/>
      <point x="200" y="668"/>
      <point x="164" y="721" type="qcurve"/>
      <point x="197" y="750" type="line"/>
      <point x="252" y="689"/>
      <point x="310" y="509"/>
    </contour>
  </outline>
</glyph>
<glyph name="asterisk" format="1">
  <advance width="515"/>
  <unicode hex="002A"/>
  <outline>
    <contour>
      <point x="223" y="617" type="line"/>
      <point x="223" y="752" type="line"/>
      <point x="287" y="752" type="line"/>
      <point x="287" y="617" type="line"/>
      <point x="394" y="679" type="line"/>
      <point x="424" y="627" type="line"/>
      <point x="315" y="564" type="line"/>
      <point x="424" y="501" type="line"/>
      <point x="394" y="449" type="line"/>
      <point x="287" y="511" type="line"/>
      <point x="287" y="376" type="line"/>
      <point x="223" y="376" type="line"/>
      <point x="223" y="511" type="line"/>
      <point x="116" y="449" type="line"/>
      <point x="86" y="501" type="line"/>
      <point x="195" y="564" type="line"/>
      <point x="86" y="627" type="line"/>
      <point x="116" y="679" type="line"/>
    </contour>
  </outline>
</glyph>
<glyph name="plus" format="1">
  <advance width="515"/>
  <unicode hex="002B"/>
  <outline>
    <contour>
      <point x="232" y="439" type="line"/>
      <point x="345" y="439" type="line"/>
      <point x="318" y="317" type="line"/>
      <point x="445" y="317" type="line"/>
      <point x="422" y="205" type="line"/>
      <point x="294" y="205" type="line"/>
      <point x="267" y="82" type="line"/>
      <point x="154" y="82" type="line"/>
      <point x="181" y="205" type="line"/>
      <point x="53" y="205" type="line"/>
      <point x="77" y="317" type="line"/>
      <point x="205" y="317" type="line"/>
    </contour>
  </outline>
</glyph>
<glyph name="comma" format="1">
  <advance width="216"/>
  <unicode hex="002C"/>
  <outline>
    <contour>
      <point x="71" y="2" type="qcurve" smooth="yes"/>
      <point x="47" y="18"/>
      <point x="24" y="54"/>
      <point x="24" y="75" type="qcurve" smooth="yes"/>
      <point x="24" y="108"/>
      <point x="70" y="155"/>
      <point x="103" y="155" type="qcurve" smooth="yes"/>
      <point x="134" y="155"/>
      <point x="171" y="114"/>
      <point x="171" y="79" type="qcurve" smooth="yes"/>
      <point x="171" y="30"/>
      <point x="98" y="-86"/>
      <point x="41" y="-126" type="qcurve"/>
      <point x="36" y="-123"/>
      <point x="32" y="-114"/>
      <point x="32" y="-109" type="qcurve" smooth="yes"/>
      <point x="32" y="-100"/>
      <point x="42" y="-81"/>
      <point x="58" y="-64" type="qcurve" smooth="yes"/>
      <point x="74" y="-47"/>
      <point x="84" y="-28"/>
      <point x="84" y="-18" type="qcurve" smooth="yes"/>
      <point x="84" y="-12"/>
      <point x="77" y="-2"/>
    </contour>
  </outline>
</glyph>
<glyph name="period" format="1">
  <advance width="263"/>
  <unicode hex="002E"/>
  <outline>
    <contour>
      <point x="110" y="-4" type="qcurve" smooth="yes"/>
      <point x="77" y="-4"/>
      <point x="31" y="42"/>
      <point x="31" y="75" type="qcurve" smooth="yes"/>
      <point x="31" y="108"/>
      <point x="77" y="155"/>
      <point x="110" y="155" type="qcurve" smooth="yes"/>
      <point x="143" y="155"/>
      <point x="190" y="108"/>
      <point x="190" y="75" type="qcurve" smooth="yes"/>
      <point x="190" y="42"/>
      <point x="143" y="-4"/>
    </contour>
  </outline>
</glyph>
<glyph name="slash" format="1">
  <advance width="311"/>
  <unicode hex="002F"/>
  <outline>
    <contour>
      <point x="223" y="750" type="line"/>
      <point x="295" y="750" type="line"/>
      <point x="83" y="-250" type="line"/>
      <point x="11" y="-250" type="line"/>
    </contour>
  </outline>
</glyph>
<glyph name="zero" format="1">
  <advance width="546"/>
  <unicode hex="0030"/>
  <outline>
    <contour>
      <point x="30" y="254" type="qcurve" smooth="yes"/>
      <point x="30" y="470"/>
      <point x="223" y="750"/>
      <point x="377" y="750" type="qcurve" smooth="yes"/>
      <point x="467" y="750"/>
      <point x="555" y="621"/>
      <point x="555" y="489" type="qcurve" smooth="yes"/>
      <point x="555" y="414"/>
      <point x="515" y="248"/>
      <point x="480" y="178" type="qcurve" smooth="yes"/>
      <point x="434" y="88"/>
      <point x="309" y="-9"/>
      <point x="237" y="-9" type="qcurve" smooth="yes"/>
      <point x="126" y="-9"/>
      <point x="30" y="106"/>
    </contour>
    <contour>
      <point x="235" y="537" type="qcurve" smooth="yes"/>
      <point x="216" y="490"/>
      <point x="192" y="382"/>
      <point x="188" y="325" type="qcurve" smooth="yes"/>
      <point x="185" y="278"/>
      <point x="183" y="242"/>
      <point x="183" y="226" type="qcurve" smooth="yes"/>
      <point x="183" y="151"/>
      <point x="213" y="75"/>
      <point x="242" y="75" type="qcurve" smooth="yes"/>
      <point x="320" y="75"/>
      <point x="424" y="358"/>
      <point x="424" y="553" type="qcurve" smooth="yes"/>
      <point x="424" y="634"/>
      <point x="398" y="698"/>
      <point x="370" y="698" type="qcurve" smooth="yes"/>
      <point x="339" y="698"/>
      <point x="264" y="609"/>
    </contour>
  </outline>
</glyph>
<glyph name="one" format="1">
  <advance width="317"/>
  <unicode hex="0031"/>
  <outline>
    <contour>
      <point x="324" y="748" type="qcurve"/>
      <point x="165" y="0" type="line"/>
      <point x="21" y="0" type="line"/>
      <point x="153" y="624" type="line"/>
      <point x="58" y="624" type="line"/>
      <point x="70" y="670" type="line"/>
      <point x="137" y="670"/>
      <point x="257" y="708"/>
    </contour>
  </outline>
</glyph>
<glyph name="two" format="1">
  <advance width="492"/>
  <unicode hex="0032"/>
  <outline>
    <contour>
      <point x="106" y="132" type="qcurve"/>
      <point x="111" y="132" type="line"/>
      <point x="126" y="132"/>
      <point x="160" y="129"/>
      <point x="195" y="124" type="qcurve" smooth="yes"/>
      <point x="236" y="118"/>
      <point x="281" y="114"/>
      <point x="302" y="114" type="qcurve" smooth="yes"/>
      <point x="326" y="114"/>
      <point x="362" y="122"/>
      <point x="378" y="132" type="qcurve" smooth="yes"/>
      <point x="383" y="136"/>
      <point x="413" y="161"/>
      <point x="436" y="183" type="qcurve"/>
      <point x="437" y="175"/>
      <point x="437" y="156"/>
      <point x="437" y="139" type="qcurve" smooth="yes"/>
      <point x="437" y="53"/>
      <point x="383" y="-11"/>
      <point x="318" y="-11" type="qcurve" smooth="yes"/>
      <point x="289" y="-11"/>
      <point x="235" y="-4"/>
      <point x="190" y="7" type="qcurve" smooth="yes"/>
      <point x="147" y="18"/>
      <point x="97" y="25"/>
      <point x="70" y="25" type="qcurve" smooth="yes"/>
      <point x="62" y="25"/>
      <point x="38" y="18"/>
      <point x="13" y="6" type="qcurve" smooth="yes"/>
      <point x="3" y="2"/>
      <point x="-6" y="-2"/>
      <point x="-9" y="-3" type="qcurve"/>
      <point x="-10" y="3"/>
      <point x="-11" y="16"/>
      <point x="-11" y="30" type="qcurve" smooth="yes"/>
      <point x="-11" y="85"/>
      <point x="47" y="194"/>
      <point x="142" y="292" type="qcurve" smooth="yes"/>
      <point x="196" y="348"/>
      <point x="246" y="407"/>
      <point x="263" y="435" type="qcurve" smooth="yes"/>
      <point x="291" y="479"/>
      <point x="318" y="567"/>
      <point x="318" y="613" type="qcurve" smooth="yes"/>
      <point x="318" y="647"/>
      <point x="281" y="695"/>
      <point x="257" y="695" type="qcurve" smooth="yes"/>
      <point x="214" y="695"/>
      <point x="176" y="659"/>
      <point x="176" y="614" type="qcurve" smooth="yes"/>
      <point x="176" y="590"/>
      <point x="197" y="551"/>
      <point x="214" y="546" type="qcurve"/>
      <point x="195" y="529"/>
      <point x="157" y="512"/>
      <point x="138" y="512" type="qcurve" smooth="yes"/>
      <point x="105" y="512"/>
      <point x="66" y="561"/>
      <point x="66" y="602" type="qcurve" smooth="yes"/>
      <point x="66" y="667"/>
      <point x="176" y="749"/>
      <point x="272" y="749" type="qcurve" smooth="yes"/>
      <point x="367" y="749"/>
      <point x="462" y="668"/>
      <point x="462" y="588" type="qcurve" smooth="yes"/>
      <point x="462" y="540"/>
      <point x="427" y="449"/>
      <point x="392" y="405" type="qcurve" smooth="yes"/>
      <point x="370" y="378"/>
      <point x="310" y="321"/>
      <point x="246" y="269" type="qcurve" smooth="yes"/>
      <point x="177" y="214"/>
      <point x="122" y="157"/>
    </contour>
  </outline>
</glyph>
<glyph name="three" format="1">
  <advance width="514"/>
  <unicode hex="0033"/>
  <outline>
    <contour>
      <point x="127" y="308" type="qcurve" smooth="yes"/>
      <point x="160" y="308"/>
      <point x="200" y="282"/>
      <point x="205" y="257" type="qcurve"/>
      <point x="161" y="254"/>
      <point x="117" y="199"/>
      <point x="117" y="149" type="qcurve" smooth="yes"/>
      <point x="117" y="104"/>
      <point x="154" y="60"/>
      <point x="193" y="60" type="qcurve" smooth="yes"/>
      <point x="253" y="60"/>
      <point x="332" y="158"/>
      <point x="332" y="229" type="qcurve" smooth="yes"/>
      <point x="332" y="294"/>
      <point x="262" y="396"/>
      <point x="199" y="418" type="qcurve"/>
      <point x="274" y="439"/>
      <point x="370" y="552"/>
      <point x="370" y="613" type="qcurve" smooth="yes"/>
      <point x="370" y="651"/>
      <point x="329" y="695"/>
      <point x="294" y="695" type="qcurve" smooth="yes"/>
      <point x="258" y="695"/>
      <point x="215" y="652"/>
      <point x="215" y="617" type="qcurve" smooth="yes"/>
      <point x="215" y="591"/>
      <point x="235" y="551"/>
      <point x="253" y="546" type="qcurve"/>
      <point x="235" y="529"/>
      <point x="196" y="512"/>
      <point x="177" y="512" type="qcurve" smooth="yes"/>
      <point x="145" y="512"/>
      <point x="105" y="559"/>
      <point x="105" y="597" type="qcurve" smooth="yes"/>
      <point x="105" y="663"/>
      <point x="223" y="749"/>
      <point x="312" y="749" type="qcurve" smooth="yes"/>
      <point x="397" y="749"/>
      <point x="498" y="668"/>
      <point x="498" y="603" type="qcurve" smooth="yes"/>
      <point x="498" y="549"/>
      <point x="425" y="449"/>
      <point x="361" y="417" type="qcurve"/>
      <point x="422" y="397"/>
      <point x="487" y="311"/>
      <point x="487" y="252" type="qcurve" smooth="yes"/>
      <point x="487" y="202"/>
      <point x="440" y="104"/>
      <point x="398" y="67" type="qcurve" smooth="yes"/>
      <point x="359" y="32"/>
      <point x="260" y="-5"/>
      <point x="205" y="-5" type="qcurve" smooth="yes"/>
      <point x="112" y="-5"/>
      <point x="6" y="82"/>
      <point x="6" y="165" type="qcurve" smooth="yes"/>
      <point x="6" y="231"/>
      <point x="70" y="308"/>
    </contour>
  </outline>
</glyph>
<glyph name="four" format="1">
  <advance width="476"/>
  <unicode hex="0034"/>
  <outline>
    <contour>
      <point x="193" y="0" type="line"/>
      <point x="252" y="275" type="line"/>
      <point x="8" y="275" type="line"/>
      <point x="14" y="294"/>
      <point x="35" y="343"/>
      <point x="61" y="397" type="qcurve" smooth="yes"/>
      <point x="117" y="515"/>
      <point x="154" y="639"/>
      <point x="154" y="690" type="qcurve" smooth="yes"/>
      <point x="154" y="706"/>
      <point x="151" y="736"/>
      <point x="147" y="750" type="qcurve"/>
      <point x="196" y="750"/>
      <point x="258" y="698"/>
      <point x="258" y="655" type="qcurve" smooth="yes"/>
      <point x="258" y="616"/>
      <point x="233" y="538"/>
      <point x="206" y="493" type="qcurve" smooth="yes"/>
      <point x="193" y="472"/>
      <point x="127" y="376"/>
      <point x="112" y="349" type="qcurve"/>
      <point x="268" y="349" type="line"/>
      <point x="349" y="730" type="line"/>
      <point x="497" y="750" type="line"/>
      <point x="411" y="349" type="line"/>
      <point x="475" y="349" type="line"/>
      <point x="455" y="275" type="line"/>
      <point x="395" y="275" type="line"/>
      <point x="337" y="0" type="line"/>
    </contour>
  </outline>
</glyph>
<glyph name="five" format="1">
  <advance width="517"/>
  <unicode hex="0035"/>
  <outline>
    <contour>
      <point x="338" y="717" type="qcurve" smooth="yes"/>
      <point x="380" y="717"/>
      <point x="458" y="732"/>
      <point x="500" y="749" type="qcurve"/>
      <point x="501" y="735"/>
      <point x="502" y="722"/>
      <point x="502" y="716" type="qcurve" smooth="yes"/>
      <point x="502" y="660"/>
      <point x="443" y="600"/>
      <point x="387" y="600" type="qcurve" smooth="yes"/>
      <point x="369" y="600"/>
      <point x="321" y="606"/>
      <point x="273" y="616" type="qcurve" smooth="yes"/>
      <point x="249" y="620"/>
      <point x="228" y="624"/>
      <point x="220" y="625" type="qcurve"/>
      <point x="180" y="444" type="line"/>
      <point x="212" y="459"/>
      <point x="275" y="475"/>
      <point x="305" y="475" type="qcurve" smooth="yes"/>
      <point x="387" y="475"/>
      <point x="481" y="362"/>
      <point x="481" y="268" type="qcurve" smooth="yes"/>
      <point x="481" y="146"/>
      <point x="326" y="-5"/>
      <point x="191" y="-5" type="qcurve" smooth="yes"/>
      <point x="102" y="-5"/>
      <point x="15" y="67"/>
      <point x="15" y="139" type="qcurve" smooth="yes"/>
      <point x="15" y="205"/>
      <point x="87" y="281"/>
      <point x="145" y="281" type="qcurve" smooth="yes"/>
      <point x="175" y="281"/>
      <point x="211" y="255"/>
      <point x="216" y="230" type="qcurve"/>
      <point x="173" y="225"/>
      <point x="126" y="175"/>
      <point x="126" y="134" type="qcurve" smooth="yes"/>
      <point x="126" y="99"/>
      <point x="169" y="62"/>
      <point x="208" y="62" type="qcurve" smooth="yes"/>
      <point x="264" y="62"/>
      <point x="335" y="170"/>
      <point x="335" y="246" type="qcurve" smooth="yes"/>
      <point x="335" y="315"/>
      <point x="277" y="391"/>
      <point x="225" y="391" type="qcurve" smooth="yes"/>
      <point x="195" y="391"/>
      <point x="122" y="364"/>
      <point x="76" y="335" type="qcurve"/>
      <point x="158" y="734" type="line"/>
      <point x="158" y="734"/>
      <point x="298" y="717"/>
    </contour>
  </outline>
</glyph>
<glyph name="six" format="1">
  <advance width="497"/>
  <unicode hex="0036"/>
  <outline>
    <contour>
      <point x="313" y="381" type="qcurve" smooth="yes"/>
      <point x="287" y="381"/>
      <point x="244" y="343"/>
      <point x="225" y="305" type="qcurve"/>
      <point x="215" y="319"/>
      <point x="205" y="349"/>
      <point x="205" y="363" type="qcurve" smooth="yes"/>
      <point x="205" y="405"/>
      <point x="287" y="463"/>
      <point x="346" y="463" type="qcurve" smooth="yes"/>
      <point x="408" y="463"/>
      <point x="481" y="369"/>
      <point x="481" y="298" type="qcurve" smooth="yes"/>
      <point x="481" y="171"/>
      <point x="322" y="-5"/>
      <point x="211" y="-5" type="qcurve" smooth="yes"/>
      <point x="112" y="-5"/>
      <point x="16" y="90"/>
      <point x="16" y="193" type="qcurve" smooth="yes"/>
      <point x="16" y="208"/>
      <point x="16" y="223"/>
      <point x="17" y="230" type="qcurve" smooth="yes"/>
      <point x="33" y="476"/>
      <point x="220" y="750"/>
      <point x="374" y="750" type="qcurve" smooth="yes"/>
      <point x="425" y="750"/>
      <point x="489" y="701"/>
      <point x="489" y="667" type="qcurve" smooth="yes"/>
      <point x="489" y="639"/>
      <point x="441" y="602"/>
      <point x="400" y="600" type="qcurve"/>
      <point x="408" y="607"/>
      <point x="416" y="626"/>
      <point x="416" y="636" type="qcurve" smooth="yes"/>
      <point x="416" y="658"/>
      <point x="387" y="690"/>
      <point x="366" y="690" type="qcurve" smooth="yes"/>
      <point x="322" y="690"/>
      <point x="235" y="596"/>
      <point x="205" y="509" type="qcurve" smooth="yes"/>
      <point x="187" y="459"/>
      <point x="162" y="333"/>
      <point x="154" y="258" type="qcurve" smooth="yes"/>
      <point x="151" y="231"/>
      <point x="149" y="196"/>
      <point x="149" y="182" type="qcurve" smooth="yes"/>
      <point x="149" y="123"/>
      <point x="182" y="73"/>
      <point x="229" y="73" type="qcurve" smooth="yes"/>
      <point x="278" y="73"/>
      <point x="366" y="206"/>
      <point x="366" y="284" type="qcurve" smooth="yes"/>
      <point x="366" y="329"/>
      <point x="339" y="381"/>
    </contour>
  </outline>
</glyph>
<glyph name="seven" format="1">
  <advance width="464"/>
  <unicode hex="0037"/>
  <outline>
    <contour>
      <point x="184" y="750" type="qcurve"/>
      <point x="512" y="750" type="line"/>
      <point x="447" y="654"/>
      <point x="228" y="305"/>
      <point x="211" y="265" type="qcurve" smooth="yes"/>
      <point x="195" y="229"/>
      <point x="179" y="164"/>
      <point x="179" y="136" type="qcurve" smooth="yes"/>
      <point x="179" y="105"/>
      <point x="201" y="61"/>
      <point x="228" y="39" type="qcurve"/>
      <point x="221" y="19"/>
      <point x="176" y="0"/>
      <point x="136" y="0" type="qcurve" smooth="yes"/>
      <point x="81" y="0"/>
      <point x="33" y="60"/>
      <point x="33" y="125" type="qcurve" smooth="yes"/>
      <point x="33" y="187"/>
      <point x="90" y="327"/>
      <point x="150" y="412" type="qcurve" smooth="yes"/>
      <point x="181" y="456"/>
      <point x="266" y="562"/>
      <point x="348" y="657" type="qcurve"/>
      <point x="327" y="660"/>
      <point x="283" y="663"/>
      <point x="263" y="663" type="qcurve" smooth="yes"/>
      <point x="193" y="663"/>
      <point x="88" y="627"/>
      <point x="56" y="592" type="qcurve"/>
      <point x="52" y="609"/>
      <point x="48" y="638"/>
      <point x="48" y="650" type="qcurve" smooth="yes"/>
      <point x="48" y="702"/>
      <point x="114" y="750"/>
    </contour>
  </outline>
</glyph>
<glyph name="eight" format="1">
  <advance width="499"/>
  <unicode hex="0038"/>
  <outline>
    <contour>
      <point x="137" y="163" type="qcurve" smooth="yes"/>
      <point x="137" y="119"/>
      <point x="175" y="67"/>
      <point x="208" y="67" type="qcurve" smooth="yes"/>
      <point x="256" y="67"/>
      <point x="323" y="167"/>
      <point x="323" y="235" type="qcurve" smooth="yes"/>
      <point x="323" y="280"/>
      <point x="290" y="357"/>
      <point x="260" y="383" type="qcurve"/>
      <point x="204" y="346"/>
      <point x="137" y="224"/>
    </contour>
    <contour>
      <point x="394" y="74" type="qcurve" smooth="yes"/>
      <point x="354" y="36"/>
      <point x="256" y="-5"/>
      <point x="203" y="-5" type="qcurve" smooth="yes"/>
      <point x="109" y="-5"/>
      <point x="-8" y="110"/>
      <point x="-8" y="196" type="qcurve" smooth="yes"/>
      <point x="-8" y="273"/>
      <point x="89" y="394"/>
      <point x="172" y="417" type="qcurve"/>
      <point x="131" y="441"/>
      <point x="87" y="511"/>
      <point x="87" y="553" type="qcurve" smooth="yes"/>
      <point x="87" y="631"/>
      <point x="217" y="749"/>
      <point x="310" y="749" type="qcurve" smooth="yes"/>
      <point x="397" y="749"/>
      <point x="499" y="669"/>
      <point x="499" y="604" type="qcurve" smooth="yes"/>
      <point x="499" y="550"/>
      <point x="424" y="448"/>
      <point x="359" y="417" type="qcurve"/>
      <point x="417" y="399"/>
      <point x="480" y="318"/>
      <point x="480" y="261" type="qcurve" smooth="yes"/>
      <point x="480" y="213"/>
      <point x="434" y="113"/>
    </contour>
    <contour>
      <point x="218" y="570" type="qcurve" smooth="yes"/>
      <point x="218" y="535"/>
      <point x="246" y="472"/>
      <point x="271" y="451" type="qcurve"/>
      <point x="316" y="481"/>
      <point x="372" y="582"/>
      <point x="372" y="631" type="qcurve" smooth="yes"/>
      <point x="372" y="663"/>
      <point x="346" y="701"/>
      <point x="323" y="701" type="qcurve" smooth="yes"/>
      <point x="277" y="701"/>
      <point x="218" y="625"/>
    </contour>
  </outline>
</glyph>
<glyph name="nine" format="1">
  <advance width="489"/>
  <unicode hex="0039"/>
  <outline>
    <contour>
      <point x="204" y="364" type="qcurve" smooth="yes"/>
      <point x="236" y="364"/>
      <point x="276" y="393"/>
      <point x="288" y="424" type="qcurve"/>
      <point x="298" y="411"/>
      <point x="309" y="386"/>
      <point x="309" y="374" type="qcurve" smooth="yes"/>
      <point x="309" y="336"/>
      <point x="230" y="282"/>
      <point x="175" y="282" type="qcurve" smooth="yes"/>
      <point x="111" y="282"/>
      <point x="34" y="382"/>
      <point x="34" y="457" type="qcurve" smooth="yes"/>
      <point x="34" y="581"/>
      <point x="184" y="750"/>
      <point x="293" y="750" type="qcurve" smooth="yes"/>
      <point x="390" y="750"/>
      <point x="486" y="635"/>
      <point x="486" y="515" type="qcurve" smooth="yes"/>
      <point x="486" y="282"/>
      <point x="300" y="-5"/>
      <point x="147" y="-5" type="qcurve" smooth="yes"/>
      <point x="96" y="-5"/>
      <point x="29" y="51"/>
      <point x="29" y="90" type="qcurve" smooth="yes"/>
      <point x="29" y="128"/>
      <point x="71" y="164"/>
      <point x="115" y="164" type="qcurve"/>
      <point x="108" y="157"/>
      <point x="101" y="140"/>
      <point x="101" y="130" type="qcurve" smooth="yes"/>
      <point x="101" y="108"/>
      <point x="132" y="74"/>
      <point x="154" y="74" type="qcurve" smooth="yes"/>
      <point x="237" y="74"/>
      <point x="346" y="287"/>
      <point x="361" y="487" type="qcurve" smooth="yes"/>
      <point x="362" y="514"/>
      <point x="363" y="532"/>
      <point x="363" y="539" type="qcurve" smooth="yes"/>
      <point x="363" y="617"/>
      <point x="325" y="684"/>
      <point x="275" y="684" type="qcurve" smooth="yes"/>
      <point x="227" y="684"/>
      <point x="148" y="547"/>
      <point x="148" y="467" type="qcurve" smooth="yes"/>
      <point x="148" y="419"/>
      <point x="177" y="364"/>
    </contour>
  </outline>
</glyph>
<glyph name="colon" format="1">
  <advance width="267"/>
  <unicode hex="003A"/>
  <outline>
    <contour>
      <point x="120" y="56" type="qcurve" smooth="yes"/>
      <point x="87" y="56"/>
      <point x="41" y="102"/>
      <point x="41" y="135" type="qcurve" smooth="yes"/>
      <point x="41" y="168"/>
      <point x="87" y="215"/>
      <point x="120" y="215" type="qcurve" smooth="yes"/>
      <point x="153" y="215"/>
      <point x="200" y="168"/>
      <point x="200" y="135" type="qcurve" smooth="yes"/>
      <point x="200" y="102"/>
      <point x="153" y="56"/>
    </contour>
    <contour>
      <point x="170" y="296" type="qcurve" smooth="yes"/>
      <point x="137" y="296"/>
      <point x="91" y="342"/>
      <point x="91" y="375" type="qcurve" smooth="yes"/>
      <point x="91" y="408"/>
      <point x="137" y="455"/>
      <point x="170" y="455" type="qcurve" smooth="yes"/>
      <point x="203" y="455"/>
      <point x="250" y="408"/>
      <point x="250" y="375" type="qcurve" smooth="yes"/>
      <point x="250" y="342"/>
      <point x="203" y="296"/>
    </contour>
  </outline>
</glyph>
<glyph name="semicolon" format="1">
  <advance width="276"/>
  <unicode hex="003B"/>
  <outline>
    <contour>
      <point x="173" y="252" type="qcurve" smooth="yes"/>
      <point x="140" y="252"/>
      <point x="94" y="298"/>
      <point x="94" y="331" type="qcurve" smooth="yes"/>
      <point x="94" y="364"/>
      <point x="140" y="411"/>
      <point x="173" y="411" type="qcurve" smooth="yes"/>
      <point x="206" y="411"/>
      <point x="253" y="364"/>
      <point x="253" y="331" type="qcurve" smooth="yes"/>
      <point x="253" y="298"/>
      <point x="206" y="252"/>
    </contour>
    <contour>
      <point x="93" y="18" type="qcurve" smooth="yes"/>
      <point x="69" y="34"/>
      <point x="46" y="70"/>
      <point x="46" y="91" type="qcurve" smooth="yes"/>
      <point x="46" y="124"/>
      <point x="92" y="171"/>
      <point x="125" y="171" type="qcurve" smooth="yes"/>
      <point x="156" y="171"/>
      <point x="193" y="130"/>
      <point x="193" y="95" type="qcurve" smooth="yes"/>
      <point x="193" y="46"/>
      <point x="120" y="-70"/>
      <point x="63" y="-110" type="qcurve"/>
      <point x="58" y="-107"/>
      <point x="54" y="-98"/>
      <point x="54" y="-93" type="qcurve" smooth="yes"/>
      <point x="54" y="-84"/>
      <point x="64" y="-65"/>
      <point x="80" y="-48" type="qcurve" smooth="yes"/>
      <point x="96" y="-31"/>
      <point x="106" y="-12"/>
      <point x="106" y="-2" type="qcurve" smooth="yes"/>
      <point x="106" y="4"/>
      <point x="99" y="14"/>
    </contour>
  </outline>
</glyph>
<glyph name="less" format="1">
  <advance width="359"/>
  <unicode hex="003C"/>
  <outline>
    <contour>
      <point x="29" y="279" type="line"/>
      <point x="336" y="429" type="line"/>
      <point x="326" y="374" type="line"/>
      <point x="85" y="254" type="line"/>
      <point x="279" y="158" type="line"/>
      <point x="267" y="101" type="line"/>
      <point x="20" y="238" type="line"/>
    </contour>
  </outline>
</glyph>
<glyph name="equal" format="1">
  <advance width="515"/>
  <unicode hex="003D"/>
  <outline>
    <contour>
      <point x="100" y="428" type="line"/>
      <point x="468" y="428" type="line"/>
      <point x="445" y="316" type="line"/>
      <point x="76" y="316" type="line"/>
    </contour>
    <contour>
      <point x="56" y="213" type="line"/>
      <point x="424" y="213" type="line"/>
      <point x="401" y="101" type="line"/>
      <point x="32" y="101" type="line"/>
    </contour>
  </outline>
</glyph>
<glyph name="greater" format="1">
  <advance width="344"/>
  <unicode hex="003E"/>
  <outline>
    <contour>
      <point x="269" y="254" type="line"/>
      <point x="75" y="374" type="line"/>
      <point x="84" y="429" type="line"/>
      <point x="330" y="279" type="line"/>
      <point x="319" y="225" type="line"/>
      <point x="15" y="101" type="line"/>
      <point x="29" y="158" type="line"/>
    </contour>
  </outline>
</glyph>
<glyph name="question" format="1">
  <advance width="441"/>
  <unicode hex="003F"/>
  <outline>
    <contour>
      <point x="265" y="700" type="qcurve" smooth="yes"/>
      <point x="348" y="700"/>
      <point x="425" y="645"/>
      <point x="425" y="579" type="qcurve" smooth="yes"/>
      <point x="425" y="521"/>
      <point x="378" y="432"/>
      <point x="301" y="371" type="qcurve" smooth="yes"/>
      <point x="242" y="325"/>
      <point x="196" y="266"/>
      <point x="185" y="232" type="qcurve"/>
      <point x="119" y="232" type="line"/>
      <point x="119" y="269"/>
      <point x="153" y="338"/>
      <point x="207" y="398" type="qcurve" smooth="yes"/>
      <point x="265" y="460"/>
      <point x="301" y="536"/>
      <point x="301" y="577" type="qcurve" smooth="yes"/>
      <point x="301" y="610"/>
      <point x="271" y="646"/>
      <point x="246" y="646" type="qcurve" smooth="yes"/>
      <point x="214" y="646"/>
      <point x="166" y="598"/>
      <point x="166" y="563" type="qcurve" smooth="yes"/>
      <point x="166" y="540"/>
      <point x="187" y="502"/>
      <point x="204" y="497" type="qcurve"/>
      <point x="192" y="477"/>
      <point x="153" y="455"/>
      <point x="131" y="455" type="qcurve" smooth="yes"/>
      <point x="98" y="455"/>
      <point x="55" y="501"/>
      <point x="55" y="539" type="qcurve" smooth="yes"/>
      <point x="55" y="606"/>
      <point x="170" y="700"/>
    </contour>
    <contour>
      <point x="128" y="159" type="qcurve" smooth="yes"/>
      <point x="161" y="159"/>
      <point x="207" y="113"/>
      <point x="207" y="80" type="qcurve" smooth="yes"/>
      <point x="207" y="47"/>
      <point x="161" y="0"/>
      <point x="128" y="0" type="qcurve" smooth="yes"/>
      <point x="95" y="0"/>
      <point x="48" y="47"/>
      <point x="48" y="80" type="qcurve" smooth="yes"/>
      <point x="48" y="113"/>
      <point x="95" y="159"/>
    </contour>
  </outline>
</glyph>
<glyph name="at" format="1">
  <advance width="562"/>
  <unicode hex="0040"/>
  <outline>
    <contour>
      <point x="397" y="73" type="qcurve" smooth="yes"/>
      <point x="397" y="24"/>
      <point x="285" y="-38"/>
      <point x="195" y="-38" type="qcurve" smooth="yes"/>
      <point x="89" y="-38"/>
      <point x="-8" y="60"/>
      <point x="-8" y="164" type="qcurve" smooth="yes"/>
      <point x="-8" y="239"/>
      <point x="40" y="378"/>
      <point x="84" y="432" type="qcurve" smooth="yes"/>
      <point x="133" y="492"/>
      <point x="262" y="557"/>
      <point x="333" y="557" type="qcurve" smooth="yes"/>
      <point x="410" y="557"/>
      <point x="491" y="477"/>
      <point x="491" y="400" type="qcurve" smooth="yes"/>
      <point x="491" y="302"/>
      <point x="384" y="136"/>
      <point x="321" y="136" type="qcurve" smooth="yes"/>
      <point x="305" y="136"/>
      <point x="284" y="147"/>
      <point x="277" y="159" type="qcurve"/>
      <point x="263" y="140"/>
      <point x="233" y="120"/>
      <point x="218" y="120" type="qcurve" smooth="yes"/>
      <point x="186" y="120"/>
      <point x="154" y="155"/>
      <point x="154" y="189" type="qcurve" smooth="yes"/>
      <point x="154" y="217"/>
      <point x="172" y="297"/>
      <point x="187" y="332" type="qcurve" smooth="yes"/>
      <point x="207" y="380"/>
      <point x="258" y="432"/>
      <point x="286" y="432" type="qcurve" smooth="yes"/>
      <point x="298" y="432"/>
      <point x="317" y="422"/>
      <point x="324" y="414" type="qcurve"/>
      <point x="328" y="430" type="line"/>
      <point x="383" y="424" type="line"/>
      <point x="338" y="232" type="line" smooth="yes"/>
      <point x="336" y="222"/>
      <point x="334" y="213"/>
      <point x="334" y="209" type="qcurve" smooth="yes"/>
      <point x="334" y="200"/>
      <point x="341" y="190"/>
      <point x="347" y="190" type="qcurve" smooth="yes"/>
      <point x="373" y="190"/>
      <point x="424" y="357"/>
      <point x="424" y="414" type="qcurve" smooth="yes"/>
      <point x="424" y="453"/>
      <point x="379" y="493"/>
      <point x="336" y="493" type="qcurve" smooth="yes"/>
      <point x="236" y="493"/>
      <point x="102" y="300"/>
      <point x="102" y="170" type="qcurve" smooth="yes"/>
      <point x="102" y="103"/>
      <point x="157" y="52"/>
      <point x="224" y="52" type="qcurve" smooth="yes"/>
      <point x="277" y="52"/>
      <point x="348" y="83"/>
      <point x="374" y="118" type="qcurve"/>
      <point x="385" y="113"/>
      <point x="397" y="89"/>
    </contour>
    <contour>
      <point x="270" y="195" type="qcurve"/>
      <point x="270" y="200"/>
      <point x="272" y="211"/>
      <point x="273" y="216" type="qcurve"/>
      <point x="316" y="382" type="line"/>
      <point x="313" y="386"/>
      <point x="303" y="390"/>
      <point x="298" y="390" type="qcurve" smooth="yes"/>
      <point x="264" y="390"/>
      <point x="219" y="271"/>
      <point x="219" y="212" type="qcurve" smooth="yes"/>
      <point x="219" y="197"/>
      <point x="228" y="181"/>
      <point x="237" y="181" type="qcurve" smooth="yes"/>
      <point x="243" y="181"/>
      <point x="260" y="188"/>
    </contour>
  </outline>
</glyph>
<glyph name="A" format="1">
  <advance width="668"/>
  <unicode hex="0041"/>
  <outline>
    <contour>
      <point x="692" y="736" type="qcurve"/>
      <point x="535" y="0" type="line"/>
      <point x="391" y="0" type="line"/>
      <point x="468" y="363" type="line"/>
      <point x="433" y="379"/>
      <point x="371" y="396"/>
      <point x="334" y="399" type="qcurve"/>
      <point x="277" y="275"/>
      <point x="204" y="19"/>
      <point x="204" y="-58" type="qcurve" smooth="yes"/>
      <point x="204" y="-76"/>
      <point x="211" y="-103"/>
      <point x="218" y="-114" type="qcurve"/>
      <point x="142" y="-114"/>
      <point x="84" y="-62"/>
      <point x="84" y="-8" type="qcurve" smooth="yes"/>
      <point x="84" y="59"/>
      <point x="165" y="283"/>
      <point x="231" y="399" type="qcurve"/>
      <point x="180" y="396"/>
      <point x="123" y="370"/>
      <point x="114" y="347" type="qcurve"/>
      <point x="118" y="347"/>
      <point x="127" y="326"/>
      <point x="127" y="316" type="qcurve" smooth="yes"/>
      <point x="127" y="299"/>
      <point x="95" y="277"/>
      <point x="71" y="277" type="qcurve" smooth="yes"/>
      <point x="43" y="277"/>
      <point x="9" y="308"/>
      <point x="9" y="335" type="qcurve" smooth="yes"/>
      <point x="9" y="387"/>
      <point x="126" y="458"/>
      <point x="213" y="458" type="qcurve" smooth="yes"/>
      <point x="223" y="458"/>
      <point x="249" y="457"/>
      <point x="265" y="455" type="qcurve"/>
      <point x="353" y="594"/>
      <point x="535" y="750"/>
      <point x="613" y="750" type="qcurve" smooth="yes"/>
      <point x="634" y="750"/>
      <point x="676" y="743"/>
    </contour>
    <contour>
      <point x="355" y="442" type="qcurve"/>
      <point x="391" y="435"/>
      <point x="452" y="417"/>
      <point x="477" y="407" type="qcurve"/>
      <point x="535" y="679" type="line"/>
      <point x="494" y="657"/>
      <point x="402" y="536"/>
    </contour>
  </outline>
</glyph>
<glyph name="B" format="1">
  <advance width="635"/>
  <unicode hex="0042"/>
  <outline>
    <contour>
      <point x="94" y="0" type="line"/>
      <point x="230" y="636" type="line"/>
      <point x="378" y="656" type="line"/>
      <point x="331" y="434" type="line"/>
      <point x="337" y="434" type="line" smooth="yes"/>
      <point x="393" y="434"/>
      <point x="481" y="536"/>
      <point x="481" y="596" type="qcurve" smooth="yes"/>
      <point x="481" y="646"/>
      <point x="412" y="704"/>
      <point x="349" y="704" type="qcurve" smooth="yes"/>
      <point x="244" y="704"/>
      <point x="99" y="570"/>
      <point x="99" y="461" type="qcurve" smooth="yes"/>
      <point x="99" y="442"/>
      <point x="104" y="414"/>
      <point x="110" y="401" type="qcurve" smooth="yes"/>
      <point x="112" y="397"/>
      <point x="113" y="394"/>
      <point x="113" y="393" type="qcurve"/>
      <point x="59" y="393"/>
      <point x="6" y="439"/>
      <point x="6" y="485" type="qcurve" smooth="yes"/>
      <point x="6" y="539"/>
      <point x="75" y="643"/>
      <point x="136" y="682" type="qcurve" smooth="yes"/>
      <point x="186" y="715"/>
      <point x="307" y="750"/>
      <point x="369" y="750" type="qcurve" smooth="yes"/>
      <point x="467" y="750"/>
      <point x="582" y="662"/>
      <point x="582" y="591" type="qcurve" smooth="yes"/>
      <point x="582" y="544"/>
      <point x="528" y="458"/>
      <point x="482" y="432" type="qcurve"/>
      <point x="539" y="421"/>
      <point x="600" y="336"/>
      <point x="600" y="271" type="qcurve" smooth="yes"/>
      <point x="600" y="224"/>
      <point x="572" y="120"/>
      <point x="547" y="80" type="qcurve" smooth="yes"/>
      <point x="517" y="32"/>
      <point x="433" y="-17"/>
      <point x="381" y="-17" type="qcurve" smooth="yes"/>
      <point x="334" y="-17"/>
      <point x="282" y="21"/>
      <point x="282" y="57" type="qcurve" smooth="yes"/>
      <point x="282" y="69"/>
      <point x="288" y="98"/>
      <point x="295" y="115" type="qcurve"/>
      <point x="314" y="96"/>
      <point x="345" y="79"/>
      <point x="362" y="79" type="qcurve" smooth="yes"/>
      <point x="407" y="79"/>
      <point x="461" y="183"/>
      <point x="461" y="259" type="qcurve" smooth="yes"/>
      <point x="461" y="322"/>
      <point x="413" y="386"/>
      <point x="366" y="386" type="qcurve" smooth="yes"/>
      <point x="359" y="386"/>
      <point x="332" y="384"/>
      <point x="320" y="383" type="qcurve"/>
      <point x="238" y="0" type="line"/>
    </contour>
  </outline>
</glyph>
<glyph name="D" format="1">
  <advance width="663"/>
  <unicode hex="0044"/>
  <outline>
    <contour>
      <point x="94" y="0" type="line"/>
      <point x="230" y="636" type="line"/>
      <point x="378" y="656" type="line"/>
      <point x="258" y="95" type="line"/>
      <point x="272" y="85"/>
      <point x="300" y="75"/>
      <point x="315" y="75" type="qcurve" smooth="yes"/>
      <point x="396" y="75"/>
      <point x="507" y="342"/>
      <point x="507" y="515" type="qcurve" smooth="yes"/>
      <point x="507" y="609"/>
      <point x="433" y="704"/>
      <point x="361" y="704" type="qcurve" smooth="yes"/>
      <point x="244" y="704"/>
      <point x="99" y="571"/>
      <point x="99" y="461" type="qcurve" smooth="yes"/>
      <point x="99" y="442"/>
      <point x="104" y="414"/>
      <point x="110" y="401" type="qcurve" smooth="yes"/>
      <point x="112" y="397"/>
      <point x="113" y="394"/>
      <point x="113" y="393" type="qcurve"/>
      <point x="59" y="393"/>
      <point x="6" y="439"/>
      <point x="6" y="486" type="qcurve" smooth="yes"/>
      <point x="6" y="541"/>
      <point x="77" y="646"/>
      <point x="139" y="685" type="qcurve" smooth="yes"/>
      <point x="190" y="716"/>
      <point x="313" y="750"/>
      <point x="378" y="750" type="qcurve" smooth="yes"/>
      <point x="506" y="750"/>
      <point x="645" y="597"/>
      <point x="645" y="462" type="qcurve" smooth="yes"/>
      <point x="645" y="389"/>
      <point x="611" y="239"/>
      <point x="580" y="174" type="qcurve" smooth="yes"/>
      <point x="539" y="86"/>
      <point x="427" y="-13"/>
      <point x="368" y="-13" type="qcurve" smooth="yes"/>
      <point x="338" y="-13"/>
      <point x="277" y="14"/>
      <point x="246" y="40" type="qcurve"/>
      <point x="238" y="0" type="line"/>
    </contour>
  </outline>
</glyph>
<glyph name="E" format="1">
  <advance width="459"/>
  <unicode hex="0045"/>
  <outline>
    <contour>
      <point x="276" y="78" type="qcurve" smooth="yes"/>
      <point x="329" y="78"/>
      <point x="437" y="136"/>
      <point x="461" y="180" type="qcurve"/>
      <point x="484" y="170" type="line"/>
      <point x="447" y="85"/>
      <point x="284" y="-18"/>
      <point x="191" y="-18" type="qcurve" smooth="yes"/>
      <point x="105" y="-18"/>
      <point x="7" y="78"/>
      <point x="7" y="158" type="qcurve" smooth="yes"/>
      <point x="7" y="245"/>
      <point x="113" y="398"/>
      <point x="192" y="417" type="qcurve"/>
      <point x="162" y="438"/>
      <point x="131" y="500"/>
      <point x="131" y="537" type="qcurve" smooth="yes"/>
      <point x="131" y="621"/>
      <point x="260" y="752"/>
      <point x="350" y="752" type="qcurve" smooth="yes"/>
      <point x="414" y="752"/>
      <point x="493" y="684"/>
      <point x="493" y="627" type="qcurve" smooth="yes"/>
      <point x="493" y="583"/>
      <point x="450" y="523"/>
      <point x="419" y="523" type="qcurve" smooth="yes"/>
      <point x="405" y="523"/>
      <point x="382" y="537"/>
      <point x="372" y="550" type="qcurve"/>
      <point x="390" y="556"/>
      <point x="416" y="609"/>
      <point x="416" y="637" type="qcurve" smooth="yes"/>
      <point x="416" y="663"/>
      <point x="386" y="693"/>
      <point x="361" y="693" type="qcurve" smooth="yes"/>
      <point x="319" y="693"/>
      <point x="259" y="608"/>
      <point x="259" y="552" type="qcurve" smooth="yes"/>
      <point x="259" y="502"/>
      <point x="312" y="431"/>
      <point x="360" y="418" type="qcurve"/>
      <point x="286" y="401"/>
      <point x="181" y="256"/>
      <point x="181" y="179" type="qcurve" smooth="yes"/>
      <point x="181" y="131"/>
      <point x="230" y="78"/>
    </contour>
  </outline>
</glyph>
<glyph name="F" format="1">
  <advance width="459"/>
  <unicode hex="0046"/>
  <outline>
    <contour>
      <point x="371" y="649" type="qcurve"/>
      <point x="329" y="450" type="line"/>
      <point x="475" y="450" type="line"/>
      <point x="459" y="376" type="line"/>
      <point x="313" y="376" type="line"/>
      <point x="232" y="0" type="line"/>
      <point x="88" y="0" type="line"/>
      <point x="232" y="668" type="line"/>
      <point x="163" y="665"/>
      <point x="102" y="565"/>
      <point x="102" y="461" type="qcurve" smooth="yes"/>
      <point x="102" y="442"/>
      <point x="107" y="414"/>
      <point x="113" y="401" type="qcurve" smooth="yes"/>
      <point x="115" y="397"/>
      <point x="116" y="394"/>
      <point x="116" y="393" type="qcurve"/>
      <point x="60" y="393"/>
      <point x="9" y="440"/>
      <point x="9" y="490" type="qcurve" smooth="yes"/>
      <point x="9" y="609"/>
      <point x="188" y="750"/>
      <point x="350" y="750" type="qcurve" smooth="yes"/>
      <point x="359" y="750"/>
      <point x="385" y="748"/>
      <point x="415" y="745" type="qcurve" smooth="yes"/>
      <point x="455" y="741"/>
      <point x="498" y="738"/>
      <point x="516" y="738" type="qcurve" smooth="yes"/>
      <point x="543" y="738"/>
      <point x="587" y="744"/>
      <point x="606" y="750" type="qcurve"/>
      <point x="605" y="748"/>
      <point x="589" y="690"/>
      <point x="578" y="673" type="qcurve" smooth="yes"/>
      <point x="567" y="656"/>
      <point x="534" y="635"/>
      <point x="511" y="630" type="qcurve"/>
      <point x="484" y="630"/>
      <point x="419" y="639"/>
    </contour>
  </outline>
</glyph>
<glyph name="G" format="1">
  <advance width="578"/>
  <unicode hex="0047"/>
  <outline>
    <contour>
      <point x="374" y="229" type="qcurve"/>
      <point x="417" y="419" type="line"/>
      <point x="546" y="418" type="line"/>
      <point x="464" y="42" type="line" smooth="yes"/>
      <point x="435" y="-94"/>
      <point x="315" y="-207"/>
      <point x="208" y="-207" type="qcurve" smooth="yes"/>
      <point x="145" y="-207"/>
      <point x="69" y="-129"/>
      <point x="69" y="-69" type="qcurve" smooth="yes"/>
      <point x="69" y="-11"/>
      <point x="137" y="68"/>
      <point x="191" y="68" type="qcurve" smooth="yes"/>
      <point x="245" y="68"/>
      <point x="289" y="35"/>
      <point x="289" y="1" type="qcurve" smooth="yes"/>
      <point x="289" y="-7"/>
      <point x="286" y="-28"/>
      <point x="283" y="-39" type="qcurve"/>
      <point x="266" y="-25"/>
      <point x="240" y="-13"/>
      <point x="223" y="-13" type="qcurve" smooth="yes"/>
      <point x="192" y="-13"/>
      <point x="153" y="-57"/>
      <point x="153" y="-89" type="qcurve" smooth="yes"/>
      <point x="153" y="-119"/>
      <point x="187" y="-157"/>
      <point x="216" y="-157" type="qcurve" smooth="yes"/>
      <point x="257" y="-157"/>
      <point x="301" y="-100"/>
      <point x="316" y="-34" type="qcurve"/>
      <point x="356" y="145" type="line"/>
      <point x="325" y="128"/>
      <point x="255" y="109"/>
      <point x="234" y="109" type="qcurve" smooth="yes"/>
      <point x="128" y="109"/>
      <point x="19" y="240"/>
      <point x="19" y="365" type="qcurve" smooth="yes"/>
      <point x="19" y="439"/>
      <point x="70" y="580"/>
      <point x="116" y="633" type="qcurve" smooth="yes"/>
      <point x="165" y="690"/>
      <point x="296" y="750"/>
      <point x="373" y="750" type="qcurve" smooth="yes"/>
      <point x="457" y="750"/>
      <point x="559" y="679"/>
      <point x="559" y="616" type="qcurve" smooth="yes"/>
      <point x="559" y="571"/>
      <point x="523" y="524"/>
      <point x="489" y="524" type="qcurve" smooth="yes"/>
      <point x="468" y="524"/>
      <point x="431" y="538"/>
      <point x="420" y="550" type="qcurve"/>
      <point x="437" y="555"/>
      <point x="464" y="609"/>
      <point x="464" y="632" type="qcurve" smooth="yes"/>
      <point x="464" y="664"/>
      <point x="428" y="703"/>
      <point x="395" y="703" type="qcurve" smooth="yes"/>
      <point x="352" y="703"/>
      <point x="265" y="632"/>
      <point x="231" y="569" type="qcurve" smooth="yes"/>
      <point x="203" y="520"/>
      <point x="173" y="409"/>
      <point x="173" y="357" type="qcurve" smooth="yes"/>
      <point x="173" y="280"/>
      <point x="234" y="192"/>
      <point x="289" y="192" type="qcurve" smooth="yes"/>
      <point x="319" y="192"/>
      <point x="359" y="210"/>
    </contour>
  </outline>
</glyph>
<glyph name="H" format="1">
  <advance width="665"/>
  <unicode hex="0048"/>
  <outline>
    <contour>
      <point x="363" y="750" type="qcurve" smooth="yes"/>
      <point x="370" y="750"/>
      <point x="387" y="749"/>
      <point x="403" y="748" type="qcurve"/>
      <point x="339" y="450" type="line"/>
      <point x="486" y="450" type="line"/>
      <point x="550" y="748" type="line"/>
      <point x="694" y="748" type="line"/>
      <point x="535" y="0" type="line"/>
      <point x="391" y="0" type="line"/>
      <point x="471" y="376" type="line"/>
      <point x="324" y="376" type="line"/>
      <point x="244" y="0" type="line"/>
      <point x="100" y="0" type="line"/>
      <point x="245" y="680" type="line"/>
      <point x="177" y="652"/>
      <point x="105" y="539"/>
      <point x="105" y="461" type="qcurve" smooth="yes"/>
      <point x="105" y="442"/>
      <point x="110" y="414"/>
      <point x="116" y="401" type="qcurve" smooth="yes"/>
      <point x="118" y="397"/>
      <point x="119" y="394"/>
      <point x="119" y="393" type="qcurve"/>
      <point x="63" y="393"/>
      <point x="12" y="440"/>
      <point x="12" y="490" type="qcurve" smooth="yes"/>
      <point x="12" y="540"/>
      <point x="79" y="640"/>
      <point x="139" y="680" type="qcurve" smooth="yes"/>
      <point x="190" y="713"/>
      <point x="307" y="750"/>
    </contour>
  </outline>
</glyph>
<glyph name="J" format="1">
  <advance width="536"/>
  <unicode hex="004A"/>
  <outline>
    <contour>
      <point x="314" y="680" type="qcurve" smooth="yes"/>
      <point x="365" y="713"/>
      <point x="482" y="750"/>
      <point x="538" y="750" type="qcurve"/>
      <point x="578" y="750" type="line"/>
      <point x="428" y="40" type="line" smooth="yes"/>
      <point x="401" y="-91"/>
      <point x="275" y="-207"/>
      <point x="165" y="-207" type="qcurve" smooth="yes"/>
      <point x="96" y="-207"/>
      <point x="17" y="-131"/>
      <point x="17" y="-66" type="qcurve" smooth="yes"/>
      <point x="17" y="-9"/>
      <point x="85" y="68"/>
      <point x="139" y="68" type="qcurve" smooth="yes"/>
      <point x="193" y="68"/>
      <point x="237" y="35"/>
      <point x="237" y="1" type="qcurve" smooth="yes"/>
      <point x="237" y="-7"/>
      <point x="234" y="-28"/>
      <point x="231" y="-39" type="qcurve"/>
      <point x="214" y="-25"/>
      <point x="188" y="-13"/>
      <point x="171" y="-13" type="qcurve" smooth="yes"/>
      <point x="140" y="-13"/>
      <point x="101" y="-55"/>
      <point x="101" y="-87" type="qcurve" smooth="yes"/>
      <point x="101" y="-119"/>
      <point x="140" y="-157"/>
      <point x="169" y="-157" type="qcurve" smooth="yes"/>
      <point x="208" y="-157"/>
      <point x="249" y="-102"/>
      <point x="264" y="-34" type="qcurve"/>
      <point x="421" y="680" type="line"/>
      <point x="353" y="652"/>
      <point x="280" y="539"/>
      <point x="280" y="461" type="qcurve" smooth="yes"/>
      <point x="280" y="442"/>
      <point x="285" y="414"/>
      <point x="291" y="401" type="qcurve" smooth="yes"/>
      <point x="293" y="397"/>
      <point x="294" y="394"/>
      <point x="294" y="393" type="qcurve"/>
      <point x="238" y="393"/>
      <point x="187" y="440"/>
      <point x="187" y="490" type="qcurve" smooth="yes"/>
      <point x="187" y="540"/>
      <point x="254" y="640"/>
    </contour>
  </outline>
</glyph>
<glyph name="K" format="1">
  <advance width="601"/>
  <unicode hex="004B"/>
  <outline>
    <contour>
      <point x="357" y="750" type="qcurve" smooth="yes"/>
      <point x="364" y="750"/>
      <point x="381" y="749"/>
      <point x="397" y="748" type="qcurve"/>
      <point x="332" y="442" type="line"/>
      <point x="374" y="500"/>
      <point x="559" y="746"/>
      <point x="559" y="745" type="qcurve"/>
      <point x="664" y="745" type="line"/>
      <point x="386" y="425" type="line"/>
      <point x="390" y="425"/>
      <point x="397" y="425"/>
      <point x="405" y="426" type="qcurve" smooth="yes"/>
      <point x="412" y="426"/>
      <point x="418" y="426"/>
      <point x="421" y="426" type="qcurve" smooth="yes"/>
      <point x="484" y="426"/>
      <point x="545" y="374"/>
      <point x="545" y="319" type="qcurve" smooth="yes"/>
      <point x="545" y="296"/>
      <point x="535" y="237"/>
      <point x="518" y="177" type="qcurve" smooth="yes"/>
      <point x="504" y="126"/>
      <point x="496" y="82"/>
      <point x="496" y="66" type="qcurve" smooth="yes"/>
      <point x="496" y="43"/>
      <point x="517" y="7"/>
      <point x="535" y="0" type="qcurve"/>
      <point x="506" y="-8"/>
      <point x="455" y="-17"/>
      <point x="436" y="-17" type="qcurve" smooth="yes"/>
      <point x="397" y="-17"/>
      <point x="358" y="16"/>
      <point x="358" y="50" type="qcurve" smooth="yes"/>
      <point x="358" y="67"/>
      <point x="368" y="116"/>
      <point x="383" y="173" type="qcurve" smooth="yes"/>
      <point x="400" y="235"/>
      <point x="411" y="292"/>
      <point x="411" y="313" type="qcurve" smooth="yes"/>
      <point x="411" y="347"/>
      <point x="381" y="381"/>
      <point x="351" y="381" type="qcurve" smooth="yes"/>
      <point x="346" y="381"/>
      <point x="333" y="379"/>
      <point x="318" y="377" type="qcurve"/>
      <point x="238" y="0" type="line"/>
      <point x="94" y="0" type="line"/>
      <point x="239" y="680" type="line"/>
      <point x="171" y="652"/>
      <point x="99" y="539"/>
      <point x="99" y="461" type="qcurve" smooth="yes"/>
      <point x="99" y="442"/>
      <point x="104" y="414"/>
      <point x="110" y="401" type="qcurve" smooth="yes"/>
      <point x="112" y="397"/>
      <point x="113" y="394"/>
      <point x="113" y="393" type="qcurve"/>
      <point x="57" y="393"/>
      <point x="6" y="440"/>
      <point x="6" y="490" type="qcurve" smooth="yes"/>
      <point x="6" y="540"/>
      <point x="73" y="640"/>
      <point x="133" y="680" type="qcurve" smooth="yes"/>
      <point x="184" y="713"/>
      <point x="301" y="750"/>
    </contour>
  </outline>
</glyph>
<glyph name="M" format="1">
  <advance width="787"/>
  <unicode hex="004D"/>
  <outline>
    <contour>
      <point x="804" y="736" type="line"/>
      <point x="699" y="0" type="line"/>
      <point x="555" y="0" type="line"/>
      <point x="619" y="449" type="line"/>
      <point x="431" y="0" type="line"/>
      <point x="294" y="0" type="line"/>
      <point x="314" y="451" type="line"/>
      <point x="147" y="0" type="line"/>
      <point x="67" y="0" type="line"/>
      <point x="321" y="687" type="line"/>
      <point x="244" y="661"/>
      <point x="162" y="545"/>
      <point x="162" y="462" type="qcurve" smooth="yes"/>
      <point x="162" y="442"/>
      <point x="167" y="413"/>
      <point x="173" y="401" type="qcurve" smooth="yes"/>
      <point x="175" y="397"/>
      <point x="176" y="394"/>
      <point x="176" y="393" type="qcurve"/>
      <point x="122" y="393"/>
      <point x="69" y="438"/>
      <point x="69" y="484" type="qcurve" smooth="yes"/>
      <point x="69" y="532"/>
      <point x="128" y="631"/>
      <point x="180" y="672" type="qcurve" smooth="yes"/>
      <point x="227" y="709"/>
      <point x="335" y="750"/>
      <point x="387" y="750" type="qcurve" smooth="yes"/>
      <point x="406" y="750"/>
      <point x="445" y="743"/>
      <point x="463" y="736" type="qcurve"/>
      <point x="440" y="209" type="line"/>
      <point x="660" y="736" type="line"/>
    </contour>
  </outline>
</glyph>
<glyph name="N" format="1">
  <advance width="668"/>
  <unicode hex="004E"/>
  <outline>
    <contour>
      <point x="461" y="206" type="line"/>
      <point x="570" y="748" type="line"/>
      <point x="714" y="748" type="line"/>
      <point x="555" y="0" type="line"/>
      <point x="434" y="0" type="line"/>
      <point x="349" y="523" type="line"/>
      <point x="238" y="0" type="line"/>
      <point x="94" y="0" type="line"/>
      <point x="238" y="679" type="line"/>
      <point x="171" y="651"/>
      <point x="99" y="539"/>
      <point x="99" y="461" type="qcurve" smooth="yes"/>
      <point x="99" y="442"/>
      <point x="104" y="414"/>
      <point x="110" y="401" type="qcurve" smooth="yes"/>
      <point x="112" y="397"/>
      <point x="113" y="394"/>
      <point x="113" y="393" type="qcurve"/>
      <point x="57" y="393"/>
      <point x="6" y="440"/>
      <point x="6" y="490" type="qcurve" smooth="yes"/>
      <point x="6" y="538"/>
      <point x="54" y="637"/>
      <point x="96" y="675" type="qcurve" smooth="yes"/>
      <point x="136" y="712"/>
      <point x="235" y="750"/>
      <point x="289" y="750" type="qcurve" smooth="yes"/>
      <point x="328" y="750"/>
      <point x="367" y="743"/>
      <point x="382" y="736" type="qcurve"/>
    </contour>
  </outline>
</glyph>
<glyph name="O" format="1">
  <advance width="665"/>
  <unicode hex="004F"/>
  <outline>
    <contour>
      <point x="379" y="664" type="qcurve" smooth="yes"/>
      <point x="393" y="664"/>
      <point x="419" y="660"/>
      <point x="431" y="656" type="qcurve"/>
      <point x="367" y="617"/>
      <point x="256" y="315"/>
      <point x="256" y="191" type="qcurve" smooth="yes"/>
      <point x="256" y="135"/>
      <point x="286" y="75"/>
      <point x="314" y="75" type="qcurve" smooth="yes"/>
      <point x="355" y="75"/>
      <point x="441" y="181"/>
      <point x="474" y="270" type="qcurve" smooth="yes"/>
      <point x="498" y="333"/>
      <point x="523" y="468"/>
      <point x="523" y="529" type="qcurve" smooth="yes"/>
      <point x="523" y="629"/>
      <point x="465" y="704"/>
      <point x="395" y="704" type="qcurve" smooth="yes"/>
      <point x="272" y="704"/>
      <point x="107" y="559"/>
      <point x="107" y="447" type="qcurve" smooth="yes"/>
      <point x="107" y="433"/>
      <point x="110" y="412"/>
      <point x="115" y="401" type="qcurve" smooth="yes"/>
      <point x="116" y="397"/>
      <point x="117" y="394"/>
      <point x="117" y="393" type="qcurve"/>
      <point x="66" y="393"/>
      <point x="16" y="434"/>
      <point x="16" y="477" type="qcurve" smooth="yes"/>
      <point x="16" y="533"/>
      <point x="95" y="642"/>
      <point x="165" y="683" type="qcurve" smooth="yes"/>
      <point x="221" y="715"/>
      <point x="352" y="750"/>
      <point x="419" y="750" type="qcurve" smooth="yes"/>
      <point x="537" y="750"/>
      <point x="656" y="621"/>
      <point x="656" y="494" type="qcurve" smooth="yes"/>
      <point x="656" y="411"/>
      <point x="608" y="235"/>
      <point x="566" y="166" type="qcurve" smooth="yes"/>
      <point x="515" y="82"/>
      <point x="373" y="-6"/>
      <point x="287" y="-6" type="qcurve" smooth="yes"/>
      <point x="199" y="-6"/>
      <point x="108" y="96"/>
      <point x="108" y="195" type="qcurve" smooth="yes"/>
      <point x="108" y="259"/>
      <point x="142" y="414"/>
      <point x="171" y="479" type="qcurve" smooth="yes"/>
      <point x="211" y="569"/>
      <point x="317" y="664"/>
    </contour>
  </outline>
</glyph>
<glyph name="P" format="1">
  <advance width="573"/>
  <unicode hex="0050"/>
  <outline>
    <contour>
      <point x="94" y="0" type="line"/>
      <point x="230" y="636" type="line"/>
      <point x="378" y="656" type="line"/>
      <point x="307" y="322" type="line"/>
      <point x="377" y="328"/>
      <point x="482" y="480"/>
      <point x="482" y="568" type="qcurve" smooth="yes"/>
      <point x="482" y="632"/>
      <point x="417" y="704"/>
      <point x="358" y="704" type="qcurve" smooth="yes"/>
      <point x="236" y="704"/>
      <point x="99" y="575"/>
      <point x="99" y="461" type="qcurve" smooth="yes"/>
      <point x="99" y="442"/>
      <point x="104" y="414"/>
      <point x="110" y="401" type="qcurve" smooth="yes"/>
      <point x="112" y="397"/>
      <point x="113" y="394"/>
      <point x="113" y="393" type="qcurve"/>
      <point x="57" y="393"/>
      <point x="6" y="440"/>
      <point x="6" y="490" type="qcurve" smooth="yes"/>
      <point x="6" y="540"/>
      <point x="73" y="640"/>
      <point x="133" y="680" type="qcurve" smooth="yes"/>
      <point x="184" y="713"/>
      <point x="301" y="750"/>
      <point x="357" y="750" type="qcurve" smooth="yes"/>
      <point x="467" y="750"/>
      <point x="593" y="642"/>
      <point x="593" y="553" type="qcurve" smooth="yes"/>
      <point x="593" y="500"/>
      <point x="546" y="398"/>
      <point x="504" y="360" type="qcurve" smooth="yes"/>
      <point x="464" y="323"/>
      <point x="362" y="285"/>
      <point x="304" y="285" type="qcurve"/>
      <point x="299" y="285" type="line"/>
      <point x="238" y="0" type="line"/>
    </contour>
  </outline>
</glyph>
<glyph name="Q" format="1">
  <advance width="665"/>
  <unicode hex="0051"/>
  <outline>
    <contour>
      <point x="379" y="664" type="qcurve" smooth="yes"/>
      <point x="393" y="664"/>
      <point x="419" y="660"/>
      <point x="431" y="656" type="qcurve"/>
      <point x="367" y="617"/>
      <point x="256" y="315"/>
      <point x="256" y="191" type="qcurve" smooth="yes"/>
      <point x="256" y="172"/>
      <point x="257" y="155"/>
      <point x="258" y="148" type="qcurve"/>
      <point x="276" y="153"/>
      <point x="307" y="157"/>
      <point x="320" y="157" type="qcurve" smooth="yes"/>
      <point x="343" y="157"/>
      <point x="382" y="144"/>
      <point x="400" y="130" type="qcurve"/>
      <point x="452" y="196"/>
      <point x="523" y="424"/>
      <point x="523" y="529" type="qcurve" smooth="yes"/>
      <point x="523" y="629"/>
      <point x="465" y="704"/>
      <point x="395" y="704" type="qcurve" smooth="yes"/>
      <point x="272" y="704"/>
      <point x="107" y="559"/>
      <point x="107" y="447" type="qcurve" smooth="yes"/>
      <point x="107" y="433"/>
      <point x="110" y="412"/>
      <point x="115" y="401" type="qcurve" smooth="yes"/>
      <point x="116" y="397"/>
      <point x="117" y="394"/>
      <point x="117" y="393" type="qcurve"/>
      <point x="66" y="393"/>
      <point x="16" y="434"/>
      <point x="16" y="477" type="qcurve" smooth="yes"/>
      <point x="16" y="533"/>
      <point x="95" y="642"/>
      <point x="165" y="683" type="qcurve" smooth="yes"/>
      <point x="221" y="715"/>
      <point x="352" y="750"/>
      <point x="419" y="750" type="qcurve" smooth="yes"/>
      <point x="537" y="750"/>
      <point x="656" y="621"/>
      <point x="656" y="494" type="qcurve" smooth="yes"/>
      <point x="656" y="366"/>
      <point x="552" y="117"/>
      <point x="465" y="52" type="qcurve"/>
      <point x="499" y="5"/>
      <point x="555" y="-29"/>
      <point x="590" y="-29" type="qcurve" smooth="yes"/>
      <point x="593" y="-29"/>
      <point x="600" y="-28"/>
      <point x="612" y="-27" type="qcurve"/>
      <point x="595" y="-72"/>
      <point x="547" y="-113"/>
      <point x="509" y="-113" type="qcurve" smooth="yes"/>
      <point x="461" y="-113"/>
      <point x="402" y="-63"/>
      <point x="380" y="8" type="qcurve"/>
      <point x="358" y="1"/>
      <point x="312" y="-6"/>
      <point x="287" y="-6" type="qcurve" smooth="yes"/>
      <point x="199" y="-6"/>
      <point x="108" y="96"/>
      <point x="108" y="195" type="qcurve" smooth="yes"/>
      <point x="108" y="259"/>
      <point x="142" y="414"/>
      <point x="171" y="479" type="qcurve" smooth="yes"/>
      <point x="211" y="569"/>
      <point x="317" y="664"/>
    </contour>
    <contour>
      <point x="266" y="116" type="qcurve"/>
      <point x="273" y="95"/>
      <point x="297" y="75"/>
      <point x="314" y="75" type="qcurve" smooth="yes"/>
      <point x="324" y="75"/>
      <point x="344" y="81"/>
      <point x="352" y="86" type="qcurve"/>
      <point x="342" y="103"/>
      <point x="314" y="120"/>
      <point x="295" y="120" type="qcurve" smooth="yes"/>
      <point x="288" y="120"/>
      <point x="274" y="118"/>
    </contour>
  </outline>
</glyph>
<glyph name="R" format="1">
  <advance width="601"/>
  <unicode hex="0052"/>
  <outline>
    <contour>
      <point x="94" y="0" type="line"/>
      <point x="230" y="636" type="line"/>
      <point x="378" y="656" type="line"/>
      <point x="329" y="425" type="line"/>
      <point x="337" y="425" type="line" smooth="yes"/>
      <point x="394" y="425"/>
      <point x="479" y="535"/>
      <point x="479" y="599" type="qcurve" smooth="yes"/>
      <point x="479" y="648"/>
      <point x="421" y="704"/>
      <point x="369" y="704" type="qcurve" smooth="yes"/>
      <point x="245" y="704"/>
      <point x="99" y="573"/>
      <point x="99" y="461" type="qcurve" smooth="yes"/>
      <point x="99" y="442"/>
      <point x="104" y="414"/>
      <point x="110" y="401" type="qcurve" smooth="yes"/>
      <point x="112" y="397"/>
      <point x="113" y="394"/>
      <point x="113" y="393" type="qcurve"/>
      <point x="57" y="393"/>
      <point x="6" y="440"/>
      <point x="6" y="490" type="qcurve" smooth="yes"/>
      <point x="6" y="540"/>
      <point x="73" y="640"/>
      <point x="133" y="680" type="qcurve" smooth="yes"/>
      <point x="184" y="713"/>
      <point x="301" y="750"/>
      <point x="357" y="750" type="qcurve" smooth="yes"/>
      <point x="462" y="750"/>
      <point x="584" y="662"/>
      <point x="584" y="590" type="qcurve" smooth="yes"/>
      <point x="584" y="542"/>
      <point x="525" y="448"/>
      <point x="476" y="419" type="qcurve"/>
      <point x="511" y="409"/>
      <point x="545" y="360"/>
      <point x="545" y="319" type="qcurve" smooth="yes"/>
      <point x="545" y="296"/>
      <point x="535" y="237"/>
      <point x="518" y="177" type="qcurve" smooth="yes"/>
      <point x="504" y="126"/>
      <point x="496" y="82"/>
      <point x="496" y="66" type="qcurve" smooth="yes"/>
      <point x="496" y="43"/>
      <point x="517" y="7"/>
      <point x="535" y="0" type="qcurve"/>
      <point x="506" y="-8"/>
      <point x="455" y="-17"/>
      <point x="436" y="-17" type="qcurve" smooth="yes"/>
      <point x="397" y="-17"/>
      <point x="358" y="16"/>
      <point x="358" y="50" type="qcurve" smooth="yes"/>
      <point x="358" y="67"/>
      <point x="368" y="116"/>
      <point x="383" y="173" type="qcurve" smooth="yes"/>
      <point x="400" y="235"/>
      <point x="411" y="292"/>
      <point x="411" y="313" type="qcurve" smooth="yes"/>
      <point x="411" y="347"/>
      <point x="381" y="381"/>
      <point x="351" y="381" type="qcurve" smooth="yes"/>
      <point x="347" y="381"/>
      <point x="338" y="380"/>
      <point x="318" y="377" type="qcurve"/>
      <point x="238" y="0" type="line"/>
    </contour>
  </outline>
</glyph>
<glyph name="S" format="1">
  <advance width="570"/>
  <unicode hex="0053"/>
  <outline>
    <contour>
      <point x="383" y="750" type="qcurve" smooth="yes"/>
      <point x="459" y="750"/>
      <point x="544" y="688"/>
      <point x="544" y="630" type="qcurve" smooth="yes"/>
      <point x="544" y="585"/>
      <point x="499" y="529"/>
      <point x="462" y="529" type="qcurve" smooth="yes"/>
      <point x="448" y="529"/>
      <point x="425" y="539"/>
      <point x="416" y="550" type="qcurve"/>
      <point x="436" y="562"/>
      <point x="461" y="610"/>
      <point x="461" y="636" type="qcurve" smooth="yes"/>
      <point x="461" y="668"/>
      <point x="423" y="703"/>
      <point x="387" y="703" type="qcurve" smooth="yes"/>
      <point x="344" y="703"/>
      <point x="295" y="655"/>
      <point x="295" y="612" type="qcurve" smooth="yes"/>
      <point x="295" y="577"/>
      <point x="331" y="514"/>
      <point x="391" y="461" type="qcurve" smooth="yes"/>
      <point x="470" y="392"/>
      <point x="520" y="291"/>
      <point x="520" y="229" type="qcurve" smooth="yes"/>
      <point x="520" y="115"/>
      <point x="362" y="-21"/>
      <point x="239" y="-21" type="qcurve" smooth="yes"/>
      <point x="141" y="-21"/>
      <point x="27" y="69"/>
      <point x="27" y="151" type="qcurve" smooth="yes"/>
      <point x="27" y="223"/>
      <point x="113" y="315"/>
      <point x="174" y="315" type="qcurve" smooth="yes"/>
      <point x="212" y="315"/>
      <point x="260" y="280"/>
      <point x="262" y="249" type="qcurve"/>
      <point x="210" y="249"/>
      <point x="145" y="199"/>
      <point x="145" y="155" type="qcurve" smooth="yes"/>
      <point x="145" y="113"/>
      <point x="197" y="59"/>
      <point x="241" y="59" type="qcurve" smooth="yes"/>
      <point x="293" y="59"/>
      <point x="357" y="131"/>
      <point x="357" y="192" type="qcurve" smooth="yes"/>
      <point x="357" y="239"/>
      <point x="315" y="325"/>
      <point x="249" y="397" type="qcurve" smooth="yes"/>
      <point x="189" y="461"/>
      <point x="152" y="534"/>
      <point x="152" y="571" type="qcurve" smooth="yes"/>
      <point x="152" y="648"/>
      <point x="285" y="750"/>
    </contour>
  </outline>
</glyph>
<glyph name="T" format="1">
  <advance width="481"/>
  <unicode hex="0054"/>
  <outline>
    <contour>
      <point x="719" y="747" type="qcurve"/>
      <point x="718" y="683"/>
      <point x="655" y="620"/>
      <point x="594" y="620" type="qcurve" smooth="yes"/>
      <point x="565" y="620"/>
      <point x="494" y="630"/>
      <point x="439" y="642" type="qcurve"/>
      <point x="301" y="0" type="line"/>
      <point x="157" y="0" type="line"/>
      <point x="299" y="662" type="line"/>
      <point x="287" y="662" type="line" smooth="yes"/>
      <point x="190" y="662"/>
      <point x="99" y="563"/>
      <point x="99" y="460" type="qcurve" smooth="yes"/>
      <point x="99" y="441"/>
      <point x="104" y="413"/>
      <point x="110" y="400" type="qcurve" smooth="yes"/>
      <point x="112" y="396"/>
      <point x="113" y="393"/>
      <point x="113" y="392" type="qcurve"/>
      <point x="57" y="392"/>
      <point x="6" y="439"/>
      <point x="6" y="489" type="qcurve" smooth="yes"/>
      <point x="6" y="608"/>
      <point x="185" y="749"/>
      <point x="347" y="749" type="qcurve" smooth="yes"/>
      <point x="380" y="749"/>
      <point x="441" y="744"/>
      <point x="489" y="737" type="qcurve" smooth="yes"/>
      <point x="531" y="730"/>
      <point x="578" y="726"/>
      <point x="603" y="726" type="qcurve" smooth="yes"/>
      <point x="633" y="726"/>
      <point x="695" y="737"/>
    </contour>
  </outline>
</glyph>
<glyph name="V" format="1">
  <advance width="615"/>
  <unicode hex="0056"/>
  <outline>
    <contour>
      <point x="357" y="750" type="qcurve" smooth="yes"/>
      <point x="364" y="750"/>
      <point x="381" y="749"/>
      <point x="397" y="748" type="qcurve"/>
      <point x="406" y="133" type="line"/>
      <point x="616" y="745" type="line"/>
      <point x="686" y="745" type="line"/>
      <point x="408" y="0" type="line"/>
      <point x="256" y="0" type="line"/>
      <point x="256" y="683" type="line"/>
      <point x="178" y="659"/>
      <point x="99" y="547"/>
      <point x="99" y="461" type="qcurve" smooth="yes"/>
      <point x="99" y="442"/>
      <point x="104" y="414"/>
      <point x="110" y="401" type="qcurve" smooth="yes"/>
      <point x="112" y="397"/>
      <point x="113" y="394"/>
      <point x="113" y="393" type="qcurve"/>
      <point x="57" y="393"/>
      <point x="6" y="440"/>
      <point x="6" y="490" type="qcurve" smooth="yes"/>
      <point x="6" y="540"/>
      <point x="73" y="640"/>
      <point x="133" y="680" type="qcurve" smooth="yes"/>
      <point x="184" y="713"/>
      <point x="301" y="750"/>
    </contour>
  </outline>
</glyph>
<glyph name="W" format="1">
  <advance width="962"/>
  <unicode hex="0057"/>
  <outline>
    <contour>
      <point x="357" y="750" type="qcurve" smooth="yes"/>
      <point x="364" y="750"/>
      <point x="381" y="749"/>
      <point x="397" y="748" type="qcurve"/>
      <point x="406" y="133" type="line"/>
      <point x="616" y="745" type="line"/>
      <point x="747" y="745" type="line"/>
      <point x="747" y="133" type="line"/>
      <point x="962" y="745" type="line"/>
      <point x="1032" y="745" type="line"/>
      <point x="754" y="0" type="line"/>
      <point x="606" y="0" type="line"/>
      <point x="606" y="509" type="line"/>
      <point x="408" y="0" type="line"/>
      <point x="261" y="0" type="line"/>
      <point x="261" y="683" type="line"/>
      <point x="181" y="658"/>
      <point x="99" y="546"/>
      <point x="99" y="461" type="qcurve" smooth="yes"/>
      <point x="99" y="442"/>
      <point x="104" y="414"/>
      <point x="110" y="401" type="qcurve" smooth="yes"/>
      <point x="112" y="397"/>
      <point x="113" y="394"/>
      <point x="113" y="393" type="qcurve"/>
      <point x="57" y="393"/>
      <point x="6" y="440"/>
      <point x="6" y="490" type="qcurve" smooth="yes"/>
      <point x="6" y="540"/>
      <point x="73" y="640"/>
      <point x="133" y="680" type="qcurve" smooth="yes"/>
      <point x="184" y="713"/>
      <point x="301" y="750"/>
    </contour>
  </outline>
</glyph>
<glyph name="X" format="1">
  <advance width="620"/>
  <unicode hex="0058"/>
  <outline>
    <contour>
      <point x="458" y="454" type="line"/>
      <point x="552" y="0" type="line"/>
      <point x="393" y="0" type="line"/>
      <point x="340" y="250" type="line"/>
      <point x="195" y="0" type="line"/>
      <point x="134" y="0" type="line"/>
      <point x="322" y="332" type="line"/>
      <point x="248" y="683" type="line"/>
      <point x="176" y="657"/>
      <point x="99" y="542"/>
      <point x="99" y="461" type="qcurve" smooth="yes"/>
      <point x="99" y="442"/>
      <point x="104" y="414"/>
      <point x="110" y="401" type="qcurve" smooth="yes"/>
      <point x="112" y="397"/>
      <point x="113" y="394"/>
      <point x="113" y="393" type="qcurve"/>
      <point x="57" y="393"/>
      <point x="6" y="440"/>
      <point x="6" y="490" type="qcurve" smooth="yes"/>
      <point x="6" y="540"/>
      <point x="73" y="640"/>
      <point x="133" y="680" type="qcurve" smooth="yes"/>
      <point x="184" y="713"/>
      <point x="301" y="750"/>
      <point x="357" y="750" type="qcurve" smooth="yes"/>
      <point x="364" y="750"/>
      <point x="381" y="749"/>
      <point x="397" y="748" type="qcurve"/>
      <point x="440" y="540" type="line"/>
      <point x="556" y="745" type="line"/>
      <point x="626" y="745" type="line"/>
    </contour>
  </outline>
</glyph>
<glyph name="Y" format="1">
  <advance width="620"/>
  <unicode hex="0059"/>
  <outline>
    <contour>
      <point x="504" y="308" type="line"/>
      <point x="438" y="0" type="line"/>
      <point x="278" y="0" type="line"/>
      <point x="344" y="308" type="line"/>
      <point x="248" y="683" type="line"/>
      <point x="176" y="657"/>
      <point x="99" y="542"/>
      <point x="99" y="461" type="qcurve" smooth="yes"/>
      <point x="99" y="442"/>
      <point x="104" y="414"/>
      <point x="110" y="401" type="qcurve" smooth="yes"/>
      <point x="112" y="397"/>
      <point x="113" y="394"/>
      <point x="113" y="393" type="qcurve"/>
      <point x="57" y="393"/>
      <point x="6" y="440"/>
      <point x="6" y="490" type="qcurve" smooth="yes"/>
      <point x="6" y="540"/>
      <point x="73" y="640"/>
      <point x="133" y="680" type="qcurve" smooth="yes"/>
      <point x="184" y="713"/>
      <point x="301" y="750"/>
      <point x="357" y="750" type="qcurve" smooth="yes"/>
      <point x="364" y="750"/>
      <point x="381" y="749"/>
      <point x="397" y="748" type="qcurve"/>
      <point x="484" y="390" type="line"/>
      <point x="632" y="745" type="line"/>
      <point x="698" y="745" type="line"/>
    </contour>
  </outline>
</glyph>
<glyph name="bracketleft" format="1">
  <advance width="400"/>
  <unicode hex="005B"/>
  <outline>
    <contour>
      <point x="61" y="-188" type="line"/>
      <point x="182" y="-188" type="line"/>
      <point x="169" y="-250" type="line"/>
      <point x="-24" y="-250" type="line"/>
      <point x="188" y="750" type="line"/>
      <point x="381" y="750" type="line"/>
      <point x="368" y="688" type="line"/>
      <point x="247" y="688" type="line"/>
    </contour>
  </outline>
</glyph>
<glyph name="backslash" format="1">
  <advance width="362"/>
  <unicode hex="005C"/>
  <outline>
    <contour>
      <point x="326" y="-250" type="line"/>
      <point x="254" y="-250" type="line"/>
      <point x="42" y="750" type="line"/>
      <point x="114" y="750" type="line"/>
    </contour>
  </outline>
</glyph>
<glyph name="bracketright" format="1">
  <advance width="400"/>
  <unicode hex="005D"/>
  <outline>
    <contour>
      <point x="296" y="688" type="line"/>
      <point x="175" y="688" type="line"/>
      <point x="188" y="750" type="line"/>
      <point x="381" y="750" type="line"/>
      <point x="169" y="-250" type="line"/>
      <point x="-24" y="-250" type="line"/>
      <point x="-11" y="-188" type="line"/>
      <point x="110" y="-188" type="line"/>
    </contour>
  </outline>
</glyph>
<glyph name="asciicircum" format="1">
  <advance width="421"/>
  <unicode hex="005E"/>
  <outline>
    <contour>
      <point x="283" y="750" type="line"/>
      <point x="343" y="561" type="line"/>
      <point x="311" y="561" type="line"/>
      <point x="251" y="641" type="line"/>
      <point x="94" y="561" type="line"/>
      <point x="50" y="561" type="line"/>
      <point x="262" y="750" type="line"/>
    </contour>
  </outline>
</glyph>
<glyph name="underscore" format="1">
  <advance width="444"/>
  <unicode hex="005F"/>
  <outline>
    <contour>
      <point x="54" y="79" type="line"/>
      <point x="404" y="79" type="line"/>
      <point x="387" y="0" type="line"/>
      <point x="36" y="0" type="line"/>
    </contour>
  </outline>
</glyph>
<glyph name="grave" format="1">
  <advance width="201"/>
  <unicode hex="0060"/>
  <outline>
    <contour>
      <point x="158" y="561" type="line"/>
      <point x="83" y="561" type="line"/>
      <point x="24" y="750" type="line"/>
      <point x="129" y="750" type="line"/>
    </contour>
  </outline>
</glyph>
<glyph name="a" format="1">
  <advance width="526"/>
  <unicode hex="0061"/>
  <outline>
    <contour>
      <point x="325" y="447" type="line"/>
      <point x="336" y="500" type="line"/>
      <point x="480" y="500" type="line"/>
      <point x="408" y="160" type="line" smooth="yes"/>
      <point x="406" y="151"/>
      <point x="404" y="136"/>
      <point x="404" y="128" type="qcurve" smooth="yes"/>
      <point x="404" y="106"/>
      <point x="424" y="85"/>
      <point x="445" y="85" type="qcurve" smooth="yes"/>
      <point x="471" y="85"/>
      <point x="513" y="134"/>
      <point x="526" y="179" type="qcurve"/>
      <point x="568" y="179" type="line"/>
      <point x="536" y="87"/>
      <point x="434" y="-6"/>
      <point x="367" y="-6" type="qcurve" smooth="yes"/>
      <point x="324" y="-6"/>
      <point x="273" y="42"/>
      <point x="269" y="86" type="qcurve"/>
      <point x="238" y="40"/>
      <point x="163" y="-6"/>
      <point x="120" y="-6" type="qcurve" smooth="yes"/>
      <point x="58" y="-6"/>
      <point x="-13" y="78"/>
      <point x="-13" y="155" type="qcurve" smooth="yes"/>
      <point x="-13" y="211"/>
      <point x="21" y="333"/>
      <point x="51" y="383" type="qcurve" smooth="yes"/>
      <point x="88" y="442"/>
      <point x="186" y="505"/>
      <point x="244" y="505" type="qcurve" smooth="yes"/>
      <point x="283" y="505"/>
      <point x="325" y="478"/>
      <point x="325" y="454" type="qcurve"/>
    </contour>
    <contour>
      <point x="275" y="443" type="qcurve" smooth="yes"/>
      <point x="220" y="443"/>
      <point x="135" y="259"/>
      <point x="135" y="169" type="qcurve" smooth="yes"/>
      <point x="135" y="130"/>
      <point x="157" y="91"/>
      <point x="185" y="91" type="qcurve" smooth="yes"/>
      <point x="211" y="91"/>
      <point x="260" y="141"/>
      <point x="268" y="179" type="qcurve"/>
      <point x="316" y="405" type="line"/>
      <point x="316" y="420"/>
      <point x="294" y="443"/>
    </contour>
  </outline>
</glyph>
<glyph name="b" format="1">
  <advance width="444"/>
  <unicode hex="0062"/>
  <outline>
    <contour>
      <point x="-7" y="122" type="qcurve" smooth="yes"/>
      <point x="-7" y="136"/>
      <point x="-3" y="164"/>
      <point x="0" y="179" type="qcurve"/>
      <point x="107" y="680" type="line"/>
      <point x="255" y="700" type="line"/>
      <point x="207" y="475" type="line"/>
      <point x="231" y="490"/>
      <point x="268" y="503"/>
      <point x="289" y="503" type="qcurve" smooth="yes"/>
      <point x="348" y="503"/>
      <point x="407" y="418"/>
      <point x="407" y="332" type="qcurve" smooth="yes"/>
      <point x="407" y="273"/>
      <point x="371" y="149"/>
      <point x="339" y="103" type="qcurve" smooth="yes"/>
      <point x="302" y="49"/>
      <point x="198" y="-6"/>
      <point x="133" y="-6" type="qcurve" smooth="yes"/>
      <point x="66" y="-6"/>
      <point x="-7" y="61"/>
    </contour>
    <contour>
      <point x="189" y="91" type="qcurve" smooth="yes"/>
      <point x="234" y="91"/>
      <point x="306" y="249"/>
      <point x="306" y="336" type="qcurve" smooth="yes"/>
      <point x="306" y="378"/>
      <point x="277" y="432"/>
      <point x="253" y="432" type="qcurve" smooth="yes"/>
      <point x="237" y="432"/>
      <point x="201" y="422"/>
      <point x="194" y="414" type="qcurve"/>
      <point x="139" y="160" type="line" smooth="yes"/>
      <point x="138" y="154"/>
      <point x="136" y="142"/>
      <point x="136" y="137" type="qcurve" smooth="yes"/>
      <point x="136" y="114"/>
      <point x="163" y="91"/>
    </contour>
  </outline>
</glyph>
<glyph name="d" format="1">
  <advance width="525"/>
  <unicode hex="0064"/>
  <outline>
    <contour>
      <point x="325" y="450" type="line"/>
      <point x="374" y="680" type="line"/>
      <point x="522" y="700" type="line"/>
      <point x="407" y="160" type="line" smooth="yes"/>
      <point x="405" y="151"/>
      <point x="403" y="136"/>
      <point x="403" y="128" type="qcurve" smooth="yes"/>
      <point x="403" y="108"/>
      <point x="422" y="91"/>
      <point x="444" y="91" type="qcurve" smooth="yes"/>
      <point x="470" y="91"/>
      <point x="512" y="137"/>
      <point x="525" y="179" type="qcurve"/>
      <point x="567" y="179" type="line"/>
      <point x="536" y="90"/>
      <point x="437" y="0"/>
      <point x="366" y="0" type="qcurve" smooth="yes"/>
      <point x="325" y="0"/>
      <point x="274" y="45"/>
      <point x="268" y="86" type="qcurve"/>
      <point x="238" y="40"/>
      <point x="164" y="-6"/>
      <point x="120" y="-6" type="qcurve" smooth="yes"/>
      <point x="58" y="-6"/>
      <point x="-13" y="78"/>
      <point x="-13" y="155" type="qcurve" smooth="yes"/>
      <point x="-13" y="211"/>
      <point x="21" y="333"/>
      <point x="51" y="383" type="qcurve" smooth="yes"/>
      <point x="88" y="442"/>
      <point x="186" y="505"/>
      <point x="244" y="505" type="qcurve" smooth="yes"/>
      <point x="283" y="505"/>
      <point x="325" y="478"/>
      <point x="325" y="454" type="qcurve"/>
    </contour>
    <contour>
      <point x="185" y="91" type="qcurve" smooth="yes"/>
      <point x="210" y="91"/>
      <point x="258" y="138"/>
      <point x="267" y="174" type="qcurve"/>
      <point x="267" y="179" type="line"/>
      <point x="316" y="408" type="line"/>
      <point x="313" y="424"/>
      <point x="292" y="443"/>
      <point x="275" y="443" type="qcurve" smooth="yes"/>
      <point x="220" y="443"/>
      <point x="135" y="259"/>
      <point x="135" y="169" type="qcurve" smooth="yes"/>
      <point x="135" y="130"/>
      <point x="157" y="91"/>
    </contour>
  </outline>
</glyph>
<glyph name="f" format="1">
  <advance width="267"/>
  <unicode hex="0066"/>
  <outline>
    <contour>
      <point x="385" y="641" type="qcurve" smooth="yes"/>
      <point x="385" y="629"/>
      <point x="384" y="609"/>
      <point x="382" y="600" type="qcurve"/>
      <point x="335" y="600" type="line"/>
      <point x="337" y="616"/>
      <point x="337" y="623"/>
      <point x="337" y="627" type="qcurve" smooth="yes"/>
      <point x="337" y="643"/>
      <point x="316" y="661"/>
      <point x="299" y="661" type="qcurve" smooth="yes"/>
      <point x="274" y="661"/>
      <point x="237" y="619"/>
      <point x="229" y="579" type="qcurve"/>
      <point x="212" y="500" type="line"/>
      <point x="285" y="500" type="line"/>
      <point x="278" y="460" type="line"/>
      <point x="204" y="460" type="line"/>
      <point x="89" y="-80" type="line" smooth="yes"/>
      <point x="71" y="-165"/>
      <point x="-19" y="-250"/>
      <point x="-90" y="-250" type="qcurve" smooth="yes"/>
      <point x="-139" y="-250"/>
      <point x="-208" y="-188"/>
      <point x="-208" y="-142" type="qcurve" smooth="yes"/>
      <point x="-208" y="-90"/>
      <point x="-139" y="-24"/>
      <point x="-36" y="8" type="qcurve"/>
      <point x="85" y="579" type="line" smooth="yes"/>
      <point x="103" y="663"/>
      <point x="195" y="749"/>
      <point x="267" y="749" type="qcurve" smooth="yes"/>
      <point x="316" y="749"/>
      <point x="385" y="687"/>
    </contour>
    <contour>
      <point x="-153" y="-128" type="qcurve" smooth="yes"/>
      <point x="-153" y="-140"/>
      <point x="-128" y="-161"/>
      <point x="-113" y="-161" type="qcurve" smooth="yes"/>
      <point x="-94" y="-161"/>
      <point x="-64" y="-121"/>
      <point x="-56" y="-83" type="qcurve"/>
      <point x="-43" y="-25" type="line"/>
      <point x="-101" y="-44"/>
      <point x="-153" y="-94"/>
    </contour>
  </outline>
</glyph>
<glyph name="g" format="1">
  <advance width="507"/>
  <unicode hex="0067"/>
  <outline>
    <contour>
      <point x="325" y="448" type="line"/>
      <point x="336" y="500" type="line"/>
      <point x="480" y="500" type="line"/>
      <point x="381" y="36" type="line"/>
      <point x="431" y="54"/>
      <point x="488" y="119"/>
      <point x="507" y="179" type="qcurve"/>
      <point x="549" y="179" type="line"/>
      <point x="526" y="103"/>
      <point x="441" y="11"/>
      <point x="372" y="-8" type="qcurve"/>
      <point x="357" y="-80" type="line" smooth="yes"/>
      <point x="339" y="-164"/>
      <point x="249" y="-250"/>
      <point x="177" y="-250" type="qcurve" smooth="yes"/>
      <point x="126" y="-250"/>
      <point x="65" y="-198"/>
      <point x="65" y="-153" type="qcurve" smooth="yes"/>
      <point x="65" y="-104"/>
      <point x="146" y="-29"/>
      <point x="228" y="-4" type="qcurve"/>
      <point x="240" y="49" type="line"/>
      <point x="214" y="22"/>
      <point x="154" y="-6"/>
      <point x="120" y="-6" type="qcurve" smooth="yes"/>
      <point x="58" y="-6"/>
      <point x="-13" y="78"/>
      <point x="-13" y="155" type="qcurve" smooth="yes"/>
      <point x="-13" y="211"/>
      <point x="21" y="333"/>
      <point x="51" y="383" type="qcurve" smooth="yes"/>
      <point x="88" y="442"/>
      <point x="186" y="505"/>
      <point x="244" y="505" type="qcurve" smooth="yes"/>
      <point x="283" y="505"/>
      <point x="325" y="478"/>
      <point x="325" y="454" type="qcurve"/>
    </contour>
    <contour>
      <point x="275" y="443" type="qcurve" smooth="yes"/>
      <point x="220" y="443"/>
      <point x="135" y="259"/>
      <point x="135" y="169" type="qcurve" smooth="yes"/>
      <point x="135" y="130"/>
      <point x="157" y="91"/>
      <point x="185" y="91" type="qcurve" smooth="yes"/>
      <point x="209" y="91"/>
      <point x="256" y="135"/>
      <point x="265" y="169" type="qcurve"/>
      <point x="316" y="406" type="line"/>
      <point x="315" y="422"/>
      <point x="293" y="443"/>
    </contour>
    <contour>
      <point x="120" y="-139" type="qcurve" smooth="yes"/>
      <point x="120" y="-152"/>
      <point x="140" y="-172"/>
      <point x="154" y="-172" type="qcurve" smooth="yes"/>
      <point x="171" y="-172"/>
      <point x="203" y="-124"/>
      <point x="212" y="-83" type="qcurve"/>
      <point x="218" y="-54" type="line"/>
      <point x="168" y="-73"/>
      <point x="120" y="-114"/>
    </contour>
  </outline>
</glyph>
<glyph name="h" format="1">
  <advance width="505"/>
  <unicode hex="0068"/>
  <outline>
    <contour>
      <point x="266" y="238" type="qcurve" smooth="yes"/>
      <point x="280" y="295"/>
      <point x="288" y="345"/>
      <point x="288" y="362" type="qcurve" smooth="yes"/>
      <point x="288" y="387"/>
      <point x="269" y="413"/>
      <point x="251" y="413" type="qcurve" smooth="yes"/>
      <point x="227" y="413"/>
      <point x="182" y="356"/>
      <point x="175" y="325" type="qcurve"/>
      <point x="106" y="0" type="line"/>
      <point x="-38" y="0" type="line"/>
      <point x="107" y="680" type="line"/>
      <point x="255" y="700" type="line"/>
      <point x="201" y="448" type="line"/>
      <point x="226" y="476"/>
      <point x="284" y="504"/>
      <point x="318" y="504" type="qcurve" smooth="yes"/>
      <point x="371" y="504"/>
      <point x="429" y="446"/>
      <point x="429" y="391" type="qcurve" smooth="yes"/>
      <point x="429" y="368"/>
      <point x="418" y="305"/>
      <point x="402" y="240" type="qcurve" smooth="yes"/>
      <point x="389" y="189"/>
      <point x="381" y="147"/>
      <point x="381" y="133" type="qcurve" smooth="yes"/>
      <point x="381" y="112"/>
      <point x="401" y="91"/>
      <point x="421" y="91" type="qcurve" smooth="yes"/>
      <point x="446" y="91"/>
      <point x="482" y="125"/>
      <point x="505" y="179" type="qcurve"/>
      <point x="547" y="179" type="line"/>
      <point x="515" y="86"/>
      <point x="424" y="-6"/>
      <point x="361" y="-6" type="qcurve" smooth="yes"/>
      <point x="305" y="-6"/>
      <point x="243" y="55"/>
      <point x="243" y="107" type="qcurve" smooth="yes"/>
      <point x="243" y="125"/>
      <point x="252" y="179"/>
    </contour>
  </outline>
</glyph>
<glyph name="i" format="1">
  <advance width="267"/>
  <unicode hex="0069"/>
  <outline>
    <contour>
      <point x="167" y="554" type="qcurve" smooth="yes"/>
      <point x="134" y="554"/>
      <point x="88" y="600"/>
      <point x="88" y="633" type="qcurve" smooth="yes"/>
      <point x="88" y="666"/>
      <point x="134" y="713"/>
      <point x="167" y="713" type="qcurve" smooth="yes"/>
      <point x="200" y="713"/>
      <point x="247" y="666"/>
      <point x="247" y="633" type="qcurve" smooth="yes"/>
      <point x="247" y="600"/>
      <point x="200" y="554"/>
    </contour>
    <contour>
      <point x="0" y="179" type="qcurve"/>
      <point x="68" y="500" type="line"/>
      <point x="212" y="500" type="line"/>
      <point x="140" y="160" type="line" smooth="yes"/>
      <point x="138" y="151"/>
      <point x="136" y="136"/>
      <point x="136" y="128" type="qcurve" smooth="yes"/>
      <point x="136" y="108"/>
      <point x="155" y="91"/>
      <point x="177" y="91" type="qcurve" smooth="yes"/>
      <point x="205" y="91"/>
      <point x="255" y="140"/>
      <point x="267" y="179" type="qcurve"/>
      <point x="309" y="179" type="line"/>
      <point x="277" y="88"/>
      <point x="169" y="-6"/>
      <point x="99" y="-6" type="qcurve" smooth="yes"/>
      <point x="49" y="-6"/>
      <point x="-8" y="57"/>
      <point x="-8" y="114" type="qcurve" smooth="yes"/>
      <point x="-8" y="127"/>
      <point x="-4" y="160"/>
    </contour>
  </outline>
</glyph>
<glyph name="j" format="1">
  <advance width="240"/>
  <unicode hex="006A"/>
  <outline>
    <contour>
      <point x="-38" y="-4" type="qcurve"/>
      <point x="69" y="500" type="line"/>
      <point x="213" y="500" type="line"/>
      <point x="114" y="36" type="line"/>
      <point x="164" y="54"/>
      <point x="221" y="119"/>
      <point x="240" y="179" type="qcurve"/>
      <point x="282" y="179" type="line"/>
      <point x="259" y="103"/>
      <point x="174" y="11"/>
      <point x="105" y="-8" type="qcurve"/>
      <point x="90" y="-80" type="line" smooth="yes"/>
      <point x="72" y="-164"/>
      <point x="-18" y="-250"/>
      <point x="-90" y="-250" type="qcurve" smooth="yes"/>
      <point x="-141" y="-250"/>
      <point x="-202" y="-198"/>
      <point x="-202" y="-153" type="qcurve" smooth="yes"/>
      <point x="-202" y="-103"/>
      <point x="-120" y="-29"/>
    </contour>
    <contour>
      <point x="159" y="555" type="qcurve" smooth="yes"/>
      <point x="126" y="555"/>
      <point x="80" y="601"/>
      <point x="80" y="634" type="qcurve" smooth="yes"/>
      <point x="80" y="667"/>
      <point x="126" y="714"/>
      <point x="159" y="714" type="qcurve" smooth="yes"/>
      <point x="192" y="714"/>
      <point x="239" y="667"/>
      <point x="239" y="634" type="qcurve" smooth="yes"/>
      <point x="239" y="601"/>
      <point x="192" y="555"/>
    </contour>
    <contour>
      <point x="-147" y="-139" type="qcurve" smooth="yes"/>
      <point x="-147" y="-152"/>
      <point x="-127" y="-172"/>
      <point x="-113" y="-172" type="qcurve" smooth="yes"/>
      <point x="-96" y="-172"/>
      <point x="-64" y="-124"/>
      <point x="-55" y="-83" type="qcurve"/>
      <point x="-49" y="-54" type="line"/>
      <point x="-99" y="-73"/>
      <point x="-147" y="-114"/>
    </contour>
  </outline>
</glyph>
<glyph name="k" format="1">
  <advance width="518"/>
  <unicode hex="006B"/>
  <outline>
    <contour>
      <point x="180" y="348" type="line"/>
      <point x="373" y="500" type="line"/>
      <point x="472" y="500" type="line"/>
      <point x="272" y="361" type="line"/>
      <point x="286" y="363"/>
      <point x="299" y="365"/>
      <point x="305" y="365" type="qcurve" smooth="yes"/>
      <point x="356" y="365"/>
      <point x="415" y="301"/>
      <point x="415" y="248" type="qcurve" smooth="yes"/>
      <point x="415" y="238"/>
      <point x="413" y="219"/>
      <point x="411" y="210" type="qcurve"/>
      <point x="400" y="160" type="line" smooth="yes"/>
      <point x="398" y="148"/>
      <point x="395" y="132"/>
      <point x="395" y="128" type="qcurve" smooth="yes"/>
      <point x="395" y="109"/>
      <point x="414" y="91"/>
      <point x="434" y="91" type="qcurve" smooth="yes"/>
      <point x="459" y="91"/>
      <point x="495" y="125"/>
      <point x="518" y="179" type="qcurve"/>
      <point x="560" y="179" type="line"/>
      <point x="529" y="87"/>
      <point x="437" y="-6"/>
      <point x="376" y="-6" type="qcurve" smooth="yes"/>
      <point x="315" y="-6"/>
      <point x="250" y="53"/>
      <point x="250" y="108" type="qcurve" smooth="yes"/>
      <point x="250" y="120"/>
      <point x="253" y="146"/>
      <point x="256" y="160" type="qcurve"/>
      <point x="264" y="199" type="line" smooth="yes"/>
      <point x="266" y="208"/>
      <point x="268" y="226"/>
      <point x="268" y="236" type="qcurve" smooth="yes"/>
      <point x="268" y="260"/>
      <point x="250" y="284"/>
      <point x="232" y="284" type="qcurve" smooth="yes"/>
      <point x="217" y="284"/>
      <point x="182" y="267"/>
      <point x="158" y="247" type="qcurve"/>
      <point x="106" y="0" type="line"/>
      <point x="-38" y="0" type="line"/>
      <point x="107" y="680" type="line"/>
      <point x="255" y="700" type="line"/>
    </contour>
  </outline>
</glyph>
<glyph name="m" format="1">
  <advance width="752"/>
  <unicode hex="006D"/>
  <outline>
    <contour>
      <point x="513" y="238" type="qcurve" smooth="yes"/>
      <point x="527" y="295"/>
      <point x="535" y="345"/>
      <point x="535" y="362" type="qcurve" smooth="yes"/>
      <point x="535" y="387"/>
      <point x="517" y="413"/>
      <point x="499" y="413" type="qcurve" smooth="yes"/>
      <point x="475" y="413"/>
      <point x="434" y="364"/>
      <point x="421" y="321" type="qcurve"/>
      <point x="353" y="0" type="line"/>
      <point x="209" y="0" type="line"/>
      <point x="282" y="345" type="line" smooth="yes"/>
      <point x="284" y="351"/>
      <point x="285" y="363"/>
      <point x="285" y="370" type="qcurve" smooth="yes"/>
      <point x="285" y="390"/>
      <point x="269" y="414"/>
      <point x="255" y="414" type="qcurve" smooth="yes"/>
      <point x="229" y="414"/>
      <point x="187" y="365"/>
      <point x="174" y="321" type="qcurve"/>
      <point x="106" y="0" type="line"/>
      <point x="-38" y="0" type="line"/>
      <point x="68" y="500" type="line"/>
      <point x="212" y="500" type="line"/>
      <point x="201" y="448" type="line"/>
      <point x="226" y="477"/>
      <point x="286" y="505"/>
      <point x="323" y="505" type="qcurve" smooth="yes"/>
      <point x="367" y="505"/>
      <point x="418" y="462"/>
      <point x="426" y="419" type="qcurve"/>
      <point x="454" y="462"/>
      <point x="522" y="504"/>
      <point x="565" y="504" type="qcurve" smooth="yes"/>
      <point x="618" y="504"/>
      <point x="676" y="446"/>
      <point x="676" y="391" type="qcurve" smooth="yes"/>
      <point x="676" y="368"/>
      <point x="665" y="305"/>
      <point x="649" y="240" type="qcurve" smooth="yes"/>
      <point x="636" y="189"/>
      <point x="628" y="147"/>
      <point x="628" y="133" type="qcurve" smooth="yes"/>
      <point x="628" y="112"/>
      <point x="648" y="91"/>
      <point x="668" y="91" type="qcurve" smooth="yes"/>
      <point x="693" y="91"/>
      <point x="729" y="125"/>
      <point x="752" y="179" type="qcurve"/>
      <point x="794" y="179" type="line"/>
      <point x="762" y="86"/>
      <point x="671" y="-6"/>
      <point x="608" y="-6" type="qcurve" smooth="yes"/>
      <point x="552" y="-6"/>
      <point x="490" y="55"/>
      <point x="490" y="107" type="qcurve" smooth="yes"/>
      <point x="490" y="125"/>
      <point x="499" y="179"/>
    </contour>
  </outline>
</glyph>
<glyph name="o" format="1">
  <advance width="439"/>
  <unicode hex="006F"/>
  <outline>
    <contour>
      <point x="55" y="389" type="qcurve" smooth="yes"/>
      <point x="92" y="448"/>
      <point x="196" y="509"/>
      <point x="260" y="509" type="qcurve" smooth="yes"/>
      <point x="324" y="509"/>
      <point x="388" y="429"/>
      <point x="388" y="349" type="qcurve"/>
      <point x="390" y="348"/>
      <point x="395" y="347"/>
      <point x="399" y="347" type="qcurve" smooth="yes"/>
      <point x="430" y="347"/>
      <point x="516" y="381"/>
      <point x="553" y="407" type="qcurve"/>
      <point x="562" y="380" type="line"/>
      <point x="534" y="350"/>
      <point x="441" y="306"/>
      <point x="385" y="297" type="qcurve"/>
      <point x="373" y="162"/>
      <point x="241" y="-4"/>
      <point x="146" y="-4" type="qcurve" smooth="yes"/>
      <point x="68" y="-4"/>
      <point x="-14" y="76"/>
      <point x="-14" y="154" type="qcurve" smooth="yes"/>
      <point x="-14" y="211"/>
      <point x="23" y="339"/>
    </contour>
    <contour>
      <point x="135" y="167" type="qcurve" smooth="yes"/>
      <point x="135" y="120"/>
      <point x="156" y="86"/>
      <point x="186" y="86" type="qcurve" smooth="yes"/>
      <point x="223" y="86"/>
      <point x="290" y="206"/>
      <point x="302" y="294" type="qcurve"/>
      <point x="288" y="297"/>
      <point x="275" y="318"/>
      <point x="275" y="336" type="qcurve" smooth="yes"/>
      <point x="275" y="355"/>
      <point x="291" y="383"/>
      <point x="306" y="390" type="qcurve"/>
      <point x="304" y="422"/>
      <point x="287" y="448"/>
      <point x="268" y="448" type="qcurve" smooth="yes"/>
      <point x="220" y="448"/>
      <point x="135" y="254"/>
    </contour>
  </outline>
</glyph>
<glyph name="p" format="1">
  <advance width="468"/>
  <unicode hex="0070"/>
  <outline>
    <contour>
      <point x="-91" y="-250" type="line"/>
      <point x="76" y="537" type="line"/>
      <point x="220" y="537" type="line"/>
      <point x="204" y="462" type="line"/>
      <point x="229" y="483"/>
      <point x="287" y="505"/>
      <point x="321" y="505" type="qcurve" smooth="yes"/>
      <point x="381" y="505"/>
      <point x="443" y="425"/>
      <point x="443" y="347" type="qcurve" smooth="yes"/>
      <point x="443" y="194"/>
      <point x="312" y="-6"/>
      <point x="197" y="-6" type="qcurve" smooth="yes"/>
      <point x="165" y="-6"/>
      <point x="122" y="12"/>
      <point x="112" y="30" type="qcurve"/>
      <point x="60" y="-214" type="line"/>
    </contour>
    <contour>
      <point x="166" y="81" type="qcurve" smooth="yes"/>
      <point x="229" y="81"/>
      <point x="306" y="243"/>
      <point x="306" y="350" type="qcurve" smooth="yes"/>
      <point x="306" y="391"/>
      <point x="282" y="433"/>
      <point x="256" y="433" type="qcurve" smooth="yes"/>
      <point x="238" y="433"/>
      <point x="200" y="406"/>
      <point x="187" y="384" type="qcurve"/>
      <point x="128" y="104" type="line"/>
      <point x="132" y="93"/>
      <point x="152" y="81"/>
    </contour>
  </outline>
</glyph>
<glyph name="q" format="1">
  <advance width="486"/>
  <unicode hex="0071"/>
  <outline>
    <contour>
      <point x="325" y="452" type="qcurve"/>
      <point x="335" y="500" type="line"/>
      <point x="479" y="500" type="line"/>
      <point x="327" y="-214" type="line"/>
      <point x="176" y="-250" type="line"/>
      <point x="239" y="49" type="line"/>
      <point x="213" y="22"/>
      <point x="154" y="-6"/>
      <point x="120" y="-6" type="qcurve" smooth="yes"/>
      <point x="58" y="-6"/>
      <point x="-13" y="78"/>
      <point x="-13" y="155" type="qcurve" smooth="yes"/>
      <point x="-13" y="211"/>
      <point x="21" y="333"/>
      <point x="51" y="383" type="qcurve" smooth="yes"/>
      <point x="88" y="442"/>
      <point x="186" y="505"/>
      <point x="244" y="505" type="qcurve" smooth="yes"/>
      <point x="283" y="505"/>
      <point x="325" y="478"/>
    </contour>
    <contour>
      <point x="275" y="443" type="qcurve" smooth="yes"/>
      <point x="220" y="443"/>
      <point x="135" y="259"/>
      <point x="135" y="169" type="qcurve" smooth="yes"/>
      <point x="135" y="130"/>
      <point x="157" y="91"/>
      <point x="185" y="91" type="qcurve" smooth="yes"/>
      <point x="208" y="91"/>
      <point x="252" y="131"/>
      <point x="263" y="162" type="qcurve"/>
      <point x="316" y="409" type="line"/>
      <point x="314" y="424"/>
      <point x="292" y="443"/>
    </contour>
  </outline>
</glyph>
<glyph name="r" format="1">
  <advance width="376"/>
  <unicode hex="0072"/>
  <outline>
    <contour>
      <point x="-38" y="0" type="line"/>
      <point x="68" y="500" type="line"/>
      <point x="212" y="500" type="line"/>
      <point x="199" y="438" type="line"/>
      <point x="243" y="475"/>
      <point x="294" y="500"/>
      <point x="320" y="500" type="qcurve" smooth="yes"/>
      <point x="351" y="500"/>
      <point x="389" y="457"/>
      <point x="389" y="425" type="qcurve" smooth="yes"/>
      <point x="389" y="394"/>
      <point x="349" y="352"/>
      <point x="317" y="352" type="qcurve" smooth="yes"/>
      <point x="300" y="352"/>
      <point x="281" y="368"/>
      <point x="277" y="393" type="qcurve" smooth="yes"/>
      <point x="274" y="409"/>
      <point x="266" y="418"/>
      <point x="259" y="418" type="qcurve" smooth="yes"/>
      <point x="242" y="418"/>
      <point x="212" y="404"/>
      <point x="186" y="380" type="qcurve"/>
      <point x="106" y="0" type="line"/>
    </contour>
  </outline>
</glyph>
<glyph name="t" format="1">
  <advance width="267"/>
  <unicode hex="0074"/>
  <outline>
    <contour>
      <point x="68" y="500" type="line"/>
      <point x="98" y="638" type="line"/>
      <point x="246" y="658" type="line"/>
      <point x="212" y="500" type="line"/>
      <point x="272" y="500" type="line"/>
      <point x="264" y="460" type="line"/>
      <point x="204" y="460" type="line"/>
      <point x="140" y="160" type="line" smooth="yes"/>
      <point x="138" y="151"/>
      <point x="136" y="136"/>
      <point x="136" y="128" type="qcurve" smooth="yes"/>
      <point x="136" y="108"/>
      <point x="155" y="91"/>
      <point x="177" y="91" type="qcurve" smooth="yes"/>
      <point x="205" y="91"/>
      <point x="255" y="140"/>
      <point x="267" y="179" type="qcurve"/>
      <point x="309" y="179" type="line"/>
      <point x="277" y="88"/>
      <point x="169" y="-6"/>
      <point x="99" y="-6" type="qcurve" smooth="yes"/>
      <point x="49" y="-6"/>
      <point x="-8" y="57"/>
      <point x="-8" y="114" type="qcurve" smooth="yes"/>
      <point x="-8" y="127"/>
      <point x="-4" y="160"/>
      <point x="0" y="179" type="qcurve"/>
      <point x="60" y="460" type="line"/>
      <point x="27" y="460" type="line"/>
      <point x="35" y="500" type="line"/>
    </contour>
  </outline>
</glyph>
<glyph name="v" format="1">
  <advance width="414"/>
  <unicode hex="0076"/>
  <outline>
    <contour>
      <point x="274" y="466" type="qcurve" smooth="yes"/>
      <point x="274" y="491"/>
      <point x="307" y="520"/>
      <point x="336" y="520" type="qcurve" smooth="yes"/>
      <point x="367" y="520"/>
      <point x="399" y="474"/>
      <point x="399" y="433" type="qcurve" smooth="yes"/>
      <point x="399" y="365"/>
      <point x="364" y="216"/>
      <point x="334" y="155" type="qcurve" smooth="yes"/>
      <point x="294" y="76"/>
      <point x="182" y="-6"/>
      <point x="114" y="-6" type="qcurve" smooth="yes"/>
      <point x="55" y="-6"/>
      <point x="-9" y="55"/>
      <point x="-9" y="112" type="qcurve" smooth="yes"/>
      <point x="-9" y="123"/>
      <point x="-6" y="148"/>
      <point x="-4" y="160" type="qcurve"/>
      <point x="68" y="500" type="line"/>
      <point x="212" y="500" type="line"/>
      <point x="140" y="160" type="line" smooth="yes"/>
      <point x="138" y="149"/>
      <point x="135" y="130"/>
      <point x="135" y="124" type="qcurve" smooth="yes"/>
      <point x="135" y="108"/>
      <point x="152" y="91"/>
      <point x="169" y="91" type="qcurve" smooth="yes"/>
      <point x="204" y="91"/>
      <point x="271" y="164"/>
      <point x="298" y="231" type="qcurve" smooth="yes"/>
      <point x="318" y="279"/>
      <point x="342" y="385"/>
      <point x="342" y="425" type="qcurve"/>
      <point x="340" y="421"/>
      <point x="319" y="415"/>
      <point x="310" y="415" type="qcurve" smooth="yes"/>
      <point x="294" y="415"/>
      <point x="274" y="446"/>
    </contour>
  </outline>
</glyph>
<glyph name="w" format="1">
  <advance width="661"/>
  <unicode hex="0077"/>
  <outline>
    <contour>
      <point x="0" y="179" type="qcurve"/>
      <point x="68" y="500" type="line"/>
      <point x="212" y="500" type="line"/>
      <point x="140" y="160" type="line" smooth="yes"/>
      <point x="139" y="154"/>
      <point x="137" y="141"/>
      <point x="137" y="135" type="qcurve" smooth="yes"/>
      <point x="137" y="114"/>
      <point x="152" y="91"/>
      <point x="167" y="91" type="qcurve" smooth="yes"/>
      <point x="193" y="91"/>
      <point x="234" y="136"/>
      <point x="247" y="179" type="qcurve"/>
      <point x="315" y="500" type="line"/>
      <point x="459" y="500" type="line"/>
      <point x="387" y="160" type="line" smooth="yes"/>
      <point x="385" y="149"/>
      <point x="382" y="130"/>
      <point x="382" y="124" type="qcurve" smooth="yes"/>
      <point x="382" y="108"/>
      <point x="399" y="91"/>
      <point x="416" y="91" type="qcurve" smooth="yes"/>
      <point x="451" y="91"/>
      <point x="518" y="164"/>
      <point x="545" y="231" type="qcurve" smooth="yes"/>
      <point x="565" y="279"/>
      <point x="589" y="385"/>
      <point x="589" y="425" type="qcurve"/>
      <point x="587" y="421"/>
      <point x="566" y="415"/>
      <point x="557" y="415" type="qcurve" smooth="yes"/>
      <point x="541" y="415"/>
      <point x="521" y="446"/>
      <point x="521" y="466" type="qcurve" smooth="yes"/>
      <point x="521" y="491"/>
      <point x="554" y="520"/>
      <point x="583" y="520" type="qcurve" smooth="yes"/>
      <point x="614" y="520"/>
      <point x="646" y="474"/>
      <point x="646" y="433" type="qcurve" smooth="yes"/>
      <point x="646" y="365"/>
      <point x="611" y="216"/>
      <point x="581" y="155" type="qcurve" smooth="yes"/>
      <point x="541" y="76"/>
      <point x="429" y="-6"/>
      <point x="361" y="-6" type="qcurve" smooth="yes"/>
      <point x="311" y="-6"/>
      <point x="250" y="37"/>
      <point x="241" y="78" type="qcurve"/>
      <point x="212" y="36"/>
      <point x="143" y="-6"/>
      <point x="99" y="-6" type="qcurve" smooth="yes"/>
      <point x="49" y="-6"/>
      <point x="-8" y="57"/>
      <point x="-8" y="114" type="qcurve" smooth="yes"/>
      <point x="-8" y="127"/>
      <point x="-4" y="160"/>
    </contour>
  </outline>
</glyph>
<glyph name="x" format="1">
  <advance width="522"/>
  <unicode hex="0078"/>
  <outline>
    <contour>
      <point x="500" y="466" type="qcurve" smooth="yes"/>
      <point x="500" y="429"/>
      <point x="452" y="348"/>
      <point x="361" y="248" type="qcurve"/>
      <point x="370" y="178" type="line" smooth="yes"/>
      <point x="376" y="132"/>
      <point x="404" y="91"/>
      <point x="432" y="91" type="qcurve" smooth="yes"/>
      <point x="460" y="91"/>
      <point x="510" y="140"/>
      <point x="522" y="179" type="qcurve"/>
      <point x="564" y="179" type="line"/>
      <point x="533" y="89"/>
      <point x="427" y="-6"/>
      <point x="360" y="-6" type="qcurve" smooth="yes"/>
      <point x="313" y="-6"/>
      <point x="252" y="81"/>
      <point x="238" y="168" type="qcurve"/>
      <point x="100" y="0" type="line"/>
      <point x="28" y="0" type="line"/>
      <point x="230" y="228" type="line"/>
      <point x="214" y="340" type="line" smooth="yes"/>
      <point x="207" y="386"/>
      <point x="191" y="423"/>
      <point x="176" y="423" type="qcurve" smooth="yes"/>
      <point x="141" y="423"/>
      <point x="65" y="288"/>
      <point x="42" y="179" type="qcurve"/>
      <point x="0" y="179" type="line"/>
      <point x="32" y="333"/>
      <point x="155" y="505"/>
      <point x="236" y="505" type="qcurve" smooth="yes"/>
      <point x="282" y="505"/>
      <point x="337" y="444"/>
      <point x="344" y="386" type="qcurve"/>
      <point x="353" y="310" type="line"/>
      <point x="398" y="361"/>
      <point x="439" y="428"/>
      <point x="440" y="454" type="qcurve"/>
      <point x="433" y="453"/>
      <point x="426" y="452"/>
      <point x="423" y="452" type="qcurve" smooth="yes"/>
      <point x="400" y="452"/>
      <point x="376" y="481"/>
      <point x="376" y="508" type="qcurve" smooth="yes"/>
      <point x="376" y="531"/>
      <point x="413" y="557"/>
      <point x="444" y="557" type="qcurve" smooth="yes"/>
      <point x="469" y="557"/>
      <point x="500" y="504"/>
    </contour>
  </outline>
</glyph>
<glyph name="braceleft" format="1">
  <advance width="352"/>
  <unicode hex="007B"/>
  <outline>
    <contour>
      <point x="340" y="750" type="qcurve"/>
      <point x="383" y="750" type="line"/>
      <point x="374" y="700" type="line"/>
      <point x="333" y="700"/>
      <point x="296" y="688"/>
      <point x="283" y="674" type="qcurve" smooth="yes"/>
      <point x="260" y="648"/>
      <point x="238" y="584"/>
      <point x="237" y="536" type="qcurve"/>
      <point x="243" y="365" type="line"/>
      <point x="242" y="324"/>
      <point x="222" y="270"/>
      <point x="203" y="254" type="qcurve"/>
      <point x="209" y="247"/>
      <point x="215" y="229"/>
      <point x="215" y="218" type="qcurve" smooth="yes"/>
      <point x="215" y="195"/>
      <point x="193" y="130"/>
      <point x="158" y="57" type="qcurve" smooth="yes"/>
      <point x="120" y="-23"/>
      <point x="96" y="-97"/>
      <point x="96" y="-124" type="qcurve" smooth="yes"/>
      <point x="96" y="-164"/>
      <point x="139" y="-204"/>
      <point x="181" y="-204" type="qcurve"/>
      <point x="172" y="-249" type="line"/>
      <point x="163" y="-249" type="line" smooth="yes"/>
      <point x="104" y="-249"/>
      <point x="64" y="-231"/>
      <point x="49" y="-207" type="qcurve" smooth="yes"/>
      <point x="39" y="-193"/>
      <point x="30" y="-159"/>
      <point x="30" y="-140" type="qcurve" smooth="yes"/>
      <point x="30" y="-112"/>
      <point x="51" y="-45"/>
      <point x="87" y="27" type="qcurve" smooth="yes"/>
      <point x="117" y="86"/>
      <point x="141" y="148"/>
      <point x="147" y="175" type="qcurve" smooth="yes"/>
      <point x="148" y="181"/>
      <point x="150" y="192"/>
      <point x="150" y="197" type="qcurve" smooth="yes"/>
      <point x="150" y="213"/>
      <point x="130" y="228"/>
      <point x="109" y="228" type="qcurve" smooth="yes"/>
      <point x="103" y="228"/>
      <point x="87" y="227"/>
      <point x="77" y="225" type="qcurve"/>
      <point x="89" y="282" type="line"/>
      <point x="98" y="280"/>
      <point x="113" y="279"/>
      <point x="120" y="279" type="qcurve" smooth="yes"/>
      <point x="154" y="279"/>
      <point x="187" y="328"/>
      <point x="187" y="390" type="qcurve" smooth="yes"/>
      <point x="187" y="405"/>
      <point x="186" y="439"/>
      <point x="183" y="473" type="qcurve" smooth="yes"/>
      <point x="181" y="504"/>
      <point x="180" y="536"/>
      <point x="180" y="549" type="qcurve" smooth="yes"/>
      <point x="180" y="631"/>
      <point x="267" y="750"/>
    </contour>
  </outline>
</glyph>
<glyph name="bar" format="1">
  <advance width="532"/>
  <unicode hex="007C"/>
  <outline>
    <contour>
      <point x="219" y="751" type="line"/>
      <point x="312" y="751" type="line"/>
      <point x="312" y="-250" type="line"/>
      <point x="219" y="-250" type="line"/>
    </contour>
  </outline>
</glyph>
<glyph name="braceright" format="1">
  <advance width="352"/>
  <unicode hex="007D"/>
  <outline>
    <contour>
      <point x="73" y="-249" type="qcurve"/>
      <point x="30" y="-249" type="line"/>
      <point x="39" y="-199" type="line"/>
      <point x="80" y="-199"/>
      <point x="117" y="-187"/>
      <point x="130" y="-173" type="qcurve" smooth="yes"/>
      <point x="153" y="-147"/>
      <point x="175" y="-83"/>
      <point x="176" y="-35" type="qcurve"/>
      <point x="170" y="136" type="line"/>
      <point x="171" y="177"/>
      <point x="191" y="231"/>
      <point x="210" y="247" type="qcurve"/>
      <point x="204" y="254"/>
      <point x="198" y="272"/>
      <point x="198" y="283" type="qcurve" smooth="yes"/>
      <point x="198" y="306"/>
      <point x="220" y="371"/>
      <point x="255" y="444" type="qcurve" smooth="yes"/>
      <point x="293" y="524"/>
      <point x="317" y="598"/>
      <point x="317" y="625" type="qcurve" smooth="yes"/>
      <point x="317" y="665"/>
      <point x="274" y="705"/>
      <point x="232" y="705" type="qcurve"/>
      <point x="241" y="750" type="line"/>
      <point x="250" y="750" type="line" smooth="yes"/>
      <point x="309" y="750"/>
      <point x="349" y="732"/>
      <point x="364" y="708" type="qcurve" smooth="yes"/>
      <point x="374" y="694"/>
      <point x="383" y="660"/>
      <point x="383" y="641" type="qcurve" smooth="yes"/>
      <point x="383" y="613"/>
      <point x="362" y="546"/>
      <point x="326" y="474" type="qcurve" smooth="yes"/>
      <point x="296" y="415"/>
      <point x="272" y="353"/>
      <point x="266" y="326" type="qcurve" smooth="yes"/>
      <point x="265" y="320"/>
      <point x="263" y="309"/>
      <point x="263" y="304" type="qcurve" smooth="yes"/>
      <point x="263" y="288"/>
      <point x="283" y="273"/>
      <point x="304" y="273" type="qcurve" smooth="yes"/>
      <point x="310" y="273"/>
      <point x="326" y="274"/>
      <point x="336" y="276" type="qcurve"/>
      <point x="324" y="219" type="line"/>
      <point x="315" y="221"/>
      <point x="300" y="222"/>
      <point x="293" y="222" type="qcurve" smooth="yes"/>
      <point x="259" y="222"/>
      <point x="226" y="173"/>
      <point x="226" y="111" type="qcurve" smooth="yes"/>
      <point x="226" y="96"/>
      <point x="227" y="62"/>
      <point x="230" y="29" type="qcurve" smooth="yes"/>
      <point x="232" y="-3"/>
      <point x="233" y="-35"/>
      <point x="233" y="-48" type="qcurve" smooth="yes"/>
      <point x="233" y="-130"/>
      <point x="146" y="-249"/>
    </contour>
  </outline>
</glyph>
<glyph name="asciitilde" format="1">
  <advance width="431"/>
  <unicode hex="007E"/>
  <outline>
    <contour>
      <point x="381" y="647" type="qcurve" smooth="yes"/>
      <point x="400" y="647"/>
      <point x="434" y="659"/>
      <point x="444" y="670" type="qcurve"/>
      <point x="450" y="669" type="line"/>
      <point x="441" y="631"/>
      <point x="343" y="569"/>
      <point x="289" y="569" type="qcurve" smooth="yes"/>
      <point x="271" y="569"/>
      <point x="232" y="577"/>
      <point x="197" y="589" type="qcurve" smooth="yes"/>
      <point x="166" y="599"/>
      <point x="135" y="606"/>
      <point x="121" y="606" type="qcurve" smooth="yes"/>
      <point x="102" y="606"/>
      <point x="69" y="593"/>
      <point x="55" y="580" type="qcurve"/>
      <point x="49" y="582" type="line"/>
      <point x="73" y="630"/>
      <point x="159" y="680"/>
      <point x="216" y="680" type="qcurve" smooth="yes"/>
      <point x="236" y="680"/>
      <point x="275" y="673"/>
      <point x="308" y="662" type="qcurve" smooth="yes"/>
      <point x="337" y="653"/>
      <point x="366" y="647"/>
    </contour>
  </outline>
</glyph>
<glyph name="exclamdown" format="1">
  <advance width="219"/>
  <unicode hex="00A1"/>
  <outline>
    <contour>
      <point x="-61" y="-248" type="line"/>
      <point x="69" y="221" type="line"/>
      <point x="154" y="221" type="line"/>
      <point x="83" y="-248" type="line"/>
    </contour>
    <contour>
      <point x="138" y="293" type="qcurve" smooth="yes"/>
      <point x="105" y="293"/>
      <point x="59" y="339"/>
      <point x="59" y="372" type="qcurve"/>
      <point x="59" y="405"/>
      <point x="105" y="452"/>
      <point x="138" y="452" type="qcurve" smooth="yes"/>
      <point x="171" y="452"/>
      <point x="218" y="405"/>
      <point x="218" y="372" type="qcurve" smooth="yes"/>
      <point x="218" y="339"/>
      <point x="171" y="293"/>
    </contour>
  </outline>
</glyph>
<glyph name="cent" format="1">
  <advance width="403"/>
  <unicode hex="00A2"/>
  <outline>
    <contour>
      <point x="154" y="-27" type="line"/>
      <point x="127" y="-27" type="line"/>
      <point x="158" y="146" type="line"/>
      <point x="101" y="154"/>
      <point x="31" y="246"/>
      <point x="31" y="316" type="qcurve" smooth="yes"/>
      <point x="31" y="427"/>
      <point x="145" y="582"/>
      <point x="239" y="595" type="qcurve"/>
      <point x="261" y="718" type="line"/>
      <point x="319" y="718" type="line"/>
      <point x="292" y="596" type="line"/>
      <point x="336" y="593"/>
      <point x="382" y="559"/>
      <point x="382" y="528" type="qcurve" smooth="yes"/>
      <point x="382" y="519"/>
      <point x="380" y="504"/>
      <point x="377" y="495" type="qcurve"/>
      <point x="320" y="495" type="line"/>
      <point x="323" y="505"/>
      <point x="325" y="518"/>
      <point x="325" y="523" type="qcurve" smooth="yes"/>
      <point x="325" y="540"/>
      <point x="306" y="557"/>
      <point x="288" y="557" type="qcurve"/>
      <point x="283" y="557" type="line"/>
      <point x="207" y="214" type="line"/>
      <point x="210" y="213"/>
      <point x="215" y="213"/>
      <point x="222" y="213" type="qcurve" smooth="yes"/>
      <point x="250" y="213"/>
      <point x="306" y="239"/>
      <point x="354" y="281" type="qcurve"/>
      <point x="343" y="215"/>
      <point x="263" y="148"/>
      <point x="192" y="145" type="qcurve"/>
    </contour>
    <contour>
      <point x="136" y="319" type="qcurve" smooth="yes"/>
      <point x="136" y="291"/>
      <point x="156" y="242"/>
      <point x="173" y="229" type="qcurve"/>
      <point x="228" y="534" type="line"/>
      <point x="188" y="503"/>
      <point x="136" y="380"/>
    </contour>
  </outline>
</glyph>
<glyph name="sterling" format="1">
  <advance width="465"/>
  <unicode hex="00A3"/>
  <outline>
    <contour>
      <point x="357" y="400" type="qcurve" smooth="yes"/>
      <point x="376" y="400"/>
      <point x="410" y="412"/>
      <point x="420" y="423" type="qcurve"/>
      <point x="426" y="422" type="line"/>
      <point x="417" y="384"/>
      <point x="319" y="322"/>
      <point x="265" y="322" type="qcurve"/>
      <point x="249" y="322" type="line"/>
      <point x="193" y="91" type="line"/>
      <point x="208" y="93"/>
      <point x="290" y="95"/>
      <point x="316" y="102" type="qcurve" smooth="yes"/>
      <point x="343" y="109"/>
      <point x="398" y="136"/>
      <point x="427" y="158" type="qcurve"/>
      <point x="419" y="86"/>
      <point x="363" y="0"/>
      <point x="323" y="0" type="qcurve"/>
      <point x="28" y="0" type="line"/>
      <point x="114" y="358" type="line"/>
      <point x="112" y="358"/>
      <point x="100" y="359"/>
      <point x="97" y="359" type="qcurve" smooth="yes"/>
      <point x="78" y="359"/>
      <point x="45" y="346"/>
      <point x="31" y="333" type="qcurve"/>
      <point x="25" y="335" type="line"/>
      <point x="41" y="368"/>
      <point x="95" y="413"/>
      <point x="130" y="424" type="qcurve"/>
      <point x="202" y="719" type="line"/>
      <point x="352" y="750" type="line"/>
      <point x="272" y="419" type="line"/>
      <point x="316" y="405"/>
      <point x="344" y="400"/>
    </contour>
  </outline>
</glyph>
<glyph name="currency" format="1">
  <advance width="500"/>
  <unicode hex="00A4"/>
  <outline>
    <contour>
      <point x="125" y="435" type="qcurve"/>
      <point x="68" y="492" type="line"/>
      <point x="106" y="528" type="line"/>
      <point x="162" y="472" type="line"/>
      <point x="182" y="487"/>
      <point x="228" y="502"/>
      <point x="253" y="502" type="qcurve" smooth="yes"/>
      <point x="277" y="502"/>
      <point x="322" y="487"/>
      <point x="342" y="473" type="qcurve"/>
      <point x="398" y="529" type="line"/>
      <point x="434" y="493" type="line"/>
      <point x="379" y="438" type="line"/>
      <point x="394" y="418"/>
      <point x="409" y="371"/>
      <point x="409" y="346" type="qcurve" smooth="yes"/>
      <point x="409" y="321"/>
      <point x="394" y="275"/>
      <point x="379" y="255" type="qcurve"/>
      <point x="434" y="200" type="line"/>
      <point x="398" y="164" type="line"/>
      <point x="343" y="219" type="line"/>
      <point x="323" y="205"/>
      <point x="277" y="190"/>
      <point x="253" y="190" type="qcurve" smooth="yes"/>
      <point x="228" y="190"/>
      <point x="181" y="205"/>
      <point x="161" y="220" type="qcurve"/>
      <point x="105" y="164" type="line"/>
      <point x="69" y="200" type="line"/>
      <point x="125" y="256" type="line"/>
      <point x="111" y="276"/>
      <point x="96" y="321"/>
      <point x="96" y="345" type="qcurve" smooth="yes"/>
      <point x="96" y="369"/>
      <point x="111" y="415"/>
    </contour>
    <contour>
      <point x="353" y="346" type="qcurve" smooth="yes"/>
      <point x="353" y="387"/>
      <point x="294" y="446"/>
      <point x="253" y="446" type="qcurve" smooth="yes"/>
      <point x="212" y="446"/>
      <point x="153" y="387"/>
      <point x="153" y="346" type="qcurve" smooth="yes"/>
      <point x="153" y="305"/>
      <point x="212" y="246"/>
      <point x="253" y="246" type="qcurve" smooth="yes"/>
      <point x="294" y="246"/>
      <point x="353" y="305"/>
    </contour>
  </outline>
</glyph>
<glyph name="yen" format="1">
  <advance width="474"/>
  <unicode hex="00A5"/>
  <outline>
    <contour>
      <point x="510" y="750" type="line"/>
      <point x="314" y="307" type="line"/>
      <point x="445" y="307" type="line"/>
      <point x="431" y="257" type="line"/>
      <point x="303" y="257" type="line"/>
      <point x="289" y="192" type="line"/>
      <point x="420" y="192" type="line"/>
      <point x="406" y="142" type="line"/>
      <point x="278" y="142" type="line"/>
      <point x="248" y="0" type="line"/>
      <point x="88" y="0" type="line"/>
      <point x="118" y="142" type="line"/>
      <point x="19" y="142" type="line"/>
      <point x="33" y="192" type="line"/>
      <point x="129" y="192" type="line"/>
      <point x="143" y="257" type="line"/>
      <point x="44" y="257" type="line"/>
      <point x="58" y="307" type="line"/>
      <point x="154" y="307" type="line"/>
      <point x="42" y="750" type="line"/>
      <point x="206" y="750" type="line"/>
      <point x="294" y="389" type="line"/>
      <point x="444" y="750" type="line"/>
    </contour>
  </outline>
</glyph>
<glyph name="section" format="1">
  <advance width="542"/>
  <unicode hex="00A7"/>
  <outline>
    <contour>
      <point x="395" y="750" type="qcurve" smooth="yes"/>
      <point x="457" y="750"/>
      <point x="525" y="701"/>
      <point x="525" y="655" type="qcurve" smooth="yes"/>
      <point x="525" y="619"/>
      <point x="489" y="574"/>
      <point x="459" y="574" type="qcurve" smooth="yes"/>
      <point x="448" y="574"/>
      <point x="429" y="582"/>
      <point x="422" y="590" type="qcurve"/>
      <point x="438" y="599"/>
      <point x="458" y="638"/>
      <point x="458" y="659" type="qcurve" smooth="yes"/>
      <point x="458" y="683"/>
      <point x="428" y="713"/>
      <point x="402" y="713" type="qcurve" smooth="yes"/>
      <point x="363" y="713"/>
      <point x="308" y="650"/>
      <point x="308" y="606" type="qcurve" smooth="yes"/>
      <point x="308" y="575"/>
      <point x="341" y="522"/>
      <point x="396" y="478" type="qcurve" smooth="yes"/>
      <point x="463" y="425"/>
      <point x="506" y="349"/>
      <point x="506" y="303" type="qcurve" smooth="yes"/>
      <point x="506" y="241"/>
      <point x="442" y="146"/>
      <point x="390" y="136" type="qcurve"/>
      <point x="390" y="47"/>
      <point x="275" y="-54"/>
      <point x="173" y="-54" type="qcurve" smooth="yes"/>
      <point x="93" y="-54"/>
      <point x="8" y="13"/>
      <point x="8" y="77" type="qcurve" smooth="yes"/>
      <point x="8" y="131"/>
      <point x="63" y="200"/>
      <point x="104" y="200" type="qcurve" smooth="yes"/>
      <point x="125" y="200"/>
      <point x="160" y="179"/>
      <point x="183" y="150" type="qcurve"/>
      <point x="139" y="146"/>
      <point x="102" y="112"/>
      <point x="102" y="74" type="qcurve" smooth="yes"/>
      <point x="102" y="33"/>
      <point x="141" y="-4"/>
      <point x="184" y="-4" type="qcurve" smooth="yes"/>
      <point x="223" y="-4"/>
      <point x="264" y="45"/>
      <point x="264" y="93" type="qcurve" smooth="yes"/>
      <point x="264" y="138"/>
      <point x="226" y="213"/>
      <point x="166" y="265" type="qcurve" smooth="yes"/>
      <point x="115" y="310"/>
      <point x="84" y="366"/>
      <point x="84" y="398" type="qcurve" smooth="yes"/>
      <point x="84" y="443"/>
      <point x="140" y="517"/>
      <point x="188" y="535" type="qcurve"/>
      <point x="185" y="546"/>
      <point x="183" y="567"/>
      <point x="183" y="577" type="qcurve" smooth="yes"/>
      <point x="183" y="655"/>
      <point x="304" y="750"/>
    </contour>
    <contour>
      <point x="384" y="183" type="qcurve"/>
      <point x="393" y="194"/>
      <point x="403" y="227"/>
      <point x="403" y="246" type="qcurve" smooth="yes"/>
      <point x="403" y="284"/>
      <point x="363" y="349"/>
      <point x="298" y="400" type="qcurve" smooth="yes"/>
      <point x="257" y="432"/>
      <point x="221" y="468"/>
      <point x="209" y="486" type="qcurve"/>
      <point x="199" y="481"/>
      <point x="190" y="463"/>
      <point x="190" y="451" type="qcurve" smooth="yes"/>
      <point x="190" y="430"/>
      <point x="218" y="388"/>
      <point x="265" y="346" type="qcurve" smooth="yes"/>
      <point x="327" y="293"/>
      <point x="375" y="222"/>
    </contour>
  </outline>
</glyph>
<glyph name="dieresis" format="1">
  <advance width="392"/>
  <unicode hex="00A8"/>
  <outline>
    <contour>
      <point x="117" y="573" type="qcurve" smooth="yes"/>
      <point x="92" y="573"/>
      <point x="56" y="609"/>
      <point x="56" y="634" type="qcurve" smooth="yes"/>
      <point x="56" y="659"/>
      <point x="92" y="695"/>
      <point x="117" y="695" type="qcurve" smooth="yes"/>
      <point x="142" y="695"/>
      <point x="178" y="659"/>
      <point x="178" y="634" type="qcurve" smooth="yes"/>
      <point x="178" y="609"/>
      <point x="142" y="573"/>
    </contour>
    <contour>
      <point x="297" y="573" type="qcurve" smooth="yes"/>
      <point x="272" y="573"/>
      <point x="236" y="609"/>
      <point x="236" y="634" type="qcurve" smooth="yes"/>
      <point x="236" y="659"/>
      <point x="272" y="695"/>
      <point x="297" y="695" type="qcurve" smooth="yes"/>
      <point x="322" y="695"/>
      <point x="358" y="659"/>
      <point x="358" y="634" type="qcurve" smooth="yes"/>
      <point x="358" y="609"/>
      <point x="322" y="573"/>
    </contour>
  </outline>
</glyph>
<glyph name="copyright" format="1">
  <advance width="587"/>
  <unicode hex="00A9"/>
  <outline>
    <contour>
      <point x="152" y="336" type="qcurve" smooth="yes"/>
      <point x="152" y="399"/>
      <point x="238" y="484"/>
      <point x="300" y="484" type="qcurve"/>
      <point x="346" y="482"/>
      <point x="414" y="429"/>
      <point x="424" y="389" type="qcurve"/>
      <point x="377" y="371" type="line"/>
      <point x="367" y="406"/>
      <point x="331" y="432"/>
      <point x="302" y="432" type="qcurve" smooth="yes"/>
      <point x="259" y="432"/>
      <point x="207" y="383"/>
      <point x="207" y="341" type="qcurve" smooth="yes"/>
      <point x="207" y="296"/>
      <point x="262" y="234"/>
      <point x="302" y="234" type="qcurve" smooth="yes"/>
      <point x="325" y="234"/>
      <point x="366" y="258"/>
      <point x="377" y="279" type="qcurve"/>
      <point x="421" y="250" type="line"/>
      <point x="400" y="218"/>
      <point x="334" y="182"/>
      <point x="298" y="182" type="qcurve" smooth="yes"/>
      <point x="238" y="182"/>
      <point x="152" y="273"/>
    </contour>
    <contour>
      <point x="535" y="332" type="qcurve" smooth="yes"/>
      <point x="535" y="226"/>
      <point x="393" y="76"/>
      <point x="293" y="76" type="qcurve" smooth="yes"/>
      <point x="193" y="76"/>
      <point x="51" y="225"/>
      <point x="51" y="331" type="qcurve" smooth="yes"/>
      <point x="51" y="437"/>
      <point x="193" y="587"/>
      <point x="293" y="587" type="qcurve" smooth="yes"/>
      <point x="393" y="587"/>
      <point x="535" y="438"/>
    </contour>
    <contour>
      <point x="295" y="544" type="qcurve" smooth="yes"/>
      <point x="213" y="544"/>
      <point x="97" y="420"/>
      <point x="97" y="331" type="qcurve" smooth="yes"/>
      <point x="97" y="242"/>
      <point x="213" y="118"/>
      <point x="295" y="118" type="qcurve" smooth="yes"/>
      <point x="376" y="118"/>
      <point x="492" y="242"/>
      <point x="492" y="331" type="qcurve" smooth="yes"/>
      <point x="492" y="420"/>
      <point x="376" y="544"/>
    </contour>
  </outline>
</glyph>
<glyph name="ordfeminine" format="1">
  <advance width="345"/>
  <unicode hex="00AA"/>
  <outline>
    <contour>
      <point x="237" y="740" type="line"/>
      <point x="320" y="740" type="line"/>
      <point x="278" y="556" type="line" smooth="yes"/>
      <point x="278" y="555"/>
      <point x="275" y="542"/>
      <point x="275" y="538" type="qcurve" smooth="yes"/>
      <point x="275" y="528"/>
      <point x="286" y="518"/>
      <point x="296" y="518" type="qcurve" smooth="yes"/>
      <point x="302" y="518"/>
      <point x="308" y="519"/>
      <point x="311" y="520" type="qcurve"/>
      <point x="302" y="494"/>
      <point x="275" y="470"/>
      <point x="251" y="470" type="qcurve" smooth="yes"/>
      <point x="227" y="470"/>
      <point x="198" y="490"/>
      <point x="193" y="510" type="qcurve"/>
      <point x="176" y="489"/>
      <point x="136" y="467"/>
      <point x="114" y="467" type="qcurve" smooth="yes"/>
      <point x="80" y="467"/>
      <point x="43" y="503"/>
      <point x="43" y="535" type="qcurve" smooth="yes"/>
      <point x="43" y="628"/>
      <point x="123" y="739"/>
      <point x="195" y="739" type="qcurve" smooth="yes"/>
      <point x="204" y="739"/>
      <point x="225" y="731"/>
      <point x="234" y="725" type="qcurve"/>
    </contour>
    <contour>
      <point x="155" y="512" type="qcurve" smooth="yes"/>
      <point x="164" y="512"/>
      <point x="181" y="525"/>
      <point x="191" y="538" type="qcurve"/>
      <point x="228" y="699" type="line"/>
      <point x="222" y="704"/>
      <point x="208" y="709"/>
      <point x="199" y="709" type="qcurve" smooth="yes"/>
      <point x="169" y="709"/>
      <point x="121" y="609"/>
      <point x="121" y="550" type="qcurve" smooth="yes"/>
      <point x="121" y="531"/>
      <point x="138" y="512"/>
    </contour>
  </outline>
</glyph>
<glyph name="guillemotleft" format="1">
  <advance width="589"/>
  <unicode hex="00AB"/>
  <outline>
    <contour>
      <point x="29" y="279" type="line"/>
      <point x="336" y="429" type="line"/>
      <point x="326" y="374" type="line"/>
      <point x="85" y="254" type="line"/>
      <point x="279" y="158" type="line"/>
      <point x="267" y="101" type="line"/>
      <point x="20" y="238" type="line"/>
    </contour>
    <contour>
      <point x="239" y="279" type="line"/>
      <point x="546" y="429" type="line"/>
      <point x="536" y="374" type="line"/>
      <point x="295" y="254" type="line"/>
      <point x="489" y="158" type="line"/>
      <point x="477" y="101" type="line"/>
      <point x="230" y="238" type="line"/>
    </contour>
  </outline>
</glyph>
<glyph name="logicalnot" format="1">
  <advance width="444"/>
  <unicode hex="00AC"/>
  <outline>
    <contour>
      <point x="37" y="301" type="line"/>
      <point x="399" y="301" type="line"/>
      <point x="348" y="51" type="line"/>
      <point x="235" y="51" type="line"/>
      <point x="270" y="222" type="line"/>
      <point x="19" y="222" type="line"/>
    </contour>
  </outline>
</glyph>
<glyph name="registered" format="1">
  <advance width="553"/>
  <unicode hex="00AE"/>
  <outline>
    <contour>
      <point x="518" y="335" type="qcurve" smooth="yes"/>
      <point x="518" y="229"/>
      <point x="376" y="79"/>
      <point x="276" y="79" type="qcurve" smooth="yes"/>
      <point x="176" y="79"/>
      <point x="34" y="228"/>
      <point x="34" y="334" type="qcurve" smooth="yes"/>
      <point x="34" y="440"/>
      <point x="176" y="590"/>
      <point x="276" y="590" type="qcurve" smooth="yes"/>
      <point x="376" y="590"/>
      <point x="518" y="441"/>
    </contour>
    <contour>
      <point x="278" y="547" type="qcurve" smooth="yes"/>
      <point x="196" y="547"/>
      <point x="80" y="423"/>
      <point x="80" y="334" type="qcurve" smooth="yes"/>
      <point x="80" y="245"/>
      <point x="196" y="121"/>
      <point x="278" y="121" type="qcurve" smooth="yes"/>
      <point x="359" y="121"/>
      <point x="475" y="245"/>
      <point x="475" y="334" type="qcurve" smooth="yes"/>
      <point x="475" y="423"/>
      <point x="359" y="547"/>
    </contour>
    <contour>
      <point x="222" y="192" type="line"/>
      <point x="176" y="192" type="line"/>
      <point x="177" y="483" type="line"/>
      <point x="271" y="483" type="line" smooth="yes"/>
      <point x="326" y="483"/>
      <point x="391" y="438"/>
      <point x="391" y="399" type="qcurve" smooth="yes"/>
      <point x="391" y="372"/>
      <point x="359" y="330"/>
      <point x="332" y="322" type="qcurve"/>
      <point x="397" y="197" type="line"/>
      <point x="350" y="190" type="line"/>
      <point x="288" y="315" type="line"/>
      <point x="222" y="315" type="line"/>
    </contour>
    <contour>
      <point x="272" y="442" type="qcurve"/>
      <point x="222" y="442" type="line"/>
      <point x="222" y="353" type="line"/>
      <point x="274" y="353" type="line" smooth="yes"/>
      <point x="308" y="353"/>
      <point x="345" y="376"/>
      <point x="345" y="397" type="qcurve" smooth="yes"/>
      <point x="345" y="419"/>
      <point x="306" y="442"/>
    </contour>
  </outline>
</glyph>
<glyph name="degree" format="1">
  <advance width="314"/>
  <unicode hex="00B0"/>
  <outline>
    <contour>
      <point x="37" y="488" type="qcurve" smooth="yes"/>
      <point x="37" y="581"/>
      <point x="127" y="702"/>
      <point x="199" y="702" type="qcurve" smooth="yes"/>
      <point x="241" y="702"/>
      <point x="281" y="646"/>
      <point x="281" y="589" type="qcurve" smooth="yes"/>
      <point x="281" y="509"/>
      <point x="195" y="374"/>
      <point x="133" y="374" type="qcurve" smooth="yes"/>
      <point x="82" y="374"/>
      <point x="37" y="425"/>
    </contour>
    <contour>
      <point x="196" y="667" type="qcurve" smooth="yes"/>
      <point x="169" y="667"/>
      <point x="116" y="581"/>
      <point x="111" y="519" type="qcurve" smooth="yes"/>
      <point x="110" y="507"/>
      <point x="109" y="486"/>
      <point x="109" y="476" type="qcurve" smooth="yes"/>
      <point x="109" y="444"/>
      <point x="123" y="411"/>
      <point x="136" y="411" type="qcurve" smooth="yes"/>
      <point x="173" y="411"/>
      <point x="221" y="522"/>
      <point x="221" y="604" type="qcurve" smooth="yes"/>
      <point x="221" y="638"/>
      <point x="209" y="667"/>
    </contour>
  </outline>
</glyph>
<glyph name="plusminus" format="1">
  <advance width="533"/>
  <unicode hex="00B1"/>
  <outline>
    <contour>
      <point x="262" y="543" type="line"/>
      <point x="375" y="543" type="line"/>
      <point x="348" y="421" type="line"/>
      <point x="475" y="421" type="line"/>
      <point x="452" y="309" type="line"/>
      <point x="324" y="309" type="line"/>
      <point x="297" y="186" type="line"/>
      <point x="184" y="186" type="line"/>
      <point x="211" y="309" type="line"/>
      <point x="83" y="309" type="line"/>
      <point x="107" y="421" type="line"/>
      <point x="235" y="421" type="line"/>
    </contour>
    <contour>
      <point x="49" y="147" type="line"/>
      <point x="416" y="147" type="line"/>
      <point x="399" y="68" type="line"/>
      <point x="31" y="68" type="line"/>
    </contour>
  </outline>
</glyph>
<glyph name="twosuperior" format="1">
  <advance width="300"/>
  <unicode hex="00B2"/>
  <outline>
    <contour>
      <point x="71" y="416" type="qcurve"/>
      <point x="75" y="416" type="line"/>
      <point x="85" y="416"/>
      <point x="107" y="414"/>
      <point x="130" y="411" type="qcurve" smooth="yes"/>
      <point x="154" y="408"/>
      <point x="178" y="406"/>
      <point x="188" y="406" type="qcurve" smooth="yes"/>
      <point x="206" y="406"/>
      <point x="230" y="415"/>
      <point x="263" y="444" type="qcurve"/>
      <point x="263" y="409"/>
      <point x="260" y="380"/>
      <point x="256" y="370" type="qcurve" smooth="yes"/>
      <point x="249" y="354"/>
      <point x="220" y="339"/>
      <point x="194" y="339" type="qcurve" smooth="yes"/>
      <point x="177" y="339"/>
      <point x="146" y="343"/>
      <point x="120" y="349" type="qcurve" smooth="yes"/>
      <point x="95" y="355"/>
      <point x="66" y="359"/>
      <point x="51" y="359" type="qcurve" smooth="yes"/>
      <point x="42" y="359"/>
      <point x="5" y="343"/>
      <point x="5" y="343" type="qcurve"/>
      <point x="4" y="350"/>
      <point x="3" y="358"/>
      <point x="3" y="361" type="qcurve" smooth="yes"/>
      <point x="3" y="391"/>
      <point x="36" y="449"/>
      <point x="91" y="502" type="qcurve" smooth="yes"/>
      <point x="154" y="562"/>
      <point x="194" y="636"/>
      <point x="194" y="676" type="qcurve" smooth="yes"/>
      <point x="194" y="694"/>
      <point x="173" y="720"/>
      <point x="159" y="720" type="qcurve" smooth="yes"/>
      <point x="134" y="720"/>
      <point x="112" y="701"/>
      <point x="112" y="677" type="qcurve" smooth="yes"/>
      <point x="112" y="664"/>
      <point x="124" y="642"/>
      <point x="134" y="640" type="qcurve"/>
      <point x="123" y="631"/>
      <point x="100" y="621"/>
      <point x="89" y="621" type="qcurve" smooth="yes"/>
      <point x="70" y="621"/>
      <point x="48" y="647"/>
      <point x="48" y="670" type="qcurve" smooth="yes"/>
      <point x="48" y="705"/>
      <point x="112" y="749"/>
      <point x="168" y="749" type="qcurve" smooth="yes"/>
      <point x="223" y="749"/>
      <point x="278" y="706"/>
      <point x="278" y="663" type="qcurve" smooth="yes"/>
      <point x="278" y="622"/>
      <point x="229" y="548"/>
      <point x="152" y="490" type="qcurve" smooth="yes"/>
      <point x="112" y="460"/>
      <point x="80" y="430"/>
    </contour>
  </outline>
</glyph>
<glyph name="threesuperior" format="1">
  <advance width="316"/>
  <unicode hex="00B3"/>
  <outline>
    <contour>
      <point x="82" y="511" type="qcurve" smooth="yes"/>
      <point x="102" y="511"/>
      <point x="125" y="498"/>
      <point x="129" y="484" type="qcurve"/>
      <point x="103" y="482"/>
      <point x="78" y="453"/>
      <point x="78" y="420" type="qcurve" smooth="yes"/>
      <point x="78" y="397"/>
      <point x="101" y="376"/>
      <point x="129" y="376" type="qcurve" smooth="yes"/>
      <point x="159" y="376"/>
      <point x="200" y="432"/>
      <point x="200" y="470" type="qcurve" smooth="yes"/>
      <point x="200" y="505"/>
      <point x="160" y="560"/>
      <point x="125" y="571" type="qcurve"/>
      <point x="169" y="581"/>
      <point x="224" y="644"/>
      <point x="224" y="678" type="qcurve" smooth="yes"/>
      <point x="224" y="697"/>
      <point x="204" y="720"/>
      <point x="187" y="720" type="qcurve" smooth="yes"/>
      <point x="161" y="720"/>
      <point x="135" y="699"/>
      <point x="135" y="677" type="qcurve" smooth="yes"/>
      <point x="135" y="664"/>
      <point x="147" y="642"/>
      <point x="157" y="640" type="qcurve"/>
      <point x="146" y="631"/>
      <point x="123" y="621"/>
      <point x="112" y="621" type="qcurve" smooth="yes"/>
      <point x="93" y="621"/>
      <point x="71" y="647"/>
      <point x="71" y="670" type="qcurve" smooth="yes"/>
      <point x="71" y="704"/>
      <point x="139" y="749"/>
      <point x="196" y="749" type="qcurve" smooth="yes"/>
      <point x="242" y="749"/>
      <point x="298" y="705"/>
      <point x="298" y="670" type="qcurve" smooth="yes"/>
      <point x="298" y="640"/>
      <point x="256" y="587"/>
      <point x="219" y="570" type="qcurve"/>
      <point x="254" y="560"/>
      <point x="291" y="514"/>
      <point x="291" y="482" type="qcurve" smooth="yes"/>
      <point x="291" y="429"/>
      <point x="202" y="342"/>
      <point x="142" y="342" type="qcurve" smooth="yes"/>
      <point x="79" y="342"/>
      <point x="13" y="386"/>
      <point x="13" y="429" type="qcurve" smooth="yes"/>
      <point x="13" y="468"/>
      <point x="49" y="511"/>
    </contour>
  </outline>
</glyph>
<glyph name="acute" format="1">
  <advance width="316"/>
  <unicode hex="00B4"/>
  <outline>
    <contour>
      <point x="195" y="561" type="line"/>
      <point x="120" y="561" type="line"/>
      <point x="211" y="750" type="line"/>
      <point x="316" y="750" type="line"/>
    </contour>
  </outline>
</glyph>
<glyph name="paragraph" format="1">
  <advance width="542"/>
  <unicode hex="00B6"/>
  <outline>
    <contour>
      <point x="316" y="288" type="qcurve"/>
      <point x="239" y="-81" type="line"/>
      <point x="145" y="-81" type="line"/>
      <point x="222" y="288" type="line"/>
      <point x="153" y="302"/>
      <point x="72" y="413"/>
      <point x="72" y="491" type="qcurve" smooth="yes"/>
      <point x="72" y="599"/>
      <point x="212" y="749"/>
      <point x="322" y="749" type="qcurve" smooth="yes"/>
      <point x="410" y="749"/>
      <point x="507" y="664"/>
      <point x="507" y="584" type="qcurve" smooth="yes"/>
      <point x="507" y="569"/>
      <point x="503" y="533"/>
      <point x="499" y="512" type="qcurve"/>
      <point x="372" y="-81" type="line"/>
      <point x="278" y="-81" type="line"/>
      <point x="359" y="299" type="line"/>
      <point x="351" y="296"/>
      <point x="333" y="292"/>
    </contour>
    <contour>
      <point x="399" y="682" type="qcurve"/>
      <point x="327" y="339" type="line"/>
      <point x="333" y="339" type="line" smooth="yes"/>
      <point x="343" y="339"/>
      <point x="361" y="341"/>
      <point x="368" y="343" type="qcurve"/>
      <point x="416" y="570" type="line" smooth="yes"/>
      <point x="419" y="584"/>
      <point x="422" y="609"/>
      <point x="422" y="619" type="qcurve" smooth="yes"/>
      <point x="422" y="640"/>
      <point x="411" y="671"/>
    </contour>
  </outline>
</glyph>
<glyph name="periodcentered" format="1">
  <advance width="434"/>
  <unicode hex="00B7"/>
  <outline>
    <contour>
      <point x="216" y="171" type="qcurve" smooth="yes"/>
      <point x="176" y="171"/>
      <point x="120" y="227"/>
      <point x="120" y="267" type="qcurve" smooth="yes"/>
      <point x="120" y="307"/>
      <point x="176" y="364"/>
      <point x="216" y="364" type="qcurve" smooth="yes"/>
      <point x="256" y="364"/>
      <point x="313" y="307"/>
      <point x="313" y="267" type="qcurve" smooth="yes"/>
      <point x="313" y="227"/>
      <point x="256" y="171"/>
    </contour>
  </outline>
</glyph>
<glyph name="cedilla" format="1">
  <advance width="227"/>
  <unicode hex="00B8"/>
  <outline>
    <contour>
      <point x="165" y="-58" type="qcurve" smooth="yes"/>
      <point x="195" y="-58"/>
      <point x="227" y="-84"/>
      <point x="227" y="-108" type="qcurve" smooth="yes"/>
      <point x="227" y="-156"/>
      <point x="157" y="-218"/>
      <point x="107" y="-218" type="qcurve" smooth="yes"/>
      <point x="79" y="-218"/>
      <point x="33" y="-207"/>
      <point x="0" y="-190" type="qcurve"/>
      <point x="10" y="-173"/>
      <point x="29" y="-158"/>
      <point x="40" y="-158" type="qcurve" smooth="yes"/>
      <point x="52" y="-158"/>
      <point x="71" y="-164"/>
      <point x="85" y="-173" type="qcurve" smooth="yes"/>
      <point x="95" y="-181"/>
      <point x="107" y="-185"/>
      <point x="114" y="-185" type="qcurve" smooth="yes"/>
      <point x="126" y="-185"/>
      <point x="144" y="-160"/>
      <point x="144" y="-143" type="qcurve" smooth="yes"/>
      <point x="144" y="-127"/>
      <point x="123" y="-107"/>
      <point x="105" y="-107" type="qcurve" smooth="yes"/>
      <point x="92" y="-107"/>
      <point x="69" y="-112"/>
      <point x="53" y="-119" type="qcurve"/>
      <point x="106" y="29" type="line"/>
      <point x="141" y="6" type="line"/>
      <point x="112" y="-66" type="line"/>
      <point x="128" y="-62"/>
      <point x="154" y="-58"/>
    </contour>
  </outline>
</glyph>
<glyph name="onesuperior" format="1">
  <advance width="217"/>
  <unicode hex="00B9"/>
  <outline>
    <contour>
      <point x="198" y="749" type="qcurve"/>
      <point x="106" y="345" type="line"/>
      <point x="22" y="345" type="line"/>
      <point x="99" y="682" type="line"/>
      <point x="44" y="682" type="line"/>
      <point x="51" y="707" type="line"/>
      <point x="90" y="707"/>
      <point x="159" y="728"/>
    </contour>
  </outline>
</glyph>
<glyph name="ordmasculine" format="1">
  <advance width="329"/>
  <unicode hex="00BA"/>
  <outline>
    <contour>
      <point x="243" y="690" type="qcurve" smooth="yes"/>
      <point x="254" y="690"/>
      <point x="262" y="682"/>
      <point x="262" y="671" type="qcurve"/>
      <point x="273" y="677"/>
      <point x="293" y="701"/>
      <point x="295" y="703" type="qcurve"/>
      <point x="301" y="692" type="line"/>
      <point x="294" y="669"/>
      <point x="275" y="642"/>
      <point x="262" y="635" type="qcurve"/>
      <point x="258" y="561"/>
      <point x="182" y="466"/>
      <point x="133" y="466" type="qcurve" smooth="yes"/>
      <point x="85" y="466"/>
      <point x="42" y="508"/>
      <point x="42" y="555" type="qcurve" smooth="yes"/>
      <point x="42" y="643"/>
      <point x="126" y="745"/>
      <point x="194" y="745" type="qcurve" smooth="yes"/>
      <point x="216" y="745"/>
      <point x="249" y="731"/>
      <point x="249" y="721" type="qcurve" smooth="yes"/>
      <point x="249" y="712"/>
      <point x="237" y="700"/>
      <point x="223" y="695" type="qcurve"/>
      <point x="219" y="705"/>
      <point x="206" y="714"/>
      <point x="197" y="714" type="qcurve" smooth="yes"/>
      <point x="163" y="714"/>
      <point x="119" y="614"/>
      <point x="119" y="560" type="qcurve" smooth="yes"/>
      <point x="119" y="539"/>
      <point x="139" y="519"/>
      <point x="160" y="519" type="qcurve" smooth="yes"/>
      <point x="182" y="519"/>
      <point x="213" y="577"/>
      <point x="219" y="627" type="qcurve"/>
      <point x="211" y="629"/>
      <point x="204" y="640"/>
      <point x="204" y="649" type="qcurve" smooth="yes"/>
      <point x="204" y="663"/>
      <point x="229" y="690"/>
    </contour>
  </outline>
</glyph>
<glyph name="guillemotright" format="1">
  <advance width="586"/>
  <unicode hex="00BB"/>
  <outline>
    <contour>
      <point x="269" y="254" type="line"/>
      <point x="75" y="374" type="line"/>
      <point x="84" y="429" type="line"/>
      <point x="330" y="279" type="line"/>
      <point x="319" y="225" type="line"/>
      <point x="15" y="101" type="line"/>
      <point x="29" y="158" type="line"/>
    </contour>
    <contour>
      <point x="491" y="254" type="line"/>
      <point x="297" y="374" type="line"/>
      <point x="306" y="429" type="line"/>
      <point x="552" y="279" type="line"/>
      <point x="541" y="225" type="line"/>
      <point x="237" y="101" type="line"/>
      <point x="251" y="158" type="line"/>
    </contour>
  </outline>
</glyph>
<glyph name="onequarter" format="1">
  <advance width="689"/>
  <unicode hex="00BC"/>
  <outline>
    <contour>
      <point x="403" y="750" type="line"/>
      <point x="475" y="750" type="line"/>
      <point x="211" y="-165" type="line"/>
      <point x="139" y="-165" type="line"/>
    </contour>
    <contour>
      <point x="481" y="1" type="line"/>
      <point x="515" y="150" type="line"/>
      <point x="374" y="150" type="line"/>
      <point x="378" y="160"/>
      <point x="390" y="187"/>
      <point x="405" y="217" type="qcurve" smooth="yes"/>
      <point x="437" y="280"/>
      <point x="458" y="346"/>
      <point x="458" y="373" type="qcurve" smooth="yes"/>
      <point x="458" y="382"/>
      <point x="456" y="399"/>
      <point x="454" y="406" type="qcurve"/>
      <point x="483" y="406"/>
      <point x="519" y="378"/>
      <point x="519" y="355" type="qcurve" smooth="yes"/>
      <point x="519" y="309"/>
      <point x="438" y="196"/>
      <point x="434" y="189" type="qcurve"/>
      <point x="524" y="189" type="line"/>
      <point x="571" y="395" type="line"/>
      <point x="657" y="406" type="line"/>
      <point x="607" y="189" type="line"/>
      <point x="645" y="189" type="line"/>
      <point x="633" y="150" type="line"/>
      <point x="598" y="150" type="line"/>
      <point x="564" y="1" type="line"/>
    </contour>
    <contour>
      <point x="246" y="629" type="qcurve"/>
      <point x="154" y="225" type="line"/>
      <point x="70" y="225" type="line"/>
      <point x="147" y="562" type="line"/>
      <point x="92" y="562" type="line"/>
      <point x="99" y="587" type="line"/>
      <point x="138" y="587"/>
      <point x="207" y="608"/>
    </contour>
  </outline>
</glyph>
<glyph name="onehalf" format="1">
  <advance width="675"/>
  <unicode hex="00BD"/>
  <outline>
    <contour>
      <point x="398" y="750" type="line"/>
      <point x="470" y="750" type="line"/>
      <point x="206" y="-165" type="line"/>
      <point x="134" y="-165" type="line"/>
    </contour>
    <contour>
      <point x="246" y="629" type="qcurve"/>
      <point x="154" y="225" type="line"/>
      <point x="70" y="225" type="line"/>
      <point x="147" y="562" type="line"/>
      <point x="92" y="562" type="line"/>
      <point x="99" y="587" type="line"/>
      <point x="138" y="587"/>
      <point x="207" y="608"/>
    </contour>
    <contour>
      <point x="434" y="76" type="qcurve"/>
      <point x="438" y="76" type="line"/>
      <point x="448" y="76"/>
      <point x="470" y="74"/>
      <point x="493" y="71" type="qcurve" smooth="yes"/>
      <point x="517" y="68"/>
      <point x="541" y="66"/>
      <point x="551" y="66" type="qcurve" smooth="yes"/>
      <point x="569" y="66"/>
      <point x="593" y="75"/>
      <point x="626" y="104" type="qcurve"/>
      <point x="626" y="69"/>
      <point x="623" y="40"/>
      <point x="619" y="30" type="qcurve" smooth="yes"/>
      <point x="612" y="14"/>
      <point x="583" y="-1"/>
      <point x="557" y="-1" type="qcurve" smooth="yes"/>
      <point x="540" y="-1"/>
      <point x="509" y="3"/>
      <point x="483" y="9" type="qcurve" smooth="yes"/>
      <point x="458" y="15"/>
      <point x="429" y="19"/>
      <point x="414" y="19" type="qcurve" smooth="yes"/>
      <point x="405" y="19"/>
      <point x="368" y="3"/>
      <point x="368" y="3" type="qcurve"/>
      <point x="367" y="10"/>
      <point x="366" y="18"/>
      <point x="366" y="21" type="qcurve" smooth="yes"/>
      <point x="366" y="51"/>
      <point x="399" y="109"/>
      <point x="454" y="162" type="qcurve" smooth="yes"/>
      <point x="517" y="222"/>
      <point x="557" y="296"/>
      <point x="557" y="336" type="qcurve" smooth="yes"/>
      <point x="557" y="354"/>
      <point x="536" y="380"/>
      <point x="522" y="380" type="qcurve" smooth="yes"/>
      <point x="497" y="380"/>
      <point x="475" y="361"/>
      <point x="475" y="337" type="qcurve" smooth="yes"/>
      <point x="475" y="324"/>
      <point x="487" y="302"/>
      <point x="497" y="300" type="qcurve"/>
      <point x="486" y="291"/>
      <point x="463" y="281"/>
      <point x="452" y="281" type="qcurve" smooth="yes"/>
      <point x="433" y="281"/>
      <point x="411" y="307"/>
      <point x="411" y="330" type="qcurve" smooth="yes"/>
      <point x="411" y="365"/>
      <point x="475" y="409"/>
      <point x="531" y="409" type="qcurve" smooth="yes"/>
      <point x="586" y="409"/>
      <point x="641" y="366"/>
      <point x="641" y="323" type="qcurve" smooth="yes"/>
      <point x="641" y="282"/>
      <point x="592" y="208"/>
      <point x="515" y="150" type="qcurve" smooth="yes"/>
      <point x="475" y="120"/>
      <point x="443" y="90"/>
    </contour>
  </outline>
</glyph>
<glyph name="threequarters" format="1">
  <advance width="819"/>
  <unicode hex="00BE"/>
  <outline>
    <contour>
      <point x="519" y="750" type="line"/>
      <point x="591" y="750" type="line"/>
      <point x="327" y="-165" type="line"/>
      <point x="255" y="-165" type="line"/>
    </contour>
    <contour>
      <point x="600" y="1" type="line"/>
      <point x="634" y="150" type="line"/>
      <point x="493" y="150" type="line"/>
      <point x="497" y="160"/>
      <point x="509" y="187"/>
      <point x="524" y="217" type="qcurve" smooth="yes"/>
      <point x="556" y="280"/>
      <point x="577" y="346"/>
      <point x="577" y="373" type="qcurve" smooth="yes"/>
      <point x="577" y="382"/>
      <point x="575" y="399"/>
      <point x="573" y="406" type="qcurve"/>
      <point x="602" y="406"/>
      <point x="638" y="378"/>
      <point x="638" y="355" type="qcurve" smooth="yes"/>
      <point x="638" y="309"/>
      <point x="557" y="196"/>
      <point x="553" y="189" type="qcurve"/>
      <point x="643" y="189" type="line"/>
      <point x="690" y="395" type="line"/>
      <point x="776" y="406" type="line"/>
      <point x="726" y="189" type="line"/>
      <point x="764" y="189" type="line"/>
      <point x="752" y="150" type="line"/>
      <point x="717" y="150" type="line"/>
      <point x="683" y="1" type="line"/>
    </contour>
    <contour>
      <point x="130" y="391" type="qcurve" smooth="yes"/>
      <point x="150" y="391"/>
      <point x="173" y="378"/>
      <point x="177" y="364" type="qcurve"/>
      <point x="151" y="362"/>
      <point x="126" y="333"/>
      <point x="126" y="300" type="qcurve" smooth="yes"/>
      <point x="126" y="277"/>
      <point x="149" y="256"/>
      <point x="177" y="256" type="qcurve" smooth="yes"/>
      <point x="207" y="256"/>
      <point x="248" y="312"/>
      <point x="248" y="350" type="qcurve" smooth="yes"/>
      <point x="248" y="385"/>
      <point x="208" y="440"/>
      <point x="173" y="451" type="qcurve"/>
      <point x="217" y="461"/>
      <point x="272" y="524"/>
      <point x="272" y="558" type="qcurve" smooth="yes"/>
      <point x="272" y="577"/>
      <point x="252" y="600"/>
      <point x="235" y="600" type="qcurve" smooth="yes"/>
      <point x="209" y="600"/>
      <point x="183" y="579"/>
      <point x="183" y="557" type="qcurve" smooth="yes"/>
      <point x="183" y="544"/>
      <point x="195" y="522"/>
      <point x="205" y="520" type="qcurve"/>
      <point x="194" y="511"/>
      <point x="171" y="501"/>
      <point x="160" y="501" type="qcurve" smooth="yes"/>
      <point x="141" y="501"/>
      <point x="119" y="527"/>
      <point x="119" y="550" type="qcurve" smooth="yes"/>
      <point x="119" y="584"/>
      <point x="187" y="629"/>
      <point x="244" y="629" type="qcurve" smooth="yes"/>
      <point x="290" y="629"/>
      <point x="346" y="585"/>
      <point x="346" y="550" type="qcurve" smooth="yes"/>
      <point x="346" y="520"/>
      <point x="304" y="467"/>
      <point x="267" y="450" type="qcurve"/>
      <point x="302" y="440"/>
      <point x="339" y="394"/>
      <point x="339" y="362" type="qcurve" smooth="yes"/>
      <point x="339" y="309"/>
      <point x="250" y="222"/>
      <point x="190" y="222" type="qcurve" smooth="yes"/>
      <point x="127" y="222"/>
      <point x="61" y="266"/>
      <point x="61" y="309" type="qcurve" smooth="yes"/>
      <point x="61" y="348"/>
      <point x="97" y="391"/>
    </contour>
  </outline>
</glyph>
<glyph name="questiondown" format="1">
  <advance width="439"/>
  <unicode hex="00BF"/>
  <outline>
    <contour>
      <point x="173" y="-247" type="qcurve" smooth="yes"/>
      <point x="93" y="-247"/>
      <point x="12" y="-187"/>
      <point x="12" y="-128" type="qcurve" smooth="yes"/>
      <point x="12" y="-71"/>
      <point x="58" y="17"/>
      <point x="133" y="80" type="qcurve" smooth="yes"/>
      <point x="190" y="127"/>
      <point x="239" y="187"/>
      <point x="253" y="221" type="qcurve"/>
      <point x="319" y="221" type="line"/>
      <point x="319" y="184"/>
      <point x="285" y="115"/>
      <point x="231" y="55" type="qcurve" smooth="yes"/>
      <point x="173" y="-7"/>
      <point x="137" y="-83"/>
      <point x="137" y="-124" type="qcurve" smooth="yes"/>
      <point x="137" y="-157"/>
      <point x="167" y="-193"/>
      <point x="192" y="-193" type="qcurve" smooth="yes"/>
      <point x="224" y="-193"/>
      <point x="272" y="-145"/>
      <point x="272" y="-110" type="qcurve" smooth="yes"/>
      <point x="272" y="-87"/>
      <point x="251" y="-49"/>
      <point x="234" y="-44" type="qcurve"/>
      <point x="246" y="-24"/>
      <point x="285" y="-2"/>
      <point x="307" y="-2" type="qcurve" smooth="yes"/>
      <point x="340" y="-2"/>
      <point x="383" y="-48"/>
      <point x="383" y="-86" type="qcurve" smooth="yes"/>
      <point x="383" y="-153"/>
      <point x="268" y="-247"/>
    </contour>
    <contour>
      <point x="310" y="293" type="qcurve" smooth="yes"/>
      <point x="277" y="293"/>
      <point x="231" y="339"/>
      <point x="231" y="372" type="qcurve"/>
      <point x="231" y="406"/>
      <point x="277" y="453"/>
      <point x="310" y="453" type="qcurve" smooth="yes"/>
      <point x="343" y="453"/>
      <point x="390" y="406"/>
      <point x="390" y="372" type="qcurve"/>
      <point x="390" y="339"/>
      <point x="343" y="293"/>
    </contour>
  </outline>
</glyph>
<glyph name="Atilde" format="1">
  <advance width="668"/>
  <unicode hex="00C3"/>
  <outline>
    <contour>
      <point x="692" y="736" type="qcurve"/>
      <point x="535" y="0" type="line"/>
      <point x="391" y="0" type="line"/>
      <point x="468" y="363" type="line"/>
      <point x="433" y="379"/>
      <point x="371" y="396"/>
      <point x="334" y="399" type="qcurve"/>
      <point x="277" y="275"/>
      <point x="204" y="19"/>
      <point x="204" y="-58" type="qcurve" smooth="yes"/>
      <point x="204" y="-76"/>
      <point x="211" y="-103"/>
      <point x="218" y="-114" type="qcurve"/>
      <point x="142" y="-114"/>
      <point x="84" y="-62"/>
      <point x="84" y="-8" type="qcurve" smooth="yes"/>
      <point x="84" y="59"/>
      <point x="165" y="283"/>
      <point x="231" y="399" type="qcurve"/>
      <point x="180" y="396"/>
      <point x="123" y="370"/>
      <point x="114" y="347" type="qcurve"/>
      <point x="118" y="347"/>
      <point x="127" y="326"/>
      <point x="127" y="316" type="qcurve" smooth="yes"/>
      <point x="127" y="299"/>
      <point x="95" y="277"/>
      <point x="71" y="277" type="qcurve" smooth="yes"/>
      <point x="43" y="277"/>
      <point x="9" y="308"/>
      <point x="9" y="335" type="qcurve" smooth="yes"/>
      <point x="9" y="387"/>
      <point x="126" y="458"/>
      <point x="213" y="458" type="qcurve" smooth="yes"/>
      <point x="223" y="458"/>
      <point x="249" y="457"/>
      <point x="265" y="455" type="qcurve"/>
      <point x="353" y="594"/>
      <point x="535" y="750"/>
      <point x="613" y="750" type="qcurve" smooth="yes"/>
      <point x="634" y="750"/>
      <point x="676" y="743"/>
    </contour>
    <contour>
      <point x="355" y="442" type="qcurve"/>
      <point x="391" y="435"/>
      <point x="452" y="417"/>
      <point x="477" y="407" type="qcurve"/>
      <point x="535" y="679" type="line"/>
      <point x="494" y="657"/>
      <point x="402" y="536"/>
    </contour>
    <contour>
      <point x="741" y="897" type="qcurve" smooth="yes"/>
      <point x="760" y="897"/>
      <point x="794" y="909"/>
      <point x="804" y="920" type="qcurve"/>
      <point x="810" y="919" type="line"/>
      <point x="801" y="881"/>
      <point x="703" y="819"/>
      <point x="649" y="819" type="qcurve" smooth="yes"/>
      <point x="631" y="819"/>
      <point x="592" y="827"/>
      <point x="557" y="839" type="qcurve" smooth="yes"/>
      <point x="526" y="849"/>
      <point x="495" y="856"/>
      <point x="481" y="856" type="qcurve" smooth="yes"/>
      <point x="462" y="856"/>
      <point x="429" y="843"/>
      <point x="415" y="830" type="qcurve"/>
      <point x="409" y="832" type="line"/>
      <point x="433" y="880"/>
      <point x="519" y="930"/>
      <point x="576" y="930" type="qcurve" smooth="yes"/>
      <point x="596" y="930"/>
      <point x="635" y="923"/>
      <point x="668" y="912" type="qcurve" smooth="yes"/>
      <point x="697" y="903"/>
      <point x="726" y="897"/>
    </contour>
  </outline>
</glyph>
<glyph name="AE" format="1">
  <advance width="764"/>
  <unicode hex="00C6"/>
  <outline>
    <contour>
      <point x="781" y="106" type="line"/>
      <point x="760" y="0" type="line"/>
      <point x="391" y="0" type="line"/>
      <point x="468" y="363" type="line"/>
      <point x="430" y="380"/>
      <point x="365" y="397"/>
      <point x="333" y="399" type="qcurve"/>
      <point x="277" y="277"/>
      <point x="204" y="21"/>
      <point x="204" y="-57" type="qcurve" smooth="yes"/>
      <point x="204" y="-76"/>
      <point x="209" y="-99"/>
      <point x="215" y="-107" type="qcurve" smooth="yes"/>
      <point x="217" y="-109"/>
      <point x="218" y="-112"/>
      <point x="218" y="-113" type="qcurve"/>
      <point x="171" y="-110"/>
      <point x="133" y="-101"/>
      <point x="120" y="-92" type="qcurve" smooth="yes"/>
      <point x="102" y="-80"/>
      <point x="84" y="-35"/>
      <point x="84" y="-1" type="qcurve" smooth="yes"/>
      <point x="84" y="64"/>
      <point x="166" y="286"/>
      <point x="231" y="399" type="qcurve"/>
      <point x="178" y="395"/>
      <point x="123" y="371"/>
      <point x="114" y="347" type="qcurve"/>
      <point x="118" y="347"/>
      <point x="127" y="326"/>
      <point x="127" y="316" type="qcurve" smooth="yes"/>
      <point x="127" y="298"/>
      <point x="95" y="277"/>
      <point x="66" y="277" type="qcurve" smooth="yes"/>
      <point x="40" y="277"/>
      <point x="9" y="310"/>
      <point x="9" y="340" type="qcurve" smooth="yes"/>
      <point x="9" y="386"/>
      <point x="127" y="455"/>
      <point x="204" y="455" type="qcurve" smooth="yes"/>
      <point x="217" y="455"/>
      <point x="247" y="453"/>
      <point x="263" y="452" type="qcurve"/>
      <point x="351" y="594"/>
      <point x="534" y="751"/>
      <point x="612" y="751" type="qcurve" smooth="yes"/>
      <point x="626" y="751"/>
      <point x="658" y="748"/>
      <point x="691" y="742" type="qcurve" smooth="yes"/>
      <point x="730" y="735"/>
      <point x="773" y="731"/>
      <point x="792" y="731" type="qcurve" smooth="yes"/>
      <point x="821" y="731"/>
      <point x="879" y="740"/>
      <point x="909" y="750" type="qcurve"/>
      <point x="908" y="748"/>
      <point x="897" y="709"/>
      <point x="891" y="698" type="qcurve" smooth="yes"/>
      <point x="885" y="682"/>
      <point x="867" y="661"/>
      <point x="856" y="654" type="qcurve" smooth="yes"/>
      <point x="845" y="647"/>
      <point x="818" y="640"/>
      <point x="802" y="640" type="qcurve" smooth="yes"/>
      <point x="780" y="640"/>
      <point x="736" y="649"/>
      <point x="678" y="672" type="qcurve"/>
      <point x="624" y="419" type="line"/>
      <point x="779" y="419" type="line"/>
      <point x="759" y="345" type="line"/>
      <point x="608" y="345" type="line"/>
      <point x="557" y="106" type="line"/>
    </contour>
    <contour>
      <point x="353" y="441" type="qcurve"/>
      <point x="388" y="434"/>
      <point x="450" y="417"/>
      <point x="477" y="407" type="qcurve"/>
      <point x="535" y="679" type="line"/>
      <point x="493" y="656"/>
      <point x="399" y="534"/>
    </contour>
  </outline>
</glyph>
<glyph name="Ccedilla" format="1">
  <advance width="497"/>
  <unicode hex="00C7"/>
  <outline>
    <contour>
      <point x="300" y="-58" type="qcurve" smooth="yes"/>
      <point x="330" y="-58"/>
      <point x="362" y="-84"/>
      <point x="362" y="-108" type="qcurve" smooth="yes"/>
      <point x="362" y="-156"/>
      <point x="292" y="-218"/>
      <point x="242" y="-218" type="qcurve" smooth="yes"/>
      <point x="214" y="-218"/>
      <point x="168" y="-207"/>
      <point x="135" y="-190" type="qcurve"/>
      <point x="145" y="-173"/>
      <point x="164" y="-158"/>
      <point x="175" y="-158" type="qcurve" smooth="yes"/>
      <point x="187" y="-158"/>
      <point x="206" y="-164"/>
      <point x="220" y="-173" type="qcurve" smooth="yes"/>
      <point x="230" y="-181"/>
      <point x="242" y="-185"/>
      <point x="249" y="-185" type="qcurve" smooth="yes"/>
      <point x="261" y="-185"/>
      <point x="279" y="-160"/>
      <point x="279" y="-143" type="qcurve" smooth="yes"/>
      <point x="279" y="-127"/>
      <point x="258" y="-107"/>
      <point x="240" y="-107" type="qcurve" smooth="yes"/>
      <point x="227" y="-107"/>
      <point x="204" y="-112"/>
      <point x="188" y="-119" type="qcurve"/>
      <point x="225" y="-16" type="line"/>
      <point x="116" y="-13"/>
      <point x="19" y="104"/>
      <point x="19" y="230" type="qcurve" smooth="yes"/>
      <point x="19" y="313"/>
      <point x="61" y="493"/>
      <point x="98" y="564" type="qcurve" smooth="yes"/>
      <point x="146" y="655"/>
      <point x="283" y="750"/>
      <point x="368" y="750" type="qcurve" smooth="yes"/>
      <point x="448" y="750"/>
      <point x="535" y="681"/>
      <point x="535" y="616" type="qcurve" smooth="yes"/>
      <point x="535" y="571"/>
      <point x="499" y="524"/>
      <point x="465" y="524" type="qcurve" smooth="yes"/>
      <point x="448" y="524"/>
      <point x="419" y="537"/>
      <point x="408" y="550" type="qcurve"/>
      <point x="426" y="559"/>
      <point x="454" y="614"/>
      <point x="454" y="642" type="qcurve" smooth="yes"/>
      <point x="454" y="671"/>
      <point x="422" y="703"/>
      <point x="393" y="703" type="qcurve" smooth="yes"/>
      <point x="349" y="703"/>
      <point x="263" y="596"/>
      <point x="231" y="502" type="qcurve" smooth="yes"/>
      <point x="209" y="438"/>
      <point x="185" y="299"/>
      <point x="185" y="236" type="qcurve" smooth="yes"/>
      <point x="185" y="153"/>
      <point x="243" y="80"/>
      <point x="305" y="80" type="qcurve" smooth="yes"/>
      <point x="362" y="80"/>
      <point x="465" y="133"/>
      <point x="500" y="180" type="qcurve"/>
      <point x="523" y="170" type="line"/>
      <point x="492" y="94"/>
      <point x="353" y="-4"/>
      <point x="268" y="-14" type="qcurve"/>
      <point x="247" y="-66" type="line"/>
      <point x="263" y="-62"/>
      <point x="289" y="-58"/>
    </contour>
  </outline>
</glyph>
<glyph name="Igrave" format="1">
  <advance width="375"/>
  <unicode hex="00CC"/>
  <outline>
    <contour>
      <point x="357" y="750" type="qcurve" smooth="yes"/>
      <point x="364" y="750"/>
      <point x="381" y="749"/>
      <point x="397" y="748" type="qcurve"/>
      <point x="238" y="0" type="line"/>
      <point x="94" y="0" type="line"/>
      <point x="239" y="679" type="line"/>
      <point x="171" y="651"/>
      <point x="99" y="539"/>
      <point x="99" y="461" type="qcurve" smooth="yes"/>
      <point x="99" y="442"/>
      <point x="104" y="414"/>
      <point x="110" y="401" type="qcurve" smooth="yes"/>
      <point x="112" y="397"/>
      <point x="113" y="394"/>
      <point x="113" y="393" type="qcurve"/>
      <point x="57" y="393"/>
      <point x="6" y="440"/>
      <point x="6" y="490" type="qcurve" smooth="yes"/>
      <point x="6" y="540"/>
      <point x="73" y="640"/>
      <point x="133" y="680" type="qcurve" smooth="yes"/>
      <point x="184" y="713"/>
      <point x="301" y="750"/>
    </contour>
    <contour>
      <point x="305" y="811" type="line"/>
      <point x="230" y="811" type="line"/>
      <point x="171" y="1000" type="line"/>
      <point x="276" y="1000" type="line"/>
    </contour>
  </outline>
</glyph>
<glyph name="Icircumflex" format="1">
  <advance width="375"/>
  <unicode hex="00CE"/>
  <outline>
    <contour>
      <point x="357" y="750" type="qcurve" smooth="yes"/>
      <point x="364" y="750"/>
      <point x="381" y="749"/>
      <point x="397" y="748" type="qcurve"/>
      <point x="238" y="0" type="line"/>
      <point x="94" y="0" type="line"/>
      <point x="239" y="679" type="line"/>
      <point x="171" y="651"/>
      <point x="99" y="539"/>
      <point x="99" y="461" type="qcurve" smooth="yes"/>
      <point x="99" y="442"/>
      <point x="104" y="414"/>
      <point x="110" y="401" type="qcurve" smooth="yes"/>
      <point x="112" y="397"/>
      <point x="113" y="394"/>
      <point x="113" y="393" type="qcurve"/>
      <point x="57" y="393"/>
      <point x="6" y="440"/>
      <point x="6" y="490" type="qcurve" smooth="yes"/>
      <point x="6" y="540"/>
      <point x="73" y="640"/>
      <point x="133" y="680" type="qcurve" smooth="yes"/>
      <point x="184" y="713"/>
      <point x="301" y="750"/>
    </contour>
    <contour>
      <point x="384" y="1000" type="line"/>
      <point x="444" y="811" type="line"/>
      <point x="412" y="811" type="line"/>
      <point x="352" y="891" type="line"/>
      <point x="195" y="811" type="line"/>
      <point x="151" y="811" type="line"/>
      <point x="363" y="1000" type="line"/>
    </contour>
  </outline>
</glyph>
<glyph name="Idieresis" format="1">
  <advance width="375"/>
  <unicode hex="00CF"/>
  <outline>
    <contour>
      <point x="357" y="750" type="qcurve" smooth="yes"/>
      <point x="364" y="750"/>
      <point x="381" y="749"/>
      <point x="397" y="748" type="qcurve"/>
      <point x="238" y="0" type="line"/>
      <point x="94" y="0" type="line"/>
      <point x="239" y="679" type="line"/>
      <point x="171" y="651"/>
      <point x="99" y="539"/>
      <point x="99" y="461" type="qcurve" smooth="yes"/>
      <point x="99" y="442"/>
      <point x="104" y="414"/>
      <point x="110" y="401" type="qcurve" smooth="yes"/>
      <point x="112" y="397"/>
      <point x="113" y="394"/>
      <point x="113" y="393" type="qcurve"/>
      <point x="57" y="393"/>
      <point x="6" y="440"/>
      <point x="6" y="490" type="qcurve" smooth="yes"/>
      <point x="6" y="540"/>
      <point x="73" y="640"/>
      <point x="133" y="680" type="qcurve" smooth="yes"/>
      <point x="184" y="713"/>
      <point x="301" y="750"/>
    </contour>
    <contour>
      <point x="228" y="823" type="qcurve" smooth="yes"/>
      <point x="203" y="823"/>
      <point x="167" y="859"/>
      <point x="167" y="884" type="qcurve" smooth="yes"/>
      <point x="167" y="909"/>
      <point x="203" y="945"/>
      <point x="228" y="945" type="qcurve" smooth="yes"/>
      <point x="253" y="945"/>
      <point x="289" y="909"/>
      <point x="289" y="884" type="qcurve" smooth="yes"/>
      <point x="289" y="859"/>
      <point x="253" y="823"/>
    </contour>
    <contour>
      <point x="408" y="823" type="qcurve" smooth="yes"/>
      <point x="383" y="823"/>
      <point x="347" y="859"/>
      <point x="347" y="884" type="qcurve" smooth="yes"/>
      <point x="347" y="909"/>
      <point x="383" y="945"/>
      <point x="408" y="945" type="qcurve" smooth="yes"/>
      <point x="433" y="945"/>
      <point x="469" y="909"/>
      <point x="469" y="884" type="qcurve" smooth="yes"/>
      <point x="469" y="859"/>
      <point x="433" y="823"/>
    </contour>
  </outline>
</glyph>
<glyph name="Eth" format="1">
  <advance width="663"/>
  <unicode hex="00D0"/>
  <outline>
    <contour>
      <point x="184" y="419" type="line"/>
      <point x="230" y="636" type="line"/>
      <point x="378" y="656" type="line"/>
      <point x="327" y="419" type="line"/>
      <point x="406" y="419" type="line"/>
      <point x="386" y="345" type="line"/>
      <point x="311" y="345" type="line"/>
      <point x="258" y="95" type="line"/>
      <point x="272" y="85"/>
      <point x="300" y="75"/>
      <point x="315" y="75" type="qcurve" smooth="yes"/>
      <point x="395" y="75"/>
      <point x="507" y="341"/>
      <point x="507" y="508" type="qcurve" smooth="yes"/>
      <point x="507" y="619"/>
      <point x="444" y="704"/>
      <point x="369" y="704" type="qcurve" smooth="yes"/>
      <point x="245" y="704"/>
      <point x="99" y="573"/>
      <point x="99" y="461" type="qcurve" smooth="yes"/>
      <point x="99" y="442"/>
      <point x="104" y="414"/>
      <point x="110" y="401" type="qcurve" smooth="yes"/>
      <point x="112" y="397"/>
      <point x="113" y="394"/>
      <point x="113" y="393" type="qcurve"/>
      <point x="57" y="393"/>
      <point x="6" y="440"/>
      <point x="6" y="490" type="qcurve" smooth="yes"/>
      <point x="6" y="540"/>
      <point x="73" y="640"/>
      <point x="133" y="680" type="qcurve" smooth="yes"/>
      <point x="184" y="713"/>
      <point x="301" y="750"/>
      <point x="357" y="750" type="qcurve" smooth="yes"/>
      <point x="501" y="750"/>
      <point x="645" y="616"/>
      <point x="645" y="480" type="qcurve" smooth="yes"/>
      <point x="645" y="401"/>
      <point x="614" y="247"/>
      <point x="584" y="181" type="qcurve" smooth="yes"/>
      <point x="544" y="90"/>
      <point x="429" y="-13"/>
      <point x="368" y="-13" type="qcurve" smooth="yes"/>
      <point x="338" y="-13"/>
      <point x="277" y="14"/>
      <point x="246" y="40" type="qcurve"/>
      <point x="238" y="0" type="line"/>
      <point x="94" y="0" type="line"/>
      <point x="168" y="345" type="line"/>
      <point x="129" y="345" type="line"/>
      <point x="149" y="419" type="line"/>
    </contour>
  </outline>
</glyph>
<glyph name="Ntilde" format="1">
  <advance width="686"/>
  <unicode hex="00D1"/>
  <outline>
    <contour>
      <point x="461" y="206" type="line"/>
      <point x="570" y="748" type="line"/>
      <point x="714" y="748" type="line"/>
      <point x="555" y="0" type="line"/>
      <point x="434" y="0" type="line"/>
      <point x="349" y="523" type="line"/>
      <point x="238" y="0" type="line"/>
      <point x="94" y="0" type="line"/>
      <point x="238" y="679" type="line"/>
      <point x="171" y="651"/>
      <point x="99" y="539"/>
      <point x="99" y="461" type="qcurve" smooth="yes"/>
      <point x="99" y="442"/>
      <point x="104" y="414"/>
      <point x="110" y="401" type="qcurve" smooth="yes"/>
      <point x="112" y="397"/>
      <point x="113" y="394"/>
      <point x="113" y="393" type="qcurve"/>
      <point x="57" y="393"/>
      <point x="6" y="440"/>
      <point x="6" y="490" type="qcurve" smooth="yes"/>
      <point x="6" y="538"/>
      <point x="54" y="637"/>
      <point x="96" y="675" type="qcurve" smooth="yes"/>
      <point x="136" y="712"/>
      <point x="235" y="750"/>
      <point x="289" y="750" type="qcurve" smooth="yes"/>
      <point x="328" y="750"/>
      <point x="367" y="743"/>
      <point x="382" y="736" type="qcurve"/>
    </contour>
    <contour>
      <point x="640" y="897" type="qcurve" smooth="yes"/>
      <point x="659" y="897"/>
      <point x="693" y="909"/>
      <point x="703" y="920" type="qcurve"/>
      <point x="709" y="919" type="line"/>
      <point x="700" y="881"/>
      <point x="602" y="819"/>
      <point x="548" y="819" type="qcurve" smooth="yes"/>
      <point x="530" y="819"/>
      <point x="491" y="827"/>
      <point x="456" y="839" type="qcurve" smooth="yes"/>
      <point x="425" y="849"/>
      <point x="394" y="856"/>
      <point x="380" y="856" type="qcurve" smooth="yes"/>
      <point x="361" y="856"/>
      <point x="328" y="843"/>
      <point x="314" y="830" type="qcurve"/>
      <point x="308" y="832" type="line"/>
      <point x="332" y="880"/>
      <point x="418" y="930"/>
      <point x="475" y="930" type="qcurve" smooth="yes"/>
      <point x="495" y="930"/>
      <point x="534" y="923"/>
      <point x="567" y="912" type="qcurve" smooth="yes"/>
      <point x="596" y="903"/>
      <point x="625" y="897"/>
    </contour>
  </outline>
</glyph>
<glyph name="Otilde" format="1">
  <advance width="658"/>
  <unicode hex="00D5"/>
  <outline>
    <contour>
      <point x="379" y="664" type="qcurve" smooth="yes"/>
      <point x="393" y="664"/>
      <point x="419" y="660"/>
      <point x="431" y="656" type="qcurve"/>
      <point x="367" y="617"/>
      <point x="256" y="315"/>
      <point x="256" y="191" type="qcurve" smooth="yes"/>
      <point x="256" y="135"/>
      <point x="286" y="75"/>
      <point x="314" y="75" type="qcurve" smooth="yes"/>
      <point x="355" y="75"/>
      <point x="441" y="181"/>
      <point x="474" y="270" type="qcurve" smooth="yes"/>
      <point x="498" y="333"/>
      <point x="523" y="468"/>
      <point x="523" y="529" type="qcurve" smooth="yes"/>
      <point x="523" y="629"/>
      <point x="465" y="704"/>
      <point x="395" y="704" type="qcurve" smooth="yes"/>
      <point x="272" y="704"/>
      <point x="107" y="559"/>
      <point x="107" y="447" type="qcurve" smooth="yes"/>
      <point x="107" y="433"/>
      <point x="110" y="412"/>
      <point x="115" y="401" type="qcurve" smooth="yes"/>
      <point x="116" y="397"/>
      <point x="117" y="394"/>
      <point x="117" y="393" type="qcurve"/>
      <point x="66" y="393"/>
      <point x="16" y="434"/>
      <point x="16" y="477" type="qcurve" smooth="yes"/>
      <point x="16" y="533"/>
      <point x="95" y="642"/>
      <point x="165" y="683" type="qcurve" smooth="yes"/>
      <point x="221" y="715"/>
      <point x="352" y="750"/>
      <point x="419" y="750" type="qcurve" smooth="yes"/>
      <point x="537" y="750"/>
      <point x="656" y="621"/>
      <point x="656" y="494" type="qcurve" smooth="yes"/>
      <point x="656" y="411"/>
      <point x="608" y="235"/>
      <point x="566" y="166" type="qcurve" smooth="yes"/>
      <point x="515" y="82"/>
      <point x="373" y="-6"/>
      <point x="287" y="-6" type="qcurve" smooth="yes"/>
      <point x="199" y="-6"/>
      <point x="108" y="96"/>
      <point x="108" y="195" type="qcurve" smooth="yes"/>
      <point x="108" y="259"/>
      <point x="142" y="414"/>
      <point x="171" y="479" type="qcurve" smooth="yes"/>
      <point x="211" y="569"/>
      <point x="317" y="664"/>
    </contour>
    <contour>
      <point x="606" y="897" type="qcurve" smooth="yes"/>
      <point x="625" y="897"/>
      <point x="659" y="909"/>
      <point x="669" y="920" type="qcurve"/>
      <point x="675" y="919" type="line"/>
      <point x="666" y="881"/>
      <point x="568" y="819"/>
      <point x="514" y="819" type="qcurve" smooth="yes"/>
      <point x="496" y="819"/>
      <point x="457" y="827"/>
      <point x="422" y="839" type="qcurve" smooth="yes"/>
      <point x="391" y="849"/>
      <point x="360" y="856"/>
      <point x="346" y="856" type="qcurve" smooth="yes"/>
      <point x="327" y="856"/>
      <point x="294" y="843"/>
      <point x="280" y="830" type="qcurve"/>
      <point x="274" y="832" type="line"/>
      <point x="298" y="880"/>
      <point x="384" y="930"/>
      <point x="441" y="930" type="qcurve" smooth="yes"/>
      <point x="461" y="930"/>
      <point x="500" y="923"/>
      <point x="533" y="912" type="qcurve" smooth="yes"/>
      <point x="562" y="903"/>
      <point x="591" y="897"/>
    </contour>
  </outline>
</glyph>
<glyph name="Odieresis" format="1">
  <advance width="658"/>
  <unicode hex="00D6"/>
  <outline>
    <contour>
      <point x="379" y="664" type="qcurve" smooth="yes"/>
      <point x="393" y="664"/>
      <point x="419" y="660"/>
      <point x="431" y="656" type="qcurve"/>
      <point x="367" y="617"/>
      <point x="256" y="315"/>
      <point x="256" y="191" type="qcurve" smooth="yes"/>
      <point x="256" y="135"/>
      <point x="286" y="75"/>
      <point x="314" y="75" type="qcurve" smooth="yes"/>
      <point x="355" y="75"/>
      <point x="441" y="181"/>
      <point x="474" y="270" type="qcurve" smooth="yes"/>
      <point x="498" y="333"/>
      <point x="523" y="468"/>
      <point x="523" y="529" type="qcurve" smooth="yes"/>
      <point x="523" y="629"/>
      <point x="465" y="704"/>
      <point x="395" y="704" type="qcurve" smooth="yes"/>
      <point x="272" y="704"/>
      <point x="107" y="559"/>
      <point x="107" y="447" type="qcurve" smooth="yes"/>
      <point x="107" y="433"/>
      <point x="110" y="412"/>
      <point x="115" y="401" type="qcurve" smooth="yes"/>
      <point x="116" y="397"/>
      <point x="117" y="394"/>
      <point x="117" y="393" type="qcurve"/>
      <point x="66" y="393"/>
      <point x="16" y="434"/>
      <point x="16" y="477" type="qcurve" smooth="yes"/>
      <point x="16" y="533"/>
      <point x="95" y="642"/>
      <point x="165" y="683" type="qcurve" smooth="yes"/>
      <point x="221" y="715"/>
      <point x="352" y="750"/>
      <point x="419" y="750" type="qcurve" smooth="yes"/>
      <point x="537" y="750"/>
      <point x="656" y="621"/>
      <point x="656" y="494" type="qcurve" smooth="yes"/>
      <point x="656" y="411"/>
      <point x="608" y="235"/>
      <point x="566" y="166" type="qcurve" smooth="yes"/>
      <point x="515" y="82"/>
      <point x="373" y="-6"/>
      <point x="287" y="-6" type="qcurve" smooth="yes"/>
      <point x="199" y="-6"/>
      <point x="108" y="96"/>
      <point x="108" y="195" type="qcurve" smooth="yes"/>
      <point x="108" y="259"/>
      <point x="142" y="414"/>
      <point x="171" y="479" type="qcurve" smooth="yes"/>
      <point x="211" y="569"/>
      <point x="317" y="664"/>
    </contour>
    <contour>
      <point x="349" y="823" type="qcurve" smooth="yes"/>
      <point x="324" y="823"/>
      <point x="288" y="859"/>
      <point x="288" y="884" type="qcurve" smooth="yes"/>
      <point x="288" y="909"/>
      <point x="324" y="945"/>
      <point x="349" y="945" type="qcurve" smooth="yes"/>
      <point x="374" y="945"/>
      <point x="410" y="909"/>
      <point x="410" y="884" type="qcurve" smooth="yes"/>
      <point x="410" y="859"/>
      <point x="374" y="823"/>
    </contour>
    <contour>
      <point x="529" y="823" type="qcurve" smooth="yes"/>
      <point x="504" y="823"/>
      <point x="468" y="859"/>
      <point x="468" y="884" type="qcurve" smooth="yes"/>
      <point x="468" y="909"/>
      <point x="504" y="945"/>
      <point x="529" y="945" type="qcurve" smooth="yes"/>
      <point x="554" y="945"/>
      <point x="590" y="909"/>
      <point x="590" y="884" type="qcurve" smooth="yes"/>
      <point x="590" y="859"/>
      <point x="554" y="823"/>
    </contour>
  </outline>
</glyph>
<glyph name="multiply" format="1">
  <advance width="515"/>
  <unicode hex="00D7"/>
  <outline>
    <contour>
      <point x="193" y="260" type="line"/>
      <point x="98" y="355" type="line"/>
      <point x="163" y="419" type="line"/>
      <point x="257" y="324" type="line"/>
      <point x="353" y="420" type="line"/>
      <point x="417" y="355" type="line"/>
      <point x="322" y="260" type="line"/>
      <point x="417" y="165" type="line"/>
      <point x="353" y="100" type="line"/>
      <point x="257" y="195" type="line"/>
      <point x="163" y="101" type="line"/>
      <point x="98" y="165" type="line"/>
    </contour>
  </outline>
</glyph>
<glyph name="Oslash" format="1">
  <advance width="658"/>
  <unicode hex="00D8"/>
  <outline>
    <contour>
      <point x="332" y="-1" type="qcurve"/>
      <point x="317" y="-71" type="line"/>
      <point x="265" y="-71" type="line"/>
      <point x="279" y="-6" type="line"/>
      <point x="192" y="-6"/>
      <point x="104" y="89"/>
      <point x="104" y="183" type="qcurve" smooth="yes"/>
      <point x="104" y="243"/>
      <point x="137" y="389"/>
      <point x="166" y="451" type="qcurve" smooth="yes"/>
      <point x="204" y="534"/>
      <point x="306" y="622"/>
      <point x="365" y="622" type="qcurve" smooth="yes"/>
      <point x="377" y="622"/>
      <point x="399" y="619"/>
      <point x="410" y="615" type="qcurve"/>
      <point x="419" y="656" type="line"/>
      <point x="411" y="657"/>
      <point x="392" y="659"/>
      <point x="381" y="659" type="qcurve" smooth="yes"/>
      <point x="263" y="659"/>
      <point x="103" y="524"/>
      <point x="103" y="418" type="qcurve" smooth="yes"/>
      <point x="103" y="405"/>
      <point x="106" y="385"/>
      <point x="111" y="375" type="qcurve" smooth="yes"/>
      <point x="112" y="372"/>
      <point x="113" y="369"/>
      <point x="113" y="368" type="qcurve"/>
      <point x="63" y="368"/>
      <point x="15" y="406"/>
      <point x="15" y="446" type="qcurve" smooth="yes"/>
      <point x="15" y="499"/>
      <point x="92" y="602"/>
      <point x="160" y="640" type="qcurve" smooth="yes"/>
      <point x="214" y="670"/>
      <point x="340" y="702"/>
      <point x="404" y="702" type="qcurve" smooth="yes"/>
      <point x="414" y="702"/>
      <point x="424" y="702"/>
      <point x="428" y="701" type="qcurve"/>
      <point x="439" y="750" type="line"/>
      <point x="491" y="750" type="line"/>
      <point x="479" y="694" type="line"/>
      <point x="555" y="676"/>
      <point x="632" y="560"/>
      <point x="632" y="462" type="qcurve" smooth="yes"/>
      <point x="632" y="391"/>
      <point x="593" y="239"/>
      <point x="558" y="177" type="qcurve" smooth="yes"/>
      <point x="517" y="102"/>
      <point x="402" y="12"/>
    </contour>
    <contour>
      <point x="247" y="179" type="qcurve" smooth="yes"/>
      <point x="247" y="130"/>
      <point x="271" y="74"/>
      <point x="295" y="70" type="qcurve"/>
      <point x="409" y="610" type="line"/>
      <point x="349" y="570"/>
      <point x="247" y="292"/>
    </contour>
    <contour>
      <point x="504" y="495" type="qcurve" smooth="yes"/>
      <point x="504" y="552"/>
      <point x="486" y="617"/>
      <point x="466" y="634" type="qcurve"/>
      <point x="351" y="88" type="line"/>
      <point x="411" y="132"/>
      <point x="504" y="377"/>
    </contour>
  </outline>
</glyph>
